<?xml version="1.0" encoding="UTF-8"?>
<svg width="625px" height="545px" viewBox="0 0 625 545" version="1.1" xmlns="http://www.w3.org/2000/svg" xmlns:xlink="http://www.w3.org/1999/xlink">
    <!-- Generator: Sketch 64 (93537) - https://sketch.com -->
    <title>sick person</title>
    <desc>Created with Sketch.</desc>
    <defs>
        <linearGradient x1="104.725573%" y1="85.4910704%" x2="-17.4821331%" y2="12.7436258%" id="linearGradient-1">
            <stop stop-color="#DBE2E4" offset="0%"></stop>
            <stop stop-color="#F4F4F4" offset="100%"></stop>
        </linearGradient>
        <linearGradient x1="104.725573%" y1="77.8013211%" x2="-17.4821331%" y2="20.8158585%" id="linearGradient-2">
            <stop stop-color="#DBE2E4" offset="0%"></stop>
            <stop stop-color="#F4F4F4" offset="100%"></stop>
        </linearGradient>
        <linearGradient x1="37.7369615%" y1="-55.1238781%" x2="50%" y2="100%" id="linearGradient-3">
            <stop stop-color="#37ECBA" offset="0%"></stop>
            <stop stop-color="#72AFD3" offset="100%"></stop>
        </linearGradient>
        <linearGradient x1="42.6035503%" y1="-55.1238781%" x2="50%" y2="100%" id="linearGradient-4">
            <stop stop-color="#37ECBA" offset="0%"></stop>
            <stop stop-color="#72AFD3" offset="100%"></stop>
        </linearGradient>
        <linearGradient x1="92.2489219%" y1="50.6015365%" x2="16.2145492%" y2="49.5482044%" id="linearGradient-5">
            <stop stop-color="#A1C4FD" offset="0%"></stop>
            <stop stop-color="#C2E9FB" offset="100%"></stop>
        </linearGradient>
        <linearGradient x1="92.2489219%" y1="78.0375578%" x2="16.2145492%" y2="28.9418522%" id="linearGradient-6">
            <stop stop-color="#A1C4FD" offset="0%"></stop>
            <stop stop-color="#C2E9FB" offset="100%"></stop>
        </linearGradient>
        <linearGradient x1="113.516185%" y1="16.9210481%" x2="22.7652026%" y2="83.0789519%" id="linearGradient-7">
            <stop stop-color="#1E9DD7" offset="0%"></stop>
            <stop stop-color="#075D98" offset="100%"></stop>
        </linearGradient>
        <filter x="-15.6%" y="-16.3%" width="131.3%" height="132.7%" filterUnits="objectBoundingBox" id="filter-8">
            <feGaussianBlur stdDeviation="5.72" in="SourceGraphic"></feGaussianBlur>
        </filter>
        <filter x="-9.5%" y="-9.8%" width="118.9%" height="119.6%" filterUnits="objectBoundingBox" id="filter-9">
            <feGaussianBlur stdDeviation="5.72" in="SourceGraphic"></feGaussianBlur>
        </filter>
        <linearGradient x1="68.1802957%" y1="86.7682957%" x2="35.461653%" y2="22.3844633%" id="linearGradient-10">
            <stop stop-color="#A1C4FD" offset="0%"></stop>
            <stop stop-color="#C2E9FB" offset="100%"></stop>
        </linearGradient>
        <filter x="-40.0%" y="-33.9%" width="179.9%" height="167.7%" filterUnits="objectBoundingBox" id="filter-11">
            <feGaussianBlur stdDeviation="14.3" in="SourceGraphic"></feGaussianBlur>
        </filter>
        <linearGradient x1="64.724697%" y1="86.7682957%" x2="38.2250126%" y2="22.3844633%" id="linearGradient-12">
            <stop stop-color="#A1C4FD" offset="0%"></stop>
            <stop stop-color="#C2E9FB" offset="100%"></stop>
        </linearGradient>
        <filter x="-41.2%" y="-30.3%" width="182.5%" height="160.7%" filterUnits="objectBoundingBox" id="filter-13">
            <feGaussianBlur stdDeviation="14.3" in="SourceGraphic"></feGaussianBlur>
        </filter>
        <linearGradient x1="64.6638212%" y1="86.7682957%" x2="38.2736935%" y2="22.3844633%" id="linearGradient-14">
            <stop stop-color="#A1C4FD" offset="0%"></stop>
            <stop stop-color="#C2E9FB" offset="100%"></stop>
        </linearGradient>
        <linearGradient x1="0%" y1="63.9649252%" x2="112.564509%" y2="38.3424215%" id="linearGradient-15">
            <stop stop-color="#09203F" offset="0%"></stop>
            <stop stop-color="#537895" offset="100%"></stop>
        </linearGradient>
        <filter x="-136.3%" y="-42.0%" width="372.5%" height="184.1%" filterUnits="objectBoundingBox" id="filter-16">
            <feGaussianBlur stdDeviation="4.29" in="SourceGraphic"></feGaussianBlur>
        </filter>
        <filter x="-46.8%" y="-41.5%" width="193.6%" height="183.0%" filterUnits="objectBoundingBox" id="filter-17">
            <feGaussianBlur stdDeviation="1.43" in="SourceGraphic"></feGaussianBlur>
        </filter>
        <filter x="-37.4%" y="-12.5%" width="174.9%" height="125.1%" filterUnits="objectBoundingBox" id="filter-18">
            <feGaussianBlur stdDeviation="1.43" in="SourceGraphic"></feGaussianBlur>
        </filter>
        <filter x="-32.5%" y="-55.3%" width="165.0%" height="210.7%" filterUnits="objectBoundingBox" id="filter-19">
            <feGaussianBlur stdDeviation="1.43" in="SourceGraphic"></feGaussianBlur>
        </filter>
        <linearGradient x1="58.540011%" y1="53.9808706%" x2="5.94414729%" y2="43.1652591%" id="linearGradient-20">
            <stop stop-color="#29323C" offset="0%"></stop>
            <stop stop-color="#485563" offset="100%"></stop>
        </linearGradient>
        <linearGradient x1="65.096937%" y1="0%" x2="43.5266575%" y2="100%" id="linearGradient-21">
            <stop stop-color="#1E9DD7" offset="0%"></stop>
            <stop stop-color="#075D98" offset="100%"></stop>
        </linearGradient>
        <linearGradient x1="64.3778419%" y1="0%" x2="43.8349949%" y2="100%" id="linearGradient-22">
            <stop stop-color="#1E9DD7" offset="0%"></stop>
            <stop stop-color="#075D98" offset="100%"></stop>
        </linearGradient>
        <filter x="-33.1%" y="-23.2%" width="166.2%" height="146.5%" filterUnits="objectBoundingBox" id="filter-23">
            <feGaussianBlur stdDeviation="5.72" in="SourceGraphic"></feGaussianBlur>
        </filter>
        <filter x="-24.0%" y="-18.0%" width="148.0%" height="135.9%" filterUnits="objectBoundingBox" id="filter-24">
            <feGaussianBlur stdDeviation="5.72" in="SourceGraphic"></feGaussianBlur>
        </filter>
        <filter x="-68.7%" y="-18.8%" width="237.3%" height="137.6%" filterUnits="objectBoundingBox" id="filter-25">
            <feGaussianBlur stdDeviation="5.72" in="SourceGraphic"></feGaussianBlur>
        </filter>
        <filter x="-26.0%" y="-30.8%" width="151.9%" height="161.7%" filterUnits="objectBoundingBox" id="filter-26">
            <feGaussianBlur stdDeviation="5.72" in="SourceGraphic"></feGaussianBlur>
        </filter>
    </defs>
    <g id="Page-1" stroke="none" stroke-width="1" fill="none" fill-rule="evenodd">
        <g id="Covid-illustrations" transform="translate(-748.000000, -2507.000000)">
            <g id="sick-person" transform="translate(1060.500000, 2779.500000) scale(-1, 1) translate(-1060.500000, -2779.500000) translate(748.000000, 2507.000000)">
                <g id="background-simple--inject-181" transform="translate(32.890000, 1.100000)" fill-rule="nonzero">
                    <path d="M157.1856,28.0863 C140.7835,7.4228 112.6268,-1.5004 86.3148,0.5302 C71.1854,1.7028 58.6014,4.4913 48.191,11.4554 C44.3506165,13.6230738 40.9853708,16.5409168 38.2954,20.0354 C34.7792478,23.9942253 32.142494,28.6536276 30.5591,33.7062 L30.5591,33.7062 C24.31,48.95 22.737,67.826 26.1547,80.7246 C33.4191,108.2807 56.628,131.2608 84.4844,137.2668 C112.3408,143.2728 143.4862,131.461 159.5308,107.9089 C175.5754,84.3568 174.9176,50.38 157.1856,28.0863 Z" id="Path" fill="url(#linearGradient-1)"></path>
                    <path d="M516.4445,148.2492 C499.9137,86.8736 454.168,32.5765 394.0365,11.9988 C333.905,-8.5789 261.0465,8.4524 220.8206,57.7588 C191.3626,93.8377 179.8511,143.7733 144.1869,173.7318 C108.5227,203.6903 54.5831,208.0518 23.8095,243.1154 C6.292,262.9924 -0.9152,290.62 0.4862,317.1322 C1.8876,343.6444 11.2398,369.27 23.5521,392.722 C32.4467,409.7104 43.3433,426.2841 59.0876,437.2379 C74.8319,448.1917 143,442.2 166.5664,442.629 L359.3161,442.9865 C386.3288,444.0161 431.0306,425.8265 452.0802,408.8953 C473.1298,391.9641 489.918,358.2161 502.3304,334.1921 C531.5024,277.75 532.9753,209.6248 516.4445,148.2492 Z" id="Path" fill="url(#linearGradient-2)"></path>
                </g>
                <g id="Tissue--inject-181" transform="translate(0.000000, 251.680000)">
                    <path d="M42.3137,182.6253 L48.8345,170.8993 L38.2382,160.8893 L32.7327,153.0958 L16.5451,160.6462 L8.9947,174.317 L0.2002,179.1075 L0.9152,188.1308 L12.2408,197.1112 L21.1783,201.9875 L30.459,198.0836 C30.459,198.0836 41.899,202.0733 42.2565,201.5728 C42.614,201.0723 48.9918,193.5076 48.9918,193.5076 L47.19,187.1298 L43.2289,183.04" id="Path" fill="#F5F5F5" fill-rule="nonzero"></path>
                    <g id="Group-4" transform="translate(541.860000, 0.000000)">
                        <path d="M49.0972366,136.565 C48.7043713,136.565 48.3208322,136.481424 47.9582769,136.283666 C46.8659481,135.686861 46.487072,134.316682 46.2480887,133.085404 C45.4448715,128.945437 45.047343,124.730135 45.045,120.512478 C45.0391826,110.525706 47.2494872,100.531872 51.5500219,91.5338901 C57.6656643,78.7373094 67.9734245,68.0277803 80.4646766,61.49 C81.692235,65.6841143 82.2238273,70.2619731 82.225,74.968139 C82.2296561,84.8666256 79.8946139,95.3277803 76.7680121,103.965561 C72.1550504,116.711525 63.3977676,127.887197 52.1772075,135.353733 C51.2562472,135.967018 50.1464318,136.565 49.0972366,136.565" id="Fill-125" fill="url(#linearGradient-3)" opacity="0.803501674"></path>
                        <path d="M22.6130388,0.00400414142 C30.5737876,-0.21756687 35.8185434,8.79730903 36.617161,16.876401 C37.413467,24.9543144 35.6486494,33.3421914 37.9740017,41.1066054 C40.9280775,50.967694 49.9671333,58.042645 52.7062411,67.9685549 C55.9353834,79.6729257 49.6389026,91.8204386 49.3372541,103.976201 C49.1916306,109.890262 50.4721924,115.867965 49.3996641,121.683025 C47.5920841,131.486364 38.4166508,139.325028 28.6344531,139.425 C18.8522553,139.524206 9.5265756,131.871756 7.5282982,122.106132 C5.66408685,113.000506 9.60054306,103.32681 7.24051852,94.3413981 C5.49534856,87.6978035 0.440134382,82.0607069 0.0275345966,75.1967198 C-0.462499883,67.0315923 5.73574283,59.9707842 6.88455008,51.8728351 C8.03335732,43.7748861 4.02293364,35.8666867 3.42657092,27.7039163 C2.35519837,13.0649081 8.29917792,1.57032262 22.6130388,0.00400414142" id="Fill-126" fill="url(#linearGradient-4)" opacity="0.803501674"></path>
                        <path d="M40.7642595,166.595 C40.7910236,166.599667 40.8749652,166.318478 41.0112184,165.780909 C41.1584204,165.159456 41.3409023,164.378505 41.5659633,163.420333 C42.0197349,161.366939 42.7180322,158.403814 43.6340912,154.755437 C45.4564769,147.458682 48.3177928,137.457543 52.2679172,126.66482 C56.2350732,115.873279 60.5319132,106.364813 63.8688985,99.5938122 C65.5343498,96.205358 66.9199955,93.4797081 67.9066142,91.6106235 C68.3555196,90.7316103 68.7217,90.0132769 69.013671,89.4414457 C69.2581967,88.9416842 69.3762016,88.6734906 69.3518707,88.66 C69.3287563,88.6474983 69.1633061,88.890881 68.8725516,89.3681946 C68.5465173,89.9223038 68.1365414,90.6170078 67.634108,91.4700287 C66.562331,93.2989433 65.0976098,95.9903306 63.3652485,99.3551554 C59.8920101,106.078898 55.5002795,115.581456 51.5221746,126.406079 C47.5586682,137.230701 44.7752112,147.28855 43.0878621,154.631382 C42.2399297,158.302208 41.6231409,161.287781 41.2630434,163.362441 C41.0963766,164.331246 40.96134,165.121649 40.8542839,165.751372 C40.7691257,166.300756 40.7374955,166.590216 40.7642595,166.595" id="Fill-127" fill="#132529"></path>
                        <path d="M23.6035552,40.755 C23.5768799,40.7573845 23.6128335,41.2033517 23.7079366,42.0483424 C23.8192767,42.9578809 23.96889,44.1878118 24.1590961,45.7381349 C24.5847402,49.0089529 25.1855131,53.6200199 25.9231417,59.2884988 C27.4262337,70.7287333 29.4871863,86.5335792 31.6571594,104.004934 C33.824813,121.480984 35.6920801,137.311649 37.0339609,148.773008 C37.7031616,154.449702 38.2482644,159.066637 38.6344756,162.343323 C38.8304806,163.891299 38.9858929,165.12123 39.1018723,166.030769 C39.215532,166.871065 39.288599,167.312338 39.3141144,167.31 C39.3407897,167.30647 39.3175938,166.860503 39.2538052,166.013165 C39.1726197,165.101279 39.0647589,163.86548 38.9279033,162.31281 C38.598522,159.027909 38.1346047,154.400411 37.5651462,148.711981 C36.360121,137.234192 34.5751992,121.389443 32.4063859,103.908699 C30.2352529,86.4338233 28.091955,70.6371926 26.4531672,59.2133885 C25.6157964,53.5601664 24.9326782,48.9584881 24.4502042,45.6958854 C24.2020085,44.1537774 24.0036838,42.9308882 23.8598695,42.0272176 C23.7160551,41.1892686 23.6279108,40.7503429 23.6035552,40.755" id="Fill-128" fill="#132529"></path>
                        <polygon id="Fill-129" fill="url(#linearGradient-5)" points="7.865 158.015 69.355 158.015 69.355 150.15 7.865 150.15"></polygon>
                        <polyline id="Fill-130" fill="url(#linearGradient-6)" points="12.155 157.3 19.4342543 201.63 57.8813374 201.63 62.92 157.3 12.155 157.3"></polyline>
                    </g>
                </g>
                <g id="Character--inject-181" transform="translate(66.880000, 0.000000)">
                    <path d="M452.6962,436.5647 C441.6852,433.4187 437.3666,439.3246 437.3666,439.3246 C437.3666,439.3246 440.8844,418.1749 429.616,366.0228 C418.3476,313.8707 379.137,264.803017 371.415,250.517317 C363.979,236.760717 340.238442,187.056429 336.220142,157.326729 C334.311073,142.875972 327.288802,125.789343 314.5582,118.69 C304.712874,113.375828 294.566545,108.639283 284.1707,104.5044 C285.7008,103.5749 272.9166,83.7122 261.4623,83.6979 C251.0662,83.6979 197.2839,63.6779 166.1528,95.1379 C163.873853,97.4624261 157.926699,107.551122 151.469029,117.778796 C145.770469,126.804188 139.674364,135.937805 135.3506,139.9398 C126.1271,148.4769 92.136,237.0797 78.6511,260.26 C72.5001546,270.833364 60.966373,299.183766 46.0524355,321.985721 C28.2701054,349.173168 0.0528649333,370.125888 1.8172,391.391 C4.87972538,428.302891 23.2672,453.6389 23.2672,453.6389 L464.2792,453.4101 C463.5356,444.8444 458.2446,438.152 452.6962,436.5647 Z" id="Path" fill="url(#linearGradient-7)" fill-rule="nonzero"></path>
                    <g id="Group" opacity="0.5" transform="translate(250.580000, 94.380000)" fill="#000000" fill-rule="nonzero">
                        <path d="M0.2431,0.2145 C1.7875,-0.2431 22.5082,0.6435 28.1853,29.1291 L6.4779,30.2445 L0.2431,0.2145 Z" id="Path"></path>
                    </g>
                    <g id="Group" opacity="0.5" transform="translate(316.360000, 348.920000)" fill="#000000" fill-rule="nonzero">
                        <path d="M98.4555,36.6652 C83.9839,5.2052 30.9595,19.9485 19.4623,12.4696 C14.4573,9.2092 7.0356,6.9927 0.2574,0.143 L1.6874,17.9179 L7.722,105.1479 L109.5809,104.7046 C109.5809,104.7046 112.97,68.1252 98.4555,36.6652 Z" id="Path" opacity="0.601492746" filter="url(#filter-8)"></path>
                    </g>
                    <g id="Group" opacity="0.5" transform="translate(3.190000, 278.850000)" fill="#000000" fill-rule="nonzero">
                        <path d="M153.7822,0.5863 C151.9661,1.9448 114.4286,16.874 114.4286,18.2325 C114.4286,19.591 109.4522,69.784 109.4522,69.784 L45.2309,78.8359 L18.0609,93.3218 L7.4932,114.4 L0.9009,136.3505 L16.7167,164.45 L25.4254,174.889 L182.2678,175.3323 L182.2678,57.5861 C182.2678,57.5861 158.0865,0.5863 155.87,0.5863" id="Path" opacity="0.601492746" filter="url(#filter-9)"></path>
                    </g>
                    <g id="Group" opacity="0.5" transform="translate(156.200000, 91.520000)" fill="#000000" fill-rule="nonzero">
                        <path d="M0.3003,42.2994 C0.3003,42.2994 6.9498,27.4989 8.0223,26.5694 C8.5228,26.1118 9.5524,21.5215 10.4819,16.8025 C11.1274657,13.1572742 12.5517211,9.69418743 14.6575,6.6495 C16.6541136,4.13600959 19.140049,2.05385624 21.9648,0.5291 L21.9648,0.5291 L34.5917,29.3722 L24.6675,43.5292 L0.3003,42.2994 Z" id="Path"></path>
                    </g>
                    <path d="M288.4035,124.6245 L258.4879,119.977 L170.5,127.4559 C170.5,127.4559 139.04,199.7281 140.9419,201.7301 C141.8857,202.7454 166.8392,282.2963 166.8392,282.2963 L165.0946,347.776 C165.0946,347.776 156.1857,358.787 154.6556,366.652 C149.8651,391.4482 314.358,397.3827 318.3906,382.6537 L318.3906,142.4137 L288.4035,124.6245 Z" id="Path" fill="url(#linearGradient-10)" fill-rule="nonzero"></path>
                    <path d="M120.204701,288.109261 C120.204701,288.109261 100.8447,296.6249 110.5258,309.0087 C118.7769,319.5478 144.0021,317.2884 159.1458,310.4387 C184.3281,298.9987 204.2766,222.5938 204.2766,222.5938 L215.1589,196.1388 L191.54245,189.59729 C143.98395,255.271937 120.204701,288.109261 120.204701,288.109261 Z" id="Path" fill="#000000" fill-rule="nonzero" opacity="0.302687872" filter="url(#filter-11)"></path>
                    <path d="M171.4295,127.4559 C171.4295,127.4559 142.7723,130.3159 135.1933,148.9059 C127.6143,167.4959 104.3053,273.5733 104.3053,273.5733 C104.3053,273.5733 100.8447,296.6249 110.5258,309.0087 C118.7769,319.5478 144.0021,317.2884 159.1458,310.4387 C184.3281,298.9987 204.2766,222.5938 204.2766,222.5938 L215.1589,196.1388 L174.2895,182.754 L147.62,237.2613 L171.4295,127.4559 Z" id="Path" fill="url(#linearGradient-12)" fill-rule="nonzero"></path>
                    <path d="M317.0321,312.5551 C309.8249,318.3609 278.2934,339.7966 260.6043,299.2704 C255.442,287.4443 244.1164,272.987 237.0379,258.0149 C228.365985,239.383135 220.727731,220.287499 214.1579,200.8149 L254.4696,181.9532 L285.7294,234.8632 C311.402667,282.787267 321.8369,308.684567 317.0321,312.5551 Z" id="Path" fill="#000000" fill-rule="nonzero" opacity="0.296572731" filter="url(#filter-13)"></path>
                    <path d="M270.2854,122.0791 C271.8012,122.4509 319.792,129.2291 328.515,137.137 C337.238,145.0449 336.1798,215.93 336.1798,215.93 C336.1798,215.93 328.5293,305.3193 321.3221,311.1251 C314.1149,316.9309 282.5834,338.3666 264.8943,297.8404 C259.732,286.0143 248.4064,271.557 241.3279,256.5849 C232.655985,237.953135 225.017731,218.857499 218.4479,199.3849 L258.7596,180.5232 L290.0194,233.4332 L284.2994,157.4573 L270.2854,122.0791 Z" id="Path" fill="url(#linearGradient-14)" fill-rule="nonzero"></path>
                    <path d="M168.355,73.8224697 C159.1458,51.0423824 176.307546,21.1280708 198.0132,15.6156 L200.1582,15.0722 C223.7532,10.4962 240.8131,27.9422 244.7313,51.6659 C248.753294,77.6478037 252.282933,96.9503787 255.320219,109.573625 C256.741356,115.480001 259.899349,123.971859 264.7942,135.0492 C265.171085,136.634736 258.98283,148.874058 257.73,149.916357 L219.671233,167.334601 L206.107,138.4669 C206.107,138.4669 179.6234,139.5108 173.646,117.26 C170.7002,106.4492 177.5642,96.6025571 168.355,73.8224697 Z" id="Path" fill="#FFBE9D" fill-rule="nonzero"></path>
                    <path d="M198.385,0 C201.717043,0 204.45759,2.53249411 204.78684,5.77768015 C206.910317,3.95815622 209.669414,2.86 212.685,2.86 C214.864199,2.86 216.909456,3.43347534 218.678089,4.4377436 C219.816576,2.63083516 221.830553,1.43 224.125,1.43 C227.678952,1.43 230.56,4.31104764 230.56,7.865 C230.56,8.72485198 230.391355,9.54531471 230.085336,10.2951156 C230.9282,10.1077756 231.805182,10.01 232.705,10.01 C239.418021,10.01 244.86,15.4519789 244.86,22.165 C244.86,23.4577799 244.658177,24.7034215 244.284321,25.8721362 C248.669903,26.6170593 252.01,30.4359689 252.01,35.035 C252.01,36.9687173 251.41951,38.7645183 250.409009,40.2519245 C254.594069,41.1549257 257.73,44.8787449 257.73,49.335 C257.73,51.9616192 256.640517,54.3337759 254.8888,56.0242202 C258.978568,56.9981677 262.02,60.6764017 262.02,65.065 C262.02,70.1984867 257.858487,74.36 252.725,74.36 C248.701263,74.36 245.274683,71.8032657 243.981219,68.2257556 C242.432011,69.3844477 240.508565,70.07 238.425,70.07 C233.291513,70.07 229.13,65.9084867 229.13,60.775 C229.13,57.3415721 230.991582,54.34294 233.76047,52.7333809 C229.490688,51.8949183 226.27,48.1310752 226.27,43.615 C226.27,42.3479591 226.523517,41.1401304 226.982594,40.039472 C224.108326,40.0390913 221.539476,38.734116 219.835074,36.6847001 C218.12993,38.7348296 215.559885,40.04 212.685,40.04 C209.707578,40.04 207.057127,38.6400669 205.355966,36.4625183 C203.147139,39.4976438 199.566404,41.47 195.525,41.47 C193.287326,41.47 191.190879,40.8653357 189.390139,39.8104862 L189.25096,39.7263645 C188.731272,40.6135269 188.068695,41.4068318 187.294817,42.0746898 C187.533202,43.0252178 187.66,44.0203013 187.66,45.045 C187.66,51.7580211 182.218021,57.2 175.505,57.2 C172.885466,57.2 170.459473,56.3713544 168.474849,54.9618919 C166.415824,57.0741976 163.593078,58.438842 160.452712,58.6114257 C160.105671,61.8377119 157.373724,64.35 154.055,64.35 C150.501048,64.35 147.62,61.4689524 147.62,57.915 C147.62,56.060764 148.404255,54.3897005 149.659157,53.2154178 L149.578246,53.0935247 C148.339601,51.1891255 147.62,48.9160986 147.62,46.475 C147.62,44.0339014 148.339601,41.7608745 149.578246,39.8564753 L149.659157,39.7345822 C148.404255,38.5602995 147.62,36.889236 147.62,35.035 C147.62,31.4810476 150.501048,28.6 154.055,28.6 C154.80931,28.6 155.533306,28.7297857 156.205878,28.9682444 C156.388221,22.4157571 161.757837,17.16 168.355,17.16 C169.960304,17.16 171.492924,17.4711971 172.895824,18.0365549 C173.467272,16.8835787 174.27255,15.8658708 175.249063,15.0453663 C174.950836,14.1358426 174.79,13.164204 174.79,12.155 C174.79,7.02151325 178.951513,2.86 184.085,2.86 C187.435694,2.86 190.372295,4.63294819 192.007859,7.29190268 C191.969284,7.01201423 191.95,6.72575911 191.95,6.435 C191.95,2.88104764 194.831048,0 198.385,0 Z" id="Combined-Shape" fill="url(#linearGradient-15)"></path>
                    <path d="M205.8639,138.424 C216.237037,135.785322 225.63329,130.221033 232.9338,122.3937 C232.9338,122.3937 230.1596,140.2258 207.3654,143.8437 L205.8639,138.424 Z" id="Path" fill="#EB996E" fill-rule="nonzero"></path>
                    <path d="M187.7601,77.6919 C187.3168,77.3058 185.0145,79.3936 181.4824,79.7368 C177.9503,80.08 175.2047,78.5642 174.8615,79.0361 C174.6899,79.2506 175.1904,79.9799 176.3916,80.6806 C178.022203,81.5927468 179.897026,81.9727108 181.7541,81.7674 C183.584511,81.5938737 185.312293,80.842664 186.6876,79.6224 C187.66,78.65 187.9746,77.8635 187.7601,77.6919 Z" id="Path" fill="#263238" fill-rule="nonzero"></path>
                    <path d="M221.4509,73.8452 C220.9361,73.5592 219.0914,76.0474 215.7309,77.077 C212.3704,78.1066 209.3388,77.1771 209.0957,77.7062 C208.967,77.9493 209.5962,78.5642 210.9261,79.0218 C212.70323,79.5862044 214.61157,79.5862044 216.3887,79.0218 C218.151676,78.4864046 219.698989,77.4047873 220.8074,75.933 C221.5653,74.8176 221.694,73.9739 221.4509,73.8452 Z" id="Path" fill="#263238" fill-rule="nonzero"></path>
                    <path d="M202.6893,98.384 C202.6893,98.1838 197.3697,69.4265 197.0122,69.3834368 C196.6547,69.3407 195.2962,77.7634 194.1522,88.1738 C193.8805,90.7478 193.6231,93.1931 193.38,95.524 C193.101662,96.7245183 193.253484,97.984646 193.809,99.0847 C194.231655,99.6417424 194.883303,99.9780767 195.5822,99.9999 C196.097521,100.009387 196.611882,99.9517015 197.1123,99.8283 C200.53,99.1276 202.7179,98.5842 202.6893,98.384 Z" id="Path" fill="#263238" fill-rule="nonzero" opacity="0.284900484" filter="url(#filter-16)"></path>
                    <path d="M209.079274,105.248 C209.079274,105.177736 213.546963,98.4008842 212.680932,93.7712876 C212.331217,91.9017937 210.111915,88.3953186 209.816756,85.8619879 C209.268505,81.1564025 206.896302,74.216165 204.82,71.2651156 C202.895132,68.5292989 197.099449,69.3938455 197.0122,69.3836 C196.6547,69.3407 195.2962,77.7634 194.1522,88.1738 C193.8805,90.7478 193.6231,93.1931 193.38,95.524 C193.101662,96.7245183 193.253484,97.984646 193.809,99.0847 C194.231655,99.6417424 194.883303,99.9780767 195.5822,99.9999 C196.097521,100.009387 196.511782,102.524822 197.0122,102.401421 C200.4299,101.700721 209.107874,105.4482 209.079274,105.248 Z" id="Path" fill="#FFBE9D" fill-rule="nonzero"></path>
                    <path d="M243.43,66.7580729 C243.7732,66.5006729 257.6299,58.3067729 261.0333,73.6935729 C264.4367,89.0803729 248.292,89.3377729 248.1633,88.9087729 C248.0346,88.4797729 243.43,66.7580729 243.43,66.7580729 Z" id="Path" fill="#FFBE9D" fill-rule="nonzero"></path>
                    <path d="M192.3075,98.4126 C192.3075,98.4126 187.946,93.8795 184.0707,98.4126 C180.1954,102.9457 180.6244,113.9138 187.9746,125.0535 C195.3248,136.1932 192.4076,178.0636 192.4076,178.0636 L235.8796,161.8188 L238.8683,175.1464 C244.640931,171.821855 249.61484,167.272608 253.44,161.8188 C259.017,153.3532 250.58,142.5424 248.8354,135.7785 C247.0908,129.0146 231.3894,118.2324 226.7848,111.1539 C222.1802,104.0754 210.7259,89.6324 192.3075,98.4126 Z" id="Path" fill="#FAFAFA" fill-rule="nonzero"></path>
                    <path d="M224.480611,197.34 C224.480611,197.34 213.36738,173.47434 211.820626,169.095919 C210.273873,164.717498 203.709918,150.105336 204.554783,147.243025 C205.399649,144.380714 209.208042,147.243025 209.208042,147.243025 C209.208042,147.243025 201.474274,132.212625 203.839897,129.023567 C204.298159,128.345192 205.040144,127.915205 205.853621,127.856596 C206.667097,127.797987 207.462468,128.11721 208.012233,128.722959 C208.012233,128.722959 203.177003,120.070677 207.271351,117.469764 C209.390013,116.162773 212.977442,121.390738 212.977442,121.390738 C212.977442,121.390738 216.369902,117.626603 219.476407,122.370981 C222.582913,127.11536 235.385874,148.301688 235.385874,148.301688 C235.385874,148.301688 234.631994,138.263995 236.438707,132.212625 C237.660512,128.134813 243.561573,125.821438 243.912517,138.211715 C244.14648,146.236642 253.44,183.956409 253.44,183.956409 L224.480611,197.34 Z" id="Path" fill="#FFBE9D" fill-rule="nonzero"></path>
                    <path d="M191.5067,121.9218 C190.641011,120.380723 188.830728,119.635312 187.1309,120.12 C183.2842,121.1782 176.8063,123.1516 175.0331,124.7532 C172.4591,127.0698 166.8964,133.2045 166.9107,137.3372 C166.9107,138.5956 165.638,140.8836 165.1947,143.0572 C164.951953,144.476898 164.951953,145.927502 165.1947,147.3472 C165.921472,149.371266 167.157667,151.173846 168.784,152.581 C170.4285,154.011 176.7491,169.0403 176.7491,169.0403 L180.4385,184.1125 L197.1409,189.9755 L210.8975,194.6802 L203.7475,174.2026 L192.4934,178.1494 L193.6374,151.9518 L196.9264,145.7456 L196.0255,141.8131 L193.3228,140.9694 C194.670413,139.815733 194.872011,137.806054 193.7804,136.4077 L191.4352,134.42 C194.2952,133.3475 195.5679,131.4456 194.0521,128.1995 C192.86447,127.26754 191.322063,126.916039 189.8479,127.2414 C191.285538,125.875605 191.913231,123.862658 191.5067,121.9218 Z" id="Path" fill="#FFBE9D" fill-rule="nonzero"></path>
                    <path d="M195.2962,115.4725 C194.547881,115.653988 193.76296,115.614245 193.0368,115.3581 C191.22696,114.903924 189.5999,113.905728 188.375,112.4981 C187.153256,111.094288 186.398605,109.345097 186.2157,107.4931 C186.055875,106.741585 186.125626,105.959379 186.4159,105.248 C186.5303,105.248 186.4159,106.106 186.7305,107.4216 C187.05388,109.11964 187.818297,110.702723 188.947,112.0119 C190.102735,113.323478 191.581799,114.309521 193.237,114.8719 C193.934388,115.0323 194.621932,115.232834 195.2962,115.4725 L195.2962,115.4725 Z" id="Path" fill="#2B2B2B" fill-rule="nonzero" opacity="0.26860119" filter="url(#filter-17)"></path>
                    <path d="M219.6777,107.7934 C220.021793,108.134495 220.319848,108.519083 220.5643,108.9374 C221.0934,109.6953 221.8084,110.825 222.6235,112.2693 C224.762952,116.018354 226.525695,119.970155 227.8859,124.0668 C229.247547,128.162987 230.205437,132.382492 230.7459,136.6651 C230.9461,138.3096 231.0605,139.6395 231.0891,140.569 C231.148918,141.04379 231.148918,141.52421 231.0891,141.999 C230.9604,141.999 230.7745,139.9684 230.2454,136.7223 C229.544858,132.50317 228.521792,128.343976 227.1852,124.2813 C225.811123,120.232809 224.133252,116.293874 222.1659,112.4981 C220.6501,109.5952 219.5776,107.8649 219.6777,107.7934 Z" id="Path" fill="#2B2B2B" fill-rule="nonzero" opacity="0.26860119" filter="url(#filter-18)"></path>
                    <path d="M198.1419,120.2058 C197.365262,120.381939 196.559038,120.381939 195.7824,120.2058 C191.9726,119.632594 188.522581,117.634139 186.1299,114.6145 C185.587711,114.034671 185.182167,113.340847 184.943,112.5839 C186.638947,114.561391 188.614036,116.281164 190.806,117.689 C193.114135,118.884337 195.586079,119.732411 198.1419,120.2058 L198.1419,120.2058 Z" id="Path" fill="#2B2B2B" fill-rule="nonzero" opacity="0.26860119" filter="url(#filter-19)"></path>
                    <path d="M237.9102,468.9399 L286.9449,491.1764 C286.9449,491.1764 300.5156,496.1814 304.1049,495.3663 C308.0946,494.4511 314.5868,491.9915 312.5705,479.8937 C310.5542,467.7959 287.3024,453.0812 287.3024,453.0812 L237.9102,468.9399 Z" id="Path" fill="#FFBE9D" fill-rule="nonzero"></path>
                    <path d="M231.4609,431.1879 L161.1621,454.0679 C156.9579,455.4979 151.9815,459.9166 153.4687,465.5079 L180.9247,544.5869 C180.9247,544.5869 189.3903,547.2896 187.8173,495.9669 L247.3911,476.3473 L231.4609,431.1879 Z" id="Path" fill="#FFBE9D" fill-rule="nonzero"></path>
                    <path d="M393.2511,373.3444 C383.141,364.7644 381.1247,363.2343 361.405,361.7185 C341.6853,360.2027 309.21,364.4498 309.21,364.4498 C309.21,364.4498 247.72,383.4545 218.3335,379.9224 C188.947,376.3903 162.1488,359.9024 162.1488,359.9024 C162.1488,359.9024 92.4363,358.1149 82.841,360.646 C73.2457,363.1771 55.0275,369.7551 51.4954,380.8662 C47.9633,391.9773 45.4179,405.1762 55.528,417.7745 C65.6381,430.3728 116.5747,453.6818 116.5747,453.6818 L164.494,452.9382 L196.3973,442.9282 L217.3468,487.4155 C217.3468,487.4155 365.4519,440.5544 372.0156,440.0539 C378.5793,439.5534 407.88,421.85 407.88,412.7838 C407.88,403.7176 403.3612,381.9387 393.2511,373.3444 Z" id="Path" fill="url(#linearGradient-20)" fill-rule="nonzero"></path>
                    <path d="M434.2206,426.3259 C432.99511,397.932649 427.528897,382.642976 422.815294,366.8093 C414.590731,339.181804 403.664018,323.732857 400.000793,318.39313 C383.569929,294.442558 365.682272,278.63713 361.984871,272.415 C356.342331,262.919513 351.048708,247.685246 346.104,226.7122 L340.384,171.9575 L336.5087,150.8078 C334.665094,141.030083 327.566494,133.073048 318.0617,130.13 L277.9502,117.7033 C277.9502,117.7033 278.7653,127.6275 275.4191,149.3206 C272.0729,171.0137 273.2741,206.3919 273.2741,206.3919 C273.2741,206.3919 300.2153,259.974 300.1724,287.1011 C300.1724,323.9951 307.8372,340.6832 316.6317,349.5778 C323.4242,356.4275 330.8459,358.6583 335.8509,361.9044 C347.2909,369.3976 400.3725,354.64 414.8298,386.1 C423.508775,405.122774 427.434764,425.969777 426.2698,446.8464 C432.387327,452.0949 435.037593,445.254734 434.2206,426.3259 Z" id="Path" fill="url(#linearGradient-21)" fill-rule="nonzero"></path>
                    <path d="M171.4295,93.3075 C171.4295,93.3075 166.8678,105.5769 167.2825,116.0588 C167.4684,121.0066 164.5655,125.1393 161.7627,128.8287 C158.3879,133.2903 152.7394,139.4393 146.8907,149.5065 C144.9602,152.8384 144.9316,157.4144 143.187,161.9475 C140.443891,169.079584 156.200025,197.107891 151.764485,221.852047 C144.638652,261.604309 117.923158,304.217059 122.9382,323.2372 C131.0749,354.0966 118.877,361.8472 118.877,361.8472 C118.877,361.8472 94.0808,364.7072 76.3774,363.2772 C58.674,361.8472 13.7434,367.2669 9.4248,399.1702 C5.1062,431.0735 28.1721,453.5102 28.1721,453.5102 L23.7105,453.5102 C23.7105,453.5102 -3.1592,427.1267 0.3729,406.3202 C1.86331033,397.540657 3.3597078,380.805529 14.9501066,366.795 C30.8276117,347.602197 58.589377,330.551004 66.6683415,318.89 C70.7421655,313.00993 73.2833683,289.26516 82.9587566,265.529264 C94.3726589,237.528403 113.14746,208.555853 118.877,194.6802 C125.934588,177.588314 131.187454,159.713314 134.6356,141.0552 C143.87239,134.995515 150.345524,129.518615 154.055,124.6245 C157.764476,119.730385 161.63501,111.560318 165.6666,100.1143 L171.4295,93.3075 Z" id="Path" fill="url(#linearGradient-22)" fill-rule="nonzero"></path>
                    <g id="Group" opacity="0.3" transform="translate(96.140000, 225.940000)" fill="#000000" fill-rule="nonzero">
                        <path d="M51.9948,0.9009 C38.0246222,6.10582803 25.9050854,15.3248352 17.16,27.3988 C8.47320332,39.4840681 2.87191003,53.5093923 0.8437,68.2539 C0.4862,70.7278 0.715,73.9739 3.1031,74.7175 C4.704525,75.0143023 6.3150126,74.2465788 7.0928,72.8156 C7.80802069,71.4026944 8.23574826,69.861903 8.3512,68.2825 C12.6049779,40.601057 28.7680462,16.1709425 52.5811,1.43" id="Path" opacity="0.601492746" filter="url(#filter-23)"></path>
                    </g>
                    <g id="Group" opacity="0.3" transform="translate(274.890000, 207.350000)" fill="#000000" fill-rule="nonzero">
                        <path d="M55.8415,76.3334 C55.9845,80.1801 57.0856,83.8695 57.6719,87.6733 C58.2582,91.4771 60.5319,95.6384 64.3214,96.096 C67.5246,96.4821 70.5276,93.9081 71.6144,90.8622 C72.4938842,87.7329004 72.5235005,84.4257484 71.7002,81.2812 C69.0261,67.5389 62.5339,54.8834 55.8129,42.6712 C49.8927,31.8747 43.6007,21.021 34.5059,12.7413 C25.4111,4.4616 12.9701,-1.0153 0.8294,1.0153 C0.8294,1.0153 18.9332,1.573 30.3732,12.8128 C41.8132,24.0526 55.5984,69.9556 55.8415,76.3334 Z" id="Path" opacity="0.598330543" filter="url(#filter-24)"></path>
                    </g>
                    <g id="Group" opacity="0.3" transform="translate(274.890000, 116.930000)" fill="#000000" fill-rule="nonzero">
                        <path d="M2.3595,88.99 C12.1407,60.0754 20.9495,26.07 14.6289,0.1727 C25.6685,12.7996 28.0566,32.5622 23.9096,48.2064 C19.7626,63.8506 9.6096,77.8503 0.8294,91.4353" id="Path" opacity="0.598330543" filter="url(#filter-25)"></path>
                    </g>
                    <g id="Group" opacity="0.3" transform="translate(328.900000, 293.150000)" fill="#000000" fill-rule="nonzero">
                        <path d="M62.964,48.8059 C60.7143817,47.0111721 58.0899241,45.7453722 55.2849,45.1022 C52.2156339,44.4320575 49.2071234,43.5089374 46.2902,42.3423 C43.3502692,41.1375261 41.0657062,38.7332707 40.0125,35.7357 C39.2832,33.1474 39.941,30.4018 40.37,27.742 C41.7674615,19.1586716 40.8746236,10.3585456 37.7817,2.2308 C37.6498372,1.70946374 37.3352293,1.25277484 36.8951,0.9438 C36.1687537,0.638904709 35.3286908,0.912838258 34.9217,1.5873 C34.5350799,2.24506014 34.3096666,2.98500368 34.2639,3.7466 C32.934,13.2275 29.9739,22.7084 24.068,30.2588 C18.1621,37.8092 10.1398,44.0869 0.5588,43.9296 L0.0297,45.4883 C4.853255,48.2353368 10.3088638,49.6793236 15.8598,49.6782 C21.3653,49.8784 26.8851,49.3207 32.3906,49.3207 C43.9970487,49.324204 55.4739571,51.7598807 66.0814,56.4707 C66.4242829,53.550383 65.2478543,50.6578798 62.964,48.8059 Z" id="Path" opacity="0.598330543" filter="url(#filter-26)"></path>
                    </g>
                </g>
            </g>
        </g>
    </g>
</svg>