<?xml version="1.0" encoding="UTF-8"?>
<svg width="536px" height="543px" viewBox="0 0 536 543" version="1.1" xmlns="http://www.w3.org/2000/svg" xmlns:xlink="http://www.w3.org/1999/xlink">
    <!-- Generator: Sketch 64 (93537) - https://sketch.com -->
    <title>old man winning corona</title>
    <desc>Created with Sketch.</desc>
    <defs>
        <linearGradient x1="104.725573%" y1="78.88049%" x2="-17.4821331%" y2="19.6830124%" id="linearGradient-1">
            <stop stop-color="#DBE2E4" offset="0%"></stop>
            <stop stop-color="#F4F4F4" offset="100%"></stop>
        </linearGradient>
        <filter x="-41.7%" y="-93.8%" width="183.3%" height="287.5%" filterUnits="objectBoundingBox" id="filter-2">
            <feGaussianBlur stdDeviation="5.85" in="SourceGraphic"></feGaussianBlur>
        </filter>
        <linearGradient x1="85.4958444%" y1="58.7104168%" x2="-8.13506733%" y2="27.7663371%" id="linearGradient-3">
            <stop stop-color="#DBE2E4" offset="0%"></stop>
            <stop stop-color="#F4F4F4" offset="100%"></stop>
        </linearGradient>
        <filter x="-122.1%" y="-43.5%" width="344.2%" height="186.9%" filterUnits="objectBoundingBox" id="filter-4">
            <feGaussianBlur stdDeviation="4.68" in="SourceGraphic"></feGaussianBlur>
        </filter>
        <linearGradient x1="85.4958444%" y1="64.4375751%" x2="-8.13506733%" y2="13.1475528%" id="linearGradient-5">
            <stop stop-color="#DBE2E4" offset="0%"></stop>
            <stop stop-color="#F4F4F4" offset="100%"></stop>
        </linearGradient>
        <linearGradient x1="83.8972739%" y1="-29.6376174%" x2="22.8496665%" y2="95.1087178%" id="linearGradient-6">
            <stop stop-color="#1E9DD7" offset="0%"></stop>
            <stop stop-color="#075D98" offset="100%"></stop>
        </linearGradient>
        <filter x="-11.9%" y="-20.2%" width="123.8%" height="140.4%" filterUnits="objectBoundingBox" id="filter-7">
            <feGaussianBlur stdDeviation="6.5" in="SourceGraphic"></feGaussianBlur>
        </filter>
        <filter x="-20.0%" y="-14.9%" width="140.0%" height="129.7%" filterUnits="objectBoundingBox" id="filter-8">
            <feGaussianBlur stdDeviation="6.5" in="SourceGraphic"></feGaussianBlur>
        </filter>
        <linearGradient x1="83.8956239%" y1="-29.6376174%" x2="22.8509881%" y2="95.1087178%" id="linearGradient-9">
            <stop stop-color="#1E9DD7" offset="0%"></stop>
            <stop stop-color="#075D98" offset="100%"></stop>
        </linearGradient>
        <linearGradient x1="85.4958444%" y1="66.1799255%" x2="24.3630513%" y2="20.7679795%" id="linearGradient-10">
            <stop stop-color="#F4F4F4" offset="0%"></stop>
            <stop stop-color="#DBE2E4" offset="100%"></stop>
        </linearGradient>
        <linearGradient x1="50%" y1="0%" x2="50%" y2="100%" id="linearGradient-11">
            <stop stop-color="#B4EC51" offset="0%"></stop>
            <stop stop-color="#429321" offset="100%"></stop>
        </linearGradient>
    </defs>
    <g id="Page-1" stroke="none" stroke-width="1" fill="none" fill-rule="evenodd">
        <g id="Covid-illustrations" transform="translate(-767.000000, -784.000000)">
            <g id="old-man-winning-corona" transform="translate(1034.500000, 1055.500000) scale(-1, 1) translate(-1034.500000, -1055.500000) translate(766.000000, 784.000000)">
                <g id="background-simple--inject-177" transform="translate(10.400000, 46.500000)" fill="url(#linearGradient-1)" fill-rule="nonzero">
                    <path d="M502.879,71.8 L499.733,66.665 C473.2,23.427 425.1,-2.651 374.4,0.508 C367.876269,0.90722398 361.389797,1.77614188 354.991,3.108 C308.906,12.845 268.801,47.308 252.174,91.339 C242.398,117.261 239.668,147.109 221.117,167.688 C196.937,194.507 156,195.3 119.899,194.234 C83.798,193.168 42.9,194.078 18.811,220.962 C3.77,237.797 -1.014,261.743 0.195,284.285 C3.406,343.981 45.539,397.385 99.112,423.905 C152.685,450.425 215.8,452.804 274.404,441.143 C356.538,424.789 434.655,379.9 481.611,310.532 C528.567,241.164 540.449,146.693 502.879,71.8 Z" id="Path"></path>
                </g>
                <g id="Character--inject-177" transform="translate(128.700000, 0.000000)">
                    <path d="M85.007,221.793 C65.6023333,197.616591 54.496,179.54585 51.688,167.580774 C48.88,155.615699 52.975,118.570774 63.973,56.446 L64.948,56.446 C69.953,56.368 79.703,44.900782 81.549,41.000782 C83.395,37.100782 82.355,14.9848525 81.549,15.1668525 C73.515,17.4938525 74.477,19.305 74.477,19.305 L73.528,11.505 C71.149,0.117 62.868,5.239 62.868,5.239 C59.15,-1.95 51.688,3.731 51.688,3.731 C49.621,-2.366 43.888,2.99 43.888,2.99 C43.888,2.99 45.430175,3.341 39.242175,0.91 C35.849175,-0.39 32.8458299,3.198 30.4018299,7.67 C28.1886673,11.7805478 25.8455046,18.9968845 26.1209112,23.6572325 L33.9460362,53.2544582 C7.33257407,111.771951 -3.39218851,154.585298 1.77174847,181.6945 C6.93568544,208.803702 29.0041026,246.219869 67.977,293.943 L110.433168,250.772639 L85.007,221.793 Z" id="Path" fill="#FFBE9D" fill-rule="nonzero"></path>
                    <g id="Group-10" transform="translate(106.600000, 100.100000)">
                        <path d="M15.4179076,65.1105385 C17.3258002,40.8023592 37.5776423,22.0319866 61.9605076,21.9726385 L64.3824076,21.9726385 C90.5085076,23.4468385 103.846508,46.4607385 101.646908,72.5283385 L96.9669076,193.038339 L37.0863076,193.038339 L37.6245076,153.843339 C37.6245076,153.843339 12.5046076,149.982339 12.1419076,124.885839 C12.0672238,119.702783 14.3963034,78.0956659 15.4179076,65.1105385 Z" id="Path" fill="#FFBE9D" fill-rule="nonzero"></path>
                        <path d="M35.4483076,152.616656 C50.3877373,152.590446 65.0055446,148.66737 77.5683076,141.312639 C77.5683076,141.312639 67.7053325,162.379837 35.5982008,159.81632 L35.4483076,152.616656 Z" id="Path" fill="#000000" fill-rule="nonzero" opacity="0.441685268" filter="url(#filter-2)"></path>
                        <path d="M92.4392171,100.291124 C91.1386048,108.321675 87.1096604,112.715834 80.3523839,113.473601 C70.2164692,114.610253 50.252827,113.473601 46.5217346,113.473601 C42.7906422,113.473601 32.9871258,113.473601 29.5780189,113.473601 C26.168912,113.473601 12.7618789,110.978563 12.7618789,108.4857 C12.7618789,105.992837 10.0387291,118.64599 10.0387291,125.870851 C10.0387291,133.095711 9.75548022,147.517769 29.5780189,153.775204 C37.7329998,156.349509 43.2588602,156.383972 50.2259794,155.700068 C60.1940304,154.721588 71.0200469,150.914997 78.922895,139.426147 C92.349399,119.907223 94.3546293,126.253404 96.9667988,115.783239 C98.7082452,108.803128 99.073696,103.63909 98.0631514,100.291124 L92.4392171,100.291124 Z" id="Path-17" fill="url(#linearGradient-3)"></path>
                        <path d="M52.4084557,118.767101 C54.0461175,121.117247 53.4276356,123.879351 50.55301,127.053412 C47.6783843,130.227473 44.2270186,131.622224 40.1989128,131.237664 C34.9629325,129.752504 32.3976692,126.132228 32.5031229,120.376836 C32.4791926,118.758067 34.143244,118.085598 37.4952769,118.359429 C40.8473098,118.633259 45.8183694,118.76915 52.4084557,118.767101 Z" id="Path-9" fill="#6E3714"></path>
                        <path d="M52.3719389,118.342605 C41.6163345,118.227063 35.4338292,118.346528 33.824423,118.700999 C33.1494585,118.84966 32.5573901,119.270475 32.5071655,119.450536 C32.1623747,120.686651 44.3333982,127.46027 53.3,120.172993 C53.0974252,119.629446 52.9400738,119.247099 52.8279459,119.025952 C52.733838,118.840346 52.5818357,118.612564 52.3719389,118.342605 Z" id="Path-8" fill="#FFFFFF"></path>
                        <ellipse id="Oval" fill="#263238" cx="61.1883076" cy="80.4726385" rx="2.34" ry="4.68"></ellipse>
                        <ellipse id="Oval-Copy-6" fill="#263238" cx="30.7683076" cy="79.3026385" rx="2.34" ry="4.68"></ellipse>
                        <path d="M44.8083076,106.657239 C44.8083076,106.584263 42.526879,102.813002 42.8430359,97.788689 C43.4392714,88.3134122 46.7877016,74.6167337 46.5048076,74.5173385 C46.0719076,74.3652385 42.4566076,82.8945385 38.4318076,93.5766385 C37.4724076,96.2091385 36.5364076,98.7246385 35.6589076,101.134839 C35.0468717,102.324035 34.8689457,103.689513 35.1558076,104.995839 C35.4464855,105.701014 36.0468017,106.232229 36.7821076,106.434939 C37.3287694,106.57794 37.8902887,106.656475 38.4552076,106.668939 C42.3747076,106.867839 44.8083076,106.879539 44.8083076,106.657239 Z" id="Path" fill="#263238" fill-rule="nonzero" opacity="0.510695685" filter="url(#filter-4)"></path>
                        <path d="M47.5929076,110.97246 C47.5929076,110.899485 59.7385833,108.461195 60.0547402,103.436882 C60.3918844,98.0790418 58.0160069,84.1316782 54.4785295,75.7926385 C51.7600205,69.3841865 47.7158378,67.6016283 47.5929076,67.5584366 C47.1600076,67.4063366 42.4566076,82.8945385 38.4318076,93.5766385 C37.4724076,96.2091385 36.5364076,98.7246385 35.6589076,101.134839 C35.0468717,102.324035 34.8689457,103.689513 35.1558076,104.995839 C35.4464855,105.701014 36.0468017,106.232229 36.7821076,106.434939 C37.3287694,106.57794 37.8902887,106.656475 38.4552076,106.668939 C42.3747076,106.867839 47.5929076,111.19476 47.5929076,110.97246 Z" id="Path" fill="#FFBE9D" fill-rule="nonzero"></path>
                        <path d="M39.1689076,59.5296385 C40.1828997,59.5758193 41.1899688,59.7208059 42.1758076,59.9625385 C44.0127076,60.2901385 46.5516076,60.7698385 49.3713076,61.1325385 C51.7738668,61.422337 54.1969319,61.5045412 56.6136076,61.3782385 C58.4622076,61.2612385 59.6088076,61.0623385 59.6322076,61.1559385 C58.6768502,61.5230356 57.670445,61.7401033 56.6487076,61.7994385 C54.2078453,62.0852411 51.7419699,62.0852411 49.3011076,61.7994385 C46.8706455,61.5027635 44.4600588,61.0612784 42.0822076,60.4773385 C41.0794464,60.2686498 40.1025322,59.9508584 39.1689076,59.5296385 Z" id="Path" fill="#EB996E" fill-rule="nonzero"></path>
                        <path d="M39.6018076,54.3699385 C39.6837076,54.1944385 42.9831076,55.9728385 47.3940076,57.1311385 C51.8049076,58.2894385 55.5840076,58.4181385 55.5840076,58.6170385 C54.7761271,58.7557358 53.9522963,58.7754447 53.1387076,58.6755385 C49.1823619,58.4195744 45.3146446,57.3900381 41.7546076,55.6452385 C40.972904,55.3390673 40.2459049,54.9083993 39.6018076,54.3699385 L39.6018076,54.3699385 Z" id="Path" fill="#EB996E" fill-rule="nonzero"></path>
                        <path d="M99.5034024,100.291124 L92.4392171,100.291124 C92.4392171,88.7518312 92.4392171,82.9821849 92.4392171,82.9821849 C92.4392171,82.9821849 90.46486,57.3678495 79.278113,55.246718 C68.0913659,53.1255865 55.4088539,40.2206702 48.5878666,40.2206702 C44.8490157,40.2206702 30.1952069,48.6764076 20.0087683,45.9548193 C5.98948198,42.2091799 -0.908474173,31.3006512 0.0959514356,22.698025 C2.31881685,3.65980054 13.6045153,2.09163409 24.193973,2.09163409 C28.4991289,2.09163409 38.9096316,9.7511137 48.5878666,8.90461325 C62.7153337,7.66896365 61.1883076,-3.636292 76.5769178,1.19383471 C85.6301388,4.03543013 85.5414938,10.3177845 90.0308969,10.3177845 C94.5203,10.3177845 102.857166,10.5712222 105.800295,15.0253963 C107.762381,17.9948456 108.743424,21.0406059 108.743424,24.1626769 C117.798503,24.9313535 122.717391,29.659839 123.500088,38.3481334 C124.674134,51.380575 120.15102,56.5480198 120.15102,58.7381678 C120.15102,60.9283158 117.400324,76.6818385 114.633791,78.5772385 C112.789436,79.8408385 110.82598,87.0788003 108.743424,100.291124 L99.5034024,100.291124 Z" id="Path-15" fill="url(#linearGradient-5)"></path>
                        <path d="M97.8912076,91.1313385 C98.3241076,90.9441385 115.137008,85.9950385 114.622208,103.158939 C114.107408,120.322839 96.9786076,116.274639 96.9667988,115.783239 C96.9552076,115.291839 97.8912076,91.1313385 97.8912076,91.1313385 Z" id="Path" fill="#FFBE9D" fill-rule="nonzero"></path>
                    </g>
                    <path d="M55.9,43.68 C56.7595917,42.1074191 57.916327,40.7166878 59.306,39.585 C62.4952141,36.6425963 66.2631258,34.3977888 70.369,32.994 C72.0090127,32.4284032 73.6912823,31.9937082 75.4,31.694 L74.945,32.253 C74.945,28.535 74.451,25.35 74.347,23.01 C74.2031598,21.7831688 74.2558207,20.5412508 74.503,19.331 C74.7915789,20.5210847 74.9699983,21.7352068 75.036,22.958 C75.5445306,26.0262716 75.8787333,29.1209018 76.037,32.227 L76.037,32.695 L75.569,32.773 C73.9231708,33.0876942 72.3025257,33.5221835 70.72,34.073 C66.7395543,35.4365723 63.0396065,37.5111858 59.8,40.196 C57.317,42.237 56.017,43.797 55.9,43.68 Z" id="Path" fill="#EB996E" fill-rule="nonzero"></path>
                    <path d="M83.655,211.211 C98.4012093,229.086329 110.09626,242.273542 118.740153,250.772639 C127.384046,259.271735 135.798763,265.857428 143.984306,270.529715 L143.984306,270.529715 L143.77043,286.436023 L143.763805,286.444091 C149.432211,290.962883 157.350048,292.256257 164.437,289.146 L205.231,271.219 C221.234933,274.644975 233.0866,278.482142 240.786,282.7305 C248.4854,286.978858 256.133734,293.901358 263.731,303.498 L269.24548,385.442647 C269.24548,385.442647 253.240083,413.01921 234.209824,482.014 C230.803962,494.362057 229.36902,514.412391 229.905,542.165 L64.064,541.918 C64.064,509.158 76.635,435.318 76.635,435.318 C77.5332407,428.725408 89.4119733,373.258656 97.9891196,333.529829 C84.5229011,322.906962 74.001353,312.530617 66.4228637,302.402662 C57.7802599,290.852615 46.4215516,274.215366 32.3467388,252.490912 L32.3467388,252.490912 Z" id="Combined-Shape" fill="url(#linearGradient-6)" fill-rule="nonzero"></path>
                    <g id="Group" opacity="0.3" transform="translate(79.300000, 425.100000)" fill="#000000" fill-rule="nonzero">
                        <path d="M35.932,57.07 C43.94,68.64 48.997,76.83 60.632,80.678 C82.875,88.062 90.038,83.993 100.841,78.286 C109.772,73.58 115.778,63.128 121.732,54.964 C137.267,33.709 144.547,21.268 158.366,0.208 L164.086,4.225 C154.622,31.824 162.227,17.225 147.615,42.523 C139.1,57.109 129.649,71.5 116.532,82.056 C103.415,92.612 86.086,99.086 69.563,95.797 C54.548,92.807 42.133,82.394 31.577,71.305 C16.9,55.9 1.079,23.686 0,2.431 C0,3.9 25.571,42.107 35.932,57.07 Z" id="Path" filter="url(#filter-7)"></path>
                    </g>
                    <path d="M64.064,539.773 C64.0325965,539.448759 64.0325965,539.122241 64.064,538.798 C64.064,538.096 64.181,537.173 64.272,536.029 C64.48,533.546 64.792,530.101 65.156,525.85 C65.988,517.205 67.106,505.375 68.354,492.31 C69.602,479.245 70.863,467.428 71.747,458.783 C72.202,454.558 72.579,451.1 72.839,448.63 C72.982,447.486 73.099,446.576 73.177,445.874 C73.2020126,445.552882 73.2586197,445.235012 73.346,444.925 C73.3690232,445.245253 73.3690232,445.566747 73.346,445.887 C73.346,446.589 73.216,447.512 73.138,448.656 C72.917,451.139 72.618,454.597 72.241,458.835 C71.422,467.48 70.291,479.31 69.056,492.375 C67.821,505.44 66.534,517.257 65.663,525.902 C65.208,530.127 64.831,533.585 64.558,536.055 C64.415,537.199 64.311,538.109 64.22,538.811 C64.1992543,539.135959 64.1470092,539.458137 64.064,539.773 L64.064,539.773 Z" id="Path" fill="#263238" fill-rule="nonzero"></path>
                    <path d="M38.077,294.073 C38.077,294.073 48.1072019,291.579168 55.2305,294.073 C59.2201697,295.469764 61.5306642,300.832295 65.2170014,304.395 C69.8563121,308.878718 72.2015828,311.755695 73.3632674,314.288 C76.8500666,321.888721 73.3632674,328.561756 73.3632674,328.561756 C73.2438454,328.851314 66.5275404,333.789461 65.2170014,337.896 C63.2265953,344.132884 68.6059357,351.234566 70.6782218,359.18532 C76.1987919,380.366127 91.0643542,402.203828 98.483596,411.32225 C116.702822,433.714106 130.75056,443.819702 138.45,444.925 C170.599,449.540169 181.759095,385.386523 189.264329,371.614418 C212.001329,329.871418 212.421059,365.365 237.030059,364.65 L250.384467,421.486593 C244.599467,435.604593 195.972308,489.27519 184.168308,500.22119 C172.364308,511.16719 153.368041,518.16546 128.720041,509.32546 C117.855049,505.386013 86.5970494,473.904403 63.4170897,434.507027 C53.372779,417.435406 41.6741878,392.32817 28.321316,359.18532 C15.1737663,336.639155 9.43204349,322.752382 11.0961475,317.525 C16.3596763,300.990891 37.5424833,294.411167 38.077,294.073 Z" id="Path" fill="#FFBE9D" fill-rule="nonzero"></path>
                    <path d="M248.261038,301.125661 C248.261038,301.125661 269.680712,310.586128 264.346817,350.930626 C263.909507,354.283165 261.044633,374.304779 259.462736,377.320088 C251.437867,392.582444 231.742782,429.454514 231.37037,430.288269 C230.997959,431.122025 167.7,387.234067 167.7,387.234067 C167.7,387.234067 204.616802,282.956741 248.261038,301.125661 Z" id="Path" fill="#000000" fill-rule="nonzero" opacity="0.190848214" filter="url(#filter-8)"></path>
                    <path d="M258.427,300.3 C258.427,300.3 281.606,310.920617 275.834,356.212617 C275.360771,359.976283 272.260587,382.453176 270.54876,385.838257 C261.86476,402.972257 240.552,444.366 240.149,445.302 C239.746,446.238 171.249,396.968 171.249,396.968 C171.249,396.968 211.198,279.903 258.427,300.3 Z" id="Path" fill="url(#linearGradient-9)" fill-rule="nonzero"></path>
                </g>
                <g id="speech-bubble--inject-177" transform="translate(0.000000, 85.500000)" fill-rule="nonzero">
                    <path d="M94.965,122.5 C107.190788,116.180062 117.072087,106.11198 123.162,93.77 L151.268,85.463 L129.441,72.619 C132.924343,43.0853834 115.83935,14.9769727 88.018749,4.47067325 C60.1981477,-6.03562625 28.7979181,3.76260276 11.8894674,28.2263 C-5.0189832,52.6899973 -3.0864841,85.5266408 16.5747761,107.838141 C36.2360363,130.149641 68.5688126,136.197061 94.965,122.5 Z" id="Path" fill="url(#linearGradient-10)"></path>
                    <path d="M30.68,59.268 L30.069,62.297 C30.069,62.297 36.946,63.948 39.715,65.664 C39.4071005,69.3133592 39.8767693,72.9865235 41.093,76.441 C39.4961454,78.0874937 37.686071,79.512818 35.711,80.679 L37.219,83.383 C39.0965771,82.2861907 41.1510038,81.525129 43.29,81.134 C43.886805,82.1524064 44.5512987,83.129603 45.279,84.059 C46.7352915,85.8707618 48.4272812,87.4796822 50.31,88.843 C49.3781104,91.9634281 48.0684042,94.9582896 46.41,97.761 L48.906,99.594 C48.906,99.594 53.586,93.666 56.264,92.08 C59.7237116,93.4172513 63.4285807,94.0022306 67.132,93.796 C67.9725046,95.7810363 68.5578421,97.864663 68.874,99.997 L71.942,99.607 C71.628281,97.4129718 71.7119476,95.1803938 72.189,93.016 C74.9661413,92.2943756 77.6026735,91.1123303 79.989,89.519 C81.627,90.637 85.878,93.627 87.62,95.889 L90.077,94.004 C90.077,94.004 85.995,88.297 85.007,85.177 C86.5569837,83.4438122 87.8685756,81.5114 88.907,79.431 C91.0384904,79.7017164 93.1267022,80.2434282 95.121,81.043 L96.33,78.209 C94.2594112,77.3700302 92.3603092,76.1583062 90.727,74.634 C91.4852158,71.8455089 91.7751587,68.9504725 91.585,66.067 C92.794,65.482 98.254,62.869 101.387,62.453 L100.997,59.385 C100.997,59.385 92.885,60.139 90.142,59.138 C89.3940796,57.0119825 88.3714131,54.9928718 87.1,53.132 C88.4457738,51.2548812 90.0422726,49.570903 91.845,48.127 L89.999,45.696 C89.999,45.696 86.281,48.569 83.564,48.985 C81.7079083,47.2127413 79.6009791,45.7234358 77.311,44.565 C77.311,44.565 77.675,37.376 78.988,34.165 L76.167,33.021 C76.167,33.021 72.748,40.626 70.551,42.316 C68.5853805,41.9414718 66.5833495,41.7931732 64.584,41.874 C63.6135669,39.7318214 62.9442194,37.4656645 62.595,35.14 L59.566,35.517 C59.566,35.517 60.216,40.132 59.137,42.654 C56.5409724,43.3235717 54.0635856,44.3890672 51.792,45.813 C51.012,45.293 45.604,41.614 43.602,39.04 L41.184,40.899 C41.184,40.899 45.955,47.568 46.384,50.363 C44.0875942,52.8858936 42.3195171,55.8430025 41.184,59.06 C40.001,59.151 33.8,59.892 30.68,59.268 Z" id="Shape" fill="url(#linearGradient-11)"></path>
                    <g id="Group" opacity="0.2" transform="translate(46.500000, 43.200000)" fill="#FFFFFF">
                        <path d="M0.911,17.329 C2.211,17.862 4.044,16.029 7.047,14.066 C7.398,13.806 7.827,13.585 8.217,13.325 L9.517,12.584 C10.4507367,12.0996151 11.4097808,11.6656585 12.39,11.284 C14.5374749,10.4364085 16.8062083,9.93614623 19.111,9.802 C21.4188387,9.7255799 23.723788,10.0241257 25.936,10.686 C26.9412415,10.9713305 27.9306327,11.3098064 28.9,11.7 C29.355,11.921 29.823,12.103 30.2,12.324 C30.577,12.545 31.058,12.727 31.435,12.961 C34.594,14.638 36.635,16.302 37.831,15.665 C38.1378052,15.4641898 38.3455372,15.1431494 38.403,14.781 C38.5195271,14.2324535 38.5195271,13.6655465 38.403,13.117 C37.9780375,11.2385738 37.1137292,9.48768132 35.881,8.008 C35.4741575,7.50377924 35.0401828,7.02206731 34.581,6.565 C34.113,6.084 33.593,5.629 33.047,5.161 C30.4865976,3.08727314 27.4846107,1.62852989 24.272,0.897 C22.4177812,0.477554658 20.5166174,0.302734999 18.617,0.377 C16.7227393,0.478989516 14.8489283,0.819682421 13.04,1.391 C11.3825762,1.92064025 9.79742152,2.65426556 8.321,3.575 C6.99821883,4.38082286 5.77249948,5.3360988 4.668,6.422 C4.161,6.942 3.68,7.436 3.264,7.956 C2.86174317,8.44962223 2.48844989,8.96615595 2.146,9.503 C1.04061209,11.0791162 0.331573177,12.8985368 0.079,14.807 C0.00383492858,15.368149 0.0436425352,15.9387247 0.196,16.484 C0.296522654,16.858132 0.558666685,17.1679386 0.911,17.329 Z" id="Path"></path>
                    </g>
                    <path d="M101.699,57.799 C101.153,57.864 100.854,59.307 101.062,61.023 C101.119612,61.5522893 101.228456,62.0747382 101.387,62.583 C101.673,63.48 102.063,64.052 102.427,64 C102.986,63.935 103.272,62.492 103.077,60.789 C102.882,59.086 102.258,57.734 101.699,57.799 Z" id="Path" fill="#417505"></path>
                    <g id="Group" opacity="0.3" transform="translate(98.800000, 58.800000)" fill="#000000">
                        <path d="M2.6,3.666 C2.32880694,2.66276282 2.21909996,1.62274068 2.275,0.585 L0.39,0.728 C0.729322899,1.82397578 1.247657,2.85625133 1.924,3.783 L2.6,3.666 Z" id="Path"></path>
                    </g>
                    <path d="M97.747,77.182 C97.24,76.961 96.252,78.053 95.563,79.639 C95.3438377,80.124676 95.1697724,80.6294654 95.043,81.147 C94.835,82.057 94.887,82.746 95.225,82.902 C95.563,83.058 96.72,82.031 97.422,80.458 C98.124,78.885 98.254,77.416 97.747,77.182 Z" id="Path" fill="#417505"></path>
                    <g id="Group" opacity="0.3" transform="translate(93.600000, 77.000000)" fill="#000000">
                        <path d="M1.482,4.017 C1.68965565,2.99217617 2.13492707,2.0303899 2.782,1.209 C2.249,0.988 1.677,0.715 1.092,0.416 C0.826957997,1.51321828 0.756556554,2.64844154 0.884,3.77 L1.482,4.017 Z" id="Path"></path>
                    </g>
                    <path d="M91.806,93.796 C91.468,93.354 90.077,93.796 88.699,94.862 C88.269379,95.1810021 87.8691209,95.5377539 87.503,95.928 C86.879,96.617 86.58,97.228 86.801,97.54 C87.022,97.852 88.53,97.54 89.908,96.487 C91.286,95.434 92.131,94.251 91.806,93.796 Z" id="Path" fill="#417505"></path>
                    <g id="Group" opacity="0.3" transform="translate(87.100000, 92.300000)" fill="#000000">
                        <path d="M0.494,3.537 C1.22504279,2.79925334 2.06727809,2.18073679 2.99,1.704 C2.665,1.236 2.288,0.703 1.924,0.144 C1.1410207,0.988133668 0.507923458,1.95976207 0.052,3.017 L0.494,3.537 Z" id="Path"></path>
                    </g>
                    <path d="M73.476,100.296 C73.476,99.737 71.968,99.451 70.265,99.646 C69.7319264,99.6996638 69.2051997,99.8041385 68.692,99.958 C67.808,100.244 67.223,100.634 67.275,100.998 C67.327,101.362 68.77,101.856 70.486,101.661 C72.202,101.466 73.541,100.855 73.476,100.296 Z" id="Path" fill="#417505"></path>
                    <g id="Group" opacity="0.3" transform="translate(68.600000, 97.500000)" fill="#000000">
                        <path d="M0.222,2.419 C1.21112449,2.07846213 2.26568647,1.97167104 3.303,2.107 C3.212,1.535 3.16,0.911 3.121,0.248 C2.04245424,0.578550938 1.02726343,1.08834373 0.118,1.756 L0.222,2.419 Z" id="Path"></path>
                    </g>
                    <path d="M49.543,101.18 C49.868,100.725 49.036,99.529 47.658,98.489 C47.2513083,98.1683257 46.8161659,97.8854832 46.358,97.644 C45.526,97.228 44.837,97.124 44.616,97.41 C44.395,97.696 45.123,99.061 46.501,100.101 C47.879,101.141 49.205,101.622 49.543,101.18 Z" id="Path" fill="#417505"></path>
                    <g id="Group" opacity="0.3" transform="translate(45.500000, 96.500000)" fill="#000000">
                        <path d="M0.923,1.196 C1.8308904,1.69851225 2.65535512,2.33878804 3.367,3.094 C3.731,2.639 4.134,2.132 4.563,1.638 C3.53643401,1.11905941 2.42829568,0.780461586 1.287,0.637 L0.923,1.196 Z" id="Path"></path>
                    </g>
                    <path d="M37.18,85.099 C37.674,84.839 37.401,83.383 36.569,81.875 C36.3120022,81.4172149 36.0162539,80.982291 35.685,80.575 C35.087,79.86 34.515,79.483 34.19,79.652 C33.865,79.821 33.969,81.368 34.801,82.889 C35.633,84.41 36.686,85.372 37.18,85.099 Z" id="Path" fill="#417505"></path>
                    <g id="Group" opacity="0.3" transform="translate(35.100000, 79.600000)" fill="#000000">
                        <path d="M0.676,1.04 C1.36060732,1.83183512 1.85428755,2.77027232 2.119,3.783 C2.626,3.484 3.185,3.198 3.783,2.912 C3.05088186,2.03029822 2.17113109,1.28251007 1.183,0.702 L0.676,1.04 Z" id="Path"></path>
                    </g>
                    <path d="M28.899,63.571 C29.445,63.688 30.199,62.414 30.563,60.737 C30.6737652,60.2105834 30.7390061,59.6756082 30.758,59.138 C30.758,58.215 30.589,57.539 30.225,57.461 C29.861,57.383 28.925,58.618 28.574,60.308 C28.223,61.998 28.353,63.454 28.899,63.571 Z" id="Path" fill="#417505"></path>
                    <g id="Group" opacity="0.3" transform="translate(29.900000, 58.800000)" fill="#000000">
                        <path d="M0.858,0.481 C0.784564228,1.5157485 0.552172519,2.53301032 0.169,3.497 L1.989,3.965 C2.0218392,2.8201586 1.86367303,1.6778474 1.521,0.585 L0.858,0.481 Z" id="Path"></path>
                    </g>
                    <g id="Group" opacity="0.3" transform="translate(67.600000, 77.000000)" fill="#000000">
                        <path d="M2.08,1.872 C0.494,3.172 -0.091,5.005 0.78,6.071 C1.651,7.137 3.588,6.968 5.161,5.72 C6.734,4.472 7.332,2.574 6.461,1.521 C5.59,0.468 3.653,0.624 2.08,1.872 Z" id="Path"></path>
                    </g>
                    <path d="M71.864,78.3 C70.291,79.6 69.693,81.433 70.564,82.486 C71.435,83.539 73.372,83.396 74.958,82.135 C76.544,80.874 77.129,79.002 76.258,77.936 C75.387,76.87 73.437,77 71.864,78.3 Z" id="Path" fill="#C53F3F"></path>
                    <g id="Group" opacity="0.2" transform="translate(69.900000, 77.000000)" fill="#417505">
                        <path d="M1.964,1.3 C0.391,2.6 -0.207,4.433 0.664,5.486 C1.535,6.539 3.472,6.396 5.058,5.135 C6.644,3.874 7.229,2.002 6.358,0.936 C5.487,-0.13 3.537,1.50657264e-13 1.964,1.3 Z" id="Path"></path>
                    </g>
                    <g id="Group" opacity="0.3" transform="translate(81.600000, 62.700000)" fill="#000000">
                        <path d="M5.097,3.9 C4.72,1.911 3.342,0.507 2.003,0.767 C0.664,1.027 -0.103,2.821 0.274,4.81 C0.651,6.799 2.029,8.19 3.355,7.943 C4.681,7.696 5.5,5.85 5.097,3.9 Z" id="Path"></path>
                    </g>
                    <path d="M88.868,66.223 C88.504,64.234 87.113,62.83 85.787,63.09 C84.461,63.35 83.668,65.144 84.045,67.133 C84.422,69.122 85.8,70.5 87.1,70.266 C88.4,70.032 89.245,68.199 88.868,66.223 Z" id="Path" fill="#C53F3F"></path>
                    <g id="Group" opacity="0.2" transform="translate(83.200000, 62.700000)" fill="#417505">
                        <path d="M5.668,3.523 C5.304,1.534 3.913,0.13 2.587,0.39 C1.261,0.65 0.468,2.444 0.845,4.433 C1.222,6.422 2.6,7.8 3.9,7.566 C5.2,7.332 6.045,5.499 5.668,3.523 Z" id="Path"></path>
                    </g>
                    <g id="Group" opacity="0.3" transform="translate(55.600000, 79.300000)" fill="#000000">
                        <path d="M0.989,0.768 C0.229105314,1.375308 -0.0901165566,2.38057554 0.180194485,3.31502451 C0.450505526,4.24947349 1.25711305,4.92906876 2.22387843,5.03690028 C3.19064381,5.1447318 4.12716736,4.65956269 4.59672779,3.80763784 C5.06628822,2.955713 4.97640791,1.90481483 4.369,1.145 C3.53969883,0.107615864 2.02649317,-0.0611647673 0.989,0.768 L0.989,0.768 Z" id="Path"></path>
                    </g>
                    <path d="M57.603,79.262 C56.8392505,79.8671292 56.5161157,80.8733058 56.7847148,81.809975 C57.0533138,82.7466442 57.8605581,83.4286735 58.8289269,83.5371009 C59.7972957,83.6455283 60.735391,83.1589231 61.2044974,82.3048541 C61.6736038,81.4507851 61.5810025,80.398059 60.97,79.639 C60.1380287,78.6166131 58.6404853,78.4489345 57.603,79.262 Z" id="Path" fill="#C53F3F"></path>
                    <g id="Group" opacity="0.3" transform="translate(55.900000, 78.300000)" fill="#417505">
                        <path d="M1.703,0.962 C0.93925052,1.56712923 0.616115709,2.57330577 0.884714754,3.50997498 C1.1533138,4.44664419 1.96055812,5.12867347 2.92892693,5.23710087 C3.89729574,5.34552826 4.83539102,4.85892311 5.30449743,4.00485412 C5.77360384,3.15078514 5.68100254,2.098059 5.07,1.339 C4.23802867,0.31661306 2.74048531,0.14893446 1.703,0.962 Z" id="Path"></path>
                    </g>
                    <g id="Group" opacity="0.3" transform="translate(62.400000, 51.000000)" fill="#000000">
                        <path d="M0.949,3.276 C0.702478679,4.88657629 1.80789642,6.39217893 3.41837451,6.63934098 C5.0288526,6.88650302 6.53489489,5.78168435 6.78269762,4.17130472 C7.03050035,2.56092508 5.92628092,1.05444337 4.316,0.806 C3.54189513,0.686566663 2.75206504,0.879783257 2.12051448,1.3430829 C1.48896392,1.80638253 1.06750936,2.50175314 0.949,3.276 L0.949,3.276 Z" id="Path"></path>
                    </g>
                    <path d="M63.596,52.703 C63.3494787,54.3135763 64.4548964,55.8191789 66.0653745,56.066341 C67.6758526,56.313503 69.1818949,55.2086843 69.4296976,53.5983047 C69.6775004,51.9879251 68.5732809,50.4814434 66.963,50.233 C66.1888951,50.1135667 65.399065,50.3067833 64.7675145,50.7700829 C64.1359639,51.2333825 63.7145094,51.9287531 63.596,52.703 Z" id="Path" fill="#C53F3F"></path>
                    <g id="Group" opacity="0.3" transform="translate(63.400000, 49.700000)" fill="#417505">
                        <path d="M0.196,3.003 C-0.0505213212,4.61357629 1.05489642,6.11917893 2.66537451,6.36634098 C4.2758526,6.61350302 5.78189489,5.50868435 6.02969762,3.89830472 C6.27750035,2.28792508 5.17328092,0.781443373 3.563,0.533 C2.78889513,0.413566663 1.99906504,0.606783257 1.36751448,1.0700829 C0.735963919,1.53338253 0.314509356,2.22875314 0.196,3.003 Z" id="Path"></path>
                    </g>
                    <g id="Group" opacity="0.3" transform="translate(45.500000, 71.500000)" fill="#000000">
                        <path d="M1.612,0.469 C1.04771384,0.911125987 0.806254261,1.65022992 1.00068578,2.34022314 C1.19511729,3.03021636 1.78695049,3.53450874 2.4990569,3.61696317 C3.2111633,3.6994176 3.90257527,3.3437115 4.24953613,2.71640581 C4.596497,2.08910013 4.53032284,1.31437545 4.082,0.755 C3.47609745,-0.000988726721 2.37462549,-0.128527585 1.612,0.469 Z" id="Path"></path>
                    </g>
                    <path d="M47.853,71.384 C47.2887138,71.826126 47.0472543,72.5652299 47.2416858,73.2552231 C47.4361173,73.9452164 48.0279505,74.4495087 48.7400569,74.5319632 C49.4521633,74.6144176 50.1435753,74.2587115 50.4905361,73.6314058 C50.837497,73.0041001 50.7713228,72.2293755 50.323,71.67 C49.7170974,70.9140113 48.6156255,70.7864724 47.853,71.384 L47.853,71.384 Z" id="Path" fill="#C53F3F"></path>
                    <g id="Group" opacity="0.3" transform="translate(46.800000, 70.500000)" fill="#417505">
                        <path d="M1.053,0.884 C0.488713836,1.32612599 0.247254261,2.06522992 0.441685776,2.75522314 C0.636117291,3.44521636 1.22795049,3.94950874 1.9400569,4.03196317 C2.6521633,4.1144176 3.34357527,3.7587115 3.69053613,3.13140581 C4.037497,2.50410013 3.97132284,1.72937545 3.523,1.17 C2.91709745,0.414011273 1.81562549,0.286472415 1.053,0.884 L1.053,0.884 Z" id="Path"></path>
                    </g>
                    <path d="M39.507,41.055 C39.845,41.497 41.223,41.055 42.575,40.002 C43.0034472,39.6864562 43.3997016,39.3293918 43.758,38.936 C44.369,38.26 44.668,37.636 44.447,37.35 C44.226,37.064 42.744,37.35 41.379,38.403 C40.014,39.456 39.182,40.6 39.507,41.055 Z" id="Path" fill="#417505"></path>
                    <g id="Group" opacity="0.3" transform="translate(40.300000, 39.000000)" fill="#000000">
                        <path d="M3.367,0.04 C2.64744027,0.767004373 1.81837984,1.37673665 0.91,1.847 C1.235,2.315 1.599,2.835 1.963,3.381 C2.73347438,2.54958531 3.35369118,1.59066856 3.796,0.547 L3.367,0.04 Z" id="Path"></path>
                    </g>
                    <path d="M58.032,34.789 C58.032,35.335 59.514,35.634 61.204,35.439 C61.7290569,35.3815353 62.2472069,35.2726803 62.751,35.114 C63.635,34.841 64.194,34.464 64.155,34.1 C64.155,33.541 62.673,33.255 60.983,33.45 C59.293,33.645 57.967,34.243 58.032,34.789 Z" id="Path" fill="#417505"></path>
                    <g id="Group" opacity="0.3" transform="translate(59.500000, 35.100000)" fill="#000000">
                        <path d="M3.121,0.066 C2.14808107,0.398747734 1.11120011,0.501100791 0.092,0.365 C0.17,0.937 0.222,1.548 0.261,2.198 C1.32758045,1.87991042 2.33058007,1.37841061 3.225,0.716 L3.121,0.066 Z" id="Path"></path>
                    </g>
                    <path d="M75.166,31.604 C74.945,32.111 76.05,33.06 77.61,33.723 C78.098246,33.9288039 78.6026189,34.0940295 79.118,34.217 C80.028,34.399 80.704,34.347 80.847,34.009 C80.99,33.671 79.963,32.54 78.39,31.877 C76.817,31.214 75.4,31.097 75.166,31.604 Z" id="Path" fill="#417505"></path>
                    <g id="Group" opacity="0.3" transform="translate(75.400000, 32.800000)" fill="#000000">
                        <path d="M3.588,1.378 C2.59854934,1.12449773 1.65528731,0.716482058 0.793,0.169 C0.559,0.676 0.286,1.261 -1.84741111e-14,1.846 C1.10480881,2.09153482 2.24315764,2.14867202 3.367,2.015 L3.588,1.378 Z" id="Path"></path>
                    </g>
                    <path d="M89.83,44.006 C89.375,44.344 89.83,45.722 90.857,47.087 C91.1759206,47.5086834 91.5327401,47.9003146 91.923,48.257 C92.599,48.881 93.223,49.18 93.509,48.959 C93.795,48.738 93.509,47.256 92.469,45.891 C91.429,44.526 90.272,43.681 89.83,44.006 Z" id="Path" fill="#417505"></path>
                    <g id="Group" opacity="0.3" transform="translate(88.400000, 45.500000)" fill="#000000">
                        <path d="M3.419,2.679 C2.64250791,2.00137775 2.02922642,1.15700468 1.625,0.209 C1.17,0.56 0.663,0.911 0.117,1.275 C0.937745203,2.03077412 1.87774141,2.64572491 2.899,3.095 L3.419,2.679 Z" id="Path"></path>
                    </g>
                    <g id="Group" opacity="0.3" transform="translate(46.800000, 60.100000)" fill="#000000">
                        <path d="M1.17,2.964 C0.364,4.81 0.715,6.747 1.963,7.293 C3.211,7.839 4.862,6.773 5.668,4.927 C6.474,3.081 6.123,1.131 4.875,0.598 C3.627,0.065 1.963,1.118 1.17,2.964 Z" id="Path"></path>
                    </g>
                    <path d="M48.1,61.621 C47.294,63.467 47.645,65.417 48.893,65.95 C50.141,66.483 51.792,65.43 52.598,63.584 C53.404,61.738 53.053,59.801 51.805,59.255 C50.557,58.709 48.88,59.775 48.1,61.621 Z" id="Path" fill="#C53F3F"></path>
                    <g id="Group" opacity="0.3" transform="translate(46.800000, 58.800000)" fill="#417505">
                        <path d="M1.3,2.821 C0.494,4.667 0.845,6.617 2.093,7.15 C3.341,7.683 4.992,6.63 5.798,4.784 C6.604,2.938 6.253,1.001 5.005,0.455 C3.757,-0.091 2.08,0.975 1.3,2.821 Z" id="Path"></path>
                    </g>
                    <g id="Group" opacity="0.3" transform="translate(62.400000, 62.700000)" fill="#000000">
                        <path d="M1.573,1.781 C0.0244779929,3.0552777 -0.207231458,5.33966429 1.05387933,6.8989281 C2.31499011,8.45819192 4.59733134,8.70924945 6.16722501,7.46139613 C7.73711868,6.2135428 8.00750627,3.93341081 6.773,2.353 C6.16884829,1.57368778 5.27437302,1.07282801 4.29421878,0.965011046 C3.31406455,0.857194079 2.332105,1.15164602 1.573,1.781 Z" id="Path"></path>
                    </g>
                    <path d="M65.637,63.155 C64.4774312,64.0728901 63.9856972,65.5993682 64.3914577,67.0215076 C64.7972181,68.4436469 66.0204076,69.4808284 67.4897472,69.6486464 C68.9590869,69.8164644 70.384644,69.0818047 71.1006259,67.7877831 C71.8166077,66.4937616 71.6817355,64.8957167 70.759,63.74 C70.1581986,62.9819793 69.2804042,62.4942513 68.3194094,62.3844931 C67.3584147,62.2747348 66.3932511,62.5519726 65.637,63.155 L65.637,63.155 Z" id="Path" fill="#C53F3F"></path>
                    <g id="Group" opacity="0.2" transform="translate(63.700000, 61.400000)" fill="#417505">
                        <path d="M1.937,1.755 C0.777431229,2.67289005 0.285697247,4.19936823 0.691457677,5.62150759 C1.09721811,7.04364695 2.32040759,8.08082843 3.78974724,8.24864641 C5.25908689,8.41646439 6.68464401,7.68180473 7.40062587,6.38778314 C8.11660773,5.09376156 7.98173551,3.49571668 7.059,2.34 C6.45819858,1.58197926 5.58040417,1.09425134 4.61940942,0.984493061 C3.65841467,0.874734777 2.69325108,1.15197256 1.937,1.755 L1.937,1.755 Z" id="Path"></path>
                    </g>
                    <g id="Group" opacity="0.3" transform="translate(41.600000, 69.200000)" fill="#000000">
                        <path d="M0.858,0.338 C0.546,0.338 0.312,1.014 0.26,2.145 C0.242969826,3.73999058 0.47544436,5.32783552 0.949,6.851 C1.26894264,7.90748294 1.65983106,8.94116566 2.119,9.945 C2.67287224,11.0958817 3.31163669,12.2039425 4.03,13.26 C8.14976718,19.3133876 14.799204,23.1643205 22.1,23.725 C23.2033792,23.8096396 24.3116208,23.8096396 25.415,23.725 C27.0055311,23.6319479 28.5715949,23.2897827 30.056,22.711 C31.096,22.256 31.603,21.827 31.538,21.515 C31.382,20.839 29.029,20.93 25.506,20.41 C24.622,20.293 23.673,20.098 22.659,19.877 C21.5954392,19.6277509 20.5453882,19.3240172 19.513,18.967 C17.1797291,18.1624458 14.9634206,17.0521058 12.922,15.665 C10.9056184,14.2438027 9.08324333,12.5656443 7.501,10.673 C6.80395212,9.83942487 6.14880892,8.97168554 5.538,8.073 C4.966,7.215 4.459,6.396 4.03,5.616 C2.288,2.47 1.534,0.234 0.858,0.338 Z" id="Path"></path>
                    </g>
                    <g id="Group" opacity="0.3" transform="translate(76.400000, 83.500000)" fill="#000000">
                        <path d="M4.2,1.742 C3.43506575,0.790932796 2.04878918,0.628973365 1.08522054,1.37809865 C0.121651894,2.12722394 -0.0631765885,3.51063713 0.669935469,4.48644446 C1.40304753,5.46225178 2.78322008,5.66989891 3.771,4.953 C4.77086855,4.18171226 4.9623207,2.74872193 4.2,1.742 Z" id="Path"></path>
                    </g>
                    <path d="M29.12,109.253 C28.6120927,109.247306 28.1540213,108.946319 27.9472092,108.482389 C27.740397,108.018459 27.8227282,107.476569 28.158,107.095 L101.803,24.311 C102.032929,24.050645 102.357487,23.8931333 102.704287,23.8735953 C103.051087,23.8540573 103.391283,23.974118 103.649,24.207 C104.182927,24.6849132 104.229443,25.5047609 103.753,26.04 L30.095,108.811 C29.8485592,109.09152 29.4933953,109.253 29.12,109.253 Z" id="Path" fill="#263238"></path>
                    <path d="M107.289,104.742 C106.973006,104.742 106.667996,104.626011 106.431,104.417 L23.738,30.655 C23.3919882,30.3438217 23.2382719,29.871686 23.3347543,29.4164418 C23.4312368,28.9611977 23.7632601,28.5920076 24.2057544,28.4479418 C24.6482486,28.303876 25.1339883,28.4068216 25.48,28.718 L108.16,102.48 C108.557,102.840841 108.691565,103.408494 108.498785,103.909144 C108.306006,104.409795 107.825482,104.740603 107.289,104.742 L107.289,104.742 Z" id="Path" fill="#263238"></path>
                </g>
            </g>
        </g>
    </g>
</svg>