<?xml version="1.0" encoding="UTF-8"?>
<svg width="545px" height="521px" viewBox="0 0 545 521" version="1.1" xmlns="http://www.w3.org/2000/svg" xmlns:xlink="http://www.w3.org/1999/xlink">
    <!-- Generator: Sketch 64 (93537) - https://sketch.com -->
    <title>lady with mask</title>
    <desc>Created with Sketch.</desc>
    <defs>
        <linearGradient x1="104.725573%" y1="78.8395132%" x2="-17.4821331%" y2="19.7260273%" id="linearGradient-1">
            <stop stop-color="#DBE2E4" offset="0%"></stop>
            <stop stop-color="#F4F4F4" offset="100%"></stop>
        </linearGradient>
        <linearGradient x1="113.516185%" y1="34.3844769%" x2="22.7652026%" y2="65.6155231%" id="linearGradient-2">
            <stop stop-color="#1E9DD7" offset="0%"></stop>
            <stop stop-color="#075D98" offset="100%"></stop>
        </linearGradient>
        <filter x="-41.4%" y="-16.8%" width="182.8%" height="133.6%" filterUnits="objectBoundingBox" id="filter-3">
            <feGaussianBlur stdDeviation="3.9" in="SourceGraphic"></feGaussianBlur>
        </filter>
        <filter x="-44.8%" y="-63.8%" width="189.5%" height="227.7%" filterUnits="objectBoundingBox" id="filter-4">
            <feGaussianBlur stdDeviation="7.8" in="SourceGraphic"></feGaussianBlur>
        </filter>
        <filter x="-62.5%" y="-29.4%" width="225.0%" height="158.8%" filterUnits="objectBoundingBox" id="filter-5">
            <feGaussianBlur stdDeviation="6.5" in="SourceGraphic"></feGaussianBlur>
        </filter>
        <filter x="-57.7%" y="-31.9%" width="215.4%" height="163.8%" filterUnits="objectBoundingBox" id="filter-6">
            <feGaussianBlur stdDeviation="6.5" in="SourceGraphic"></feGaussianBlur>
        </filter>
        <filter x="-120.0%" y="-50.0%" width="340.0%" height="200.0%" filterUnits="objectBoundingBox" id="filter-7">
            <feGaussianBlur stdDeviation="5.2" in="SourceGraphic"></feGaussianBlur>
        </filter>
        <filter x="0.0%" y="0.0%" width="100.0%" height="100.0%" filterUnits="objectBoundingBox" id="filter-8">
            <feGaussianBlur stdDeviation="0" in="SourceGraphic"></feGaussianBlur>
        </filter>
        <filter x="-30.0%" y="-75.0%" width="160.0%" height="250.0%" filterUnits="objectBoundingBox" id="filter-9">
            <feGaussianBlur stdDeviation="3.9" in="SourceGraphic"></feGaussianBlur>
        </filter>
        <filter x="-4.9%" y="-16.0%" width="109.8%" height="132.1%" filterUnits="objectBoundingBox" id="filter-10">
            <feGaussianBlur stdDeviation="1.3" in="SourceGraphic"></feGaussianBlur>
        </filter>
        <filter x="-6.0%" y="-37.5%" width="112.0%" height="175.0%" filterUnits="objectBoundingBox" id="filter-11">
            <feGaussianBlur stdDeviation="1.3" in="SourceGraphic"></feGaussianBlur>
        </filter>
        <filter x="-6.2%" y="-21.4%" width="112.5%" height="142.9%" filterUnits="objectBoundingBox" id="filter-12">
            <feGaussianBlur stdDeviation="1.3" in="SourceGraphic"></feGaussianBlur>
        </filter>
        <linearGradient x1="80.0204423%" y1="71.9619574%" x2="28.3176721%" y2="10.3216721%" id="linearGradient-13">
            <stop stop-color="#DBE2E4" offset="0%"></stop>
            <stop stop-color="#F4F4F4" offset="100%"></stop>
        </linearGradient>
        <linearGradient x1="152.476057%" y1="-22.2479342%" x2="0%" y2="70.0944639%" id="linearGradient-14">
            <stop stop-color="#62345F" offset="0%"></stop>
            <stop stop-color="#251323" offset="100%"></stop>
        </linearGradient>
        <linearGradient x1="139.429439%" y1="-10.7596121%" x2="0%" y2="72.6811291%" id="linearGradient-15">
            <stop stop-color="#62345F" offset="0%"></stop>
            <stop stop-color="#251323" offset="100%"></stop>
        </linearGradient>
    </defs>
    <g id="Page-1" stroke="none" stroke-width="1" fill="none" fill-rule="evenodd">
        <g id="Covid-illustrations" transform="translate(-108.000000, -453.000000)">
            <g id="lady-with-mask" transform="translate(108.000000, 453.000000)">
                <g id="Person-with-medical-mask-pana" fill-rule="nonzero">
                    <g id="background-simple--inject-198" transform="translate(0.000000, 24.700000)" fill="url(#linearGradient-1)">
                        <path d="M95.888,387.478 C131.872,412.984 166.712,427.778 209.638,437.879 C252.564,447.98 296.4,460.98 340.132,455.637 C386.308,449.995 423.8,450.099 474.76,411.034 C511.667,382.72 537.16,326.807 536.692,280.28 C536.367172,247.557082 522.479914,216.435733 498.342473,194.338701 C474.205033,172.241669 441.981317,161.14994 409.357,163.709 C388.18,165.373 367.016,172.718 346.151,168.818 C318.851,163.722 298.649,140.582 284.583,116.662 C270.517,92.742 267.592,49.595 246.688,31.343 C206.518,-3.757 133.705,-8.437 95.888,14.235 C54.834,38.935 14.677,85.813 4.81,132.665 C4.81,132.665 -28.899,299 95.888,387.478 Z" id="Path"></path>
                    </g>
                    <g id="Character--inject-198" transform="translate(17.900000, 106.600000)">
                        <path d="M469.490446,149.32006 L480.912781,135.349316 C480.912781,135.349316 481.582963,129.685547 481.598942,123.096338 C481.618876,114.875694 480.92983,105.214968 480.230025,103.319057 C480.07089,102.859746 486.98378,101.158248 489.622543,106.215658 C492.039871,110.872572 493.970193,117.055162 494.579138,121.143933 C494.743562,122.154195 494.677318,123.137559 495.541314,123.673734 C496.405309,124.20991 497.457347,124.341003 498.424569,124.033013 C503.673017,122.351476 509.031186,121.04126 514.460125,120.111891 C517.587889,119.748652 521.11239,122.757018 521.795147,125.010965 C522.311828,126.706082 522.404092,131.027699 523.372869,132.974289 C523.502039,133.225763 523.621982,133.467922 523.723473,133.710082 C524.393202,135.321928 525.734838,140.071427 526.316104,141.906252 C526.67224,143.253458 526.775508,144.656041 526.620576,146.041592 C525.840388,149.473535 525.548217,151.559832 525.744064,152.300485 C526.06699,154.004916 521.933544,158.727027 521.933544,158.727027 L500.980293,166.755548 L493.599139,173.862 L469.490446,149.32006 Z" id="Path" fill="#B78876"></path>
                        <path d="M233.013,136.578 C236.613557,136.76516 240.196997,137.199517 243.738,137.878 C263.921303,140.885271 283.067869,148.765214 299.521,160.836 C338.687254,192.502264 365.132349,207.634781 378.856285,206.233551 C403.216571,203.746337 433.759143,184.505276 470.484,148.51037 L497.6067,174.868395 C483.690469,198.545653 472.324552,216.025004 463.508947,227.306447 C457.047063,235.575805 445.496747,247.422656 428.858,262.847 C391.910019,294.396671 347.577799,295.825516 295.861342,267.133533 C294.400213,272.303965 292.155703,277.258954 289.174997,281.814709 C285.192838,301.58706 283.675723,318.79876 284.623,333.45 C285.822847,352.007646 291.772513,378.770312 302.472,413.738 L138.672,413.738 C120.68,413.166 137.034,366.288 134.2,366.288 C137.181333,338.953333 138.672,318.05819 138.672,303.602571 C138.672,293.142518 132.583667,274.001994 120.407,246.181 C92.4656667,252.581333 78.495,264.465693 78.495,281.834079 C78.495,299.202465 92.4656667,313.686438 120.407,325.286 L105.884086,361.672918 C61.5861345,350.866278 34.0787724,339.915972 23.362,328.822 C-6.33351468,298.081288 -1.56873772,257.745835 5.84172768,243.900981 C31.841335,195.326329 93.778554,156.078381 138.1,145.86 C160.2,139.217 177.412,136.084 177.412,136.084 C211.94,135.59 214.514,135.707 233.013,136.578 Z" id="Combined-Shape" fill="url(#linearGradient-2)"></path>
                        <path d="M269.751,208.247 C270.002409,208.353929 270.238479,208.493822 270.453,208.663 C270.882,208.962 271.571,209.378 272.364,209.963 C274.675406,211.679632 276.848726,213.574767 278.864,215.631 C285.440228,222.505686 290.755892,230.483583 294.568,239.2 C296.807307,243.99136 297.978342,249.212224 298,254.501 C297.971261,258.787431 297.28736,263.044276 295.972,267.124 C295.113668,269.869051 294.071306,272.553133 292.852,275.158 L291.799,277.251 C291.687406,277.501454 291.552477,277.740844 291.396,277.966 C291.459534,277.699577 291.555588,277.441977 291.682,277.199 C291.916,276.64 292.228,275.899 292.605,275.054 C293.721909,272.422442 294.694028,269.731755 295.517,266.994 C296.739557,262.941926 297.365789,258.733475 297.376,254.501 C297.302433,249.319771 296.123487,244.213962 293.918,239.525 C290.120925,230.879933 284.91028,222.927768 278.5,215.995 C276.525075,213.928226 274.414383,211.995596 272.182,210.21 C271.402,209.56 270.752,209.118 270.349,208.767 C270.132528,208.614421 269.93216,208.440188 269.751,208.247 Z" id="Path" fill="#263238" filter="url(#filter-3)"></path>
                        <g id="Group" opacity="0.3" transform="translate(178.400000, 266.500000)" fill="#000000">
                            <path d="M51.649,0.442 C46.449,14.131 32.305,20.293 19.149,21.164 L18.395,21.164 C12.403914,20.8818936 6.40918384,21.6383819 0.676,23.4 C7.99881561,35.6511268 23.3354828,40.4770762 36.3542278,34.6267757 C49.3729727,28.7764751 55.9475939,14.1041369 51.649,0.494 L51.649,0.442 Z" id="Path" filter="url(#filter-4)"></path>
                        </g>
                        <g id="Group" opacity="0.3" transform="translate(112.100000, 296.400000)" fill="#000000">
                            <path d="M15.6,3.9 C19.8309967,15.1519582 25.8133485,28.3822827 30.0443451,39.634241 C33.7551373,49.5260724 39.4253664,60.345263 43.1361586,70.2 L44.7661327,70.0887169 C51.9102746,47.1643976 39.7721694,19.8382134 15.6,3.9 Z" id="Path" filter="url(#filter-5)" transform="translate(31.200000, 37.050000) rotate(33.000000) translate(-31.200000, -37.050000) "></path>
                        </g>
                        <g id="Group" opacity="0.3" transform="translate(278.500000, 214.200000)" fill="#000000">
                            <path d="M33.5501146,38.3058305 C26.8884809,20.6525935 15.1893622,6.99841576 0.897,0.196 C8.93567912,15.1085424 18.0193865,33.1071525 18.9357959,52.431322 L30.9134278,61.296 C34.6433749,56.6565424 35.8009447,44.2915593 33.5501146,38.3058305 Z" id="Path" filter="url(#filter-6)"></path>
                        </g>
                        <path d="M251.897031,90.9338592 C253.46941,76.7508557 251.703332,53.7106643 249.61822,34.8920157 C247.783778,17.9598331 235.694688,-2.35418484 219.013795,0.222451645 L167.284797,16.0158529 C162.218808,16.79321 158.585276,21.3560011 158.921562,26.5179472 L169.837064,151.346782 C169.963866,152.864853 170.504112,154.317937 171.39805,155.54532 C178.372265,165.433364 190.283262,170.492655 202.161991,168.612547 C222.488981,165.955391 227.046602,152.796141 227.980915,148.597603 C228.140415,147.896345 228.209352,147.177197 228.186007,146.458075 C227.673275,130.273577 227.37703,123.935511 227.388424,124.05054 C227.399818,124.165568 248.740878,119.449403 251.897031,90.9338592 Z" id="Path" fill="#B78876"></path>
                        <path d="M240.794173,52.7532438 C240.908911,55.6840866 239.315935,58.2100896 237.19796,58.4558044 C236.194386,58.6387241 235.180168,58.2489963 234.389255,57.3765194 C233.598342,56.5040424 233.099037,55.2241617 233.006513,53.8321066 C232.885079,50.907541 234.476008,48.3836561 236.590324,48.1466707 C237.593902,47.9586277 238.609618,48.3437383 239.402967,49.2130889 C240.196316,50.0824396 240.698715,51.360879 240.794173,52.7532438 Z" id="Path" fill="#263238"></path>
                        <path d="M204.393452,54.0615613 C204.515169,56.9840496 202.925867,59.5083223 200.809683,59.7536277 C199.804157,59.9412553 198.786663,59.5545798 197.992949,58.6831912 C197.199235,57.8118027 196.698183,56.531326 196.605885,55.1384387 C196.490815,52.2190834 198.076656,49.7003078 200.189654,49.4463723 C201.19518,49.2587447 202.212673,49.6454202 203.006387,50.5168088 C203.800102,51.3881973 204.301153,52.668674 204.393452,54.0615613 Z" id="Path" fill="#263238"></path>
                        <path d="M224.599889,79.197526 C224.599889,78.9880947 220.911169,48.2678268 221.333716,48.1024863 C221.756263,47.9371458 225.810429,56.0388311 230.367083,66.2238068 C231.509102,68.7369827 232.525499,71.1289088 233.519055,73.4216306 C234.199766,74.5451687 234.446545,75.8649774 234.215686,77.1473036 C233.959919,77.8449524 233.381186,78.387233 232.651121,78.6133228 C232.111043,78.7836426 231.550815,78.8873441 230.983773,78.9219584 C227.066649,79.2857076 224.622729,79.4069573 224.599889,79.197526 Z" id="Path" fill="#263238" opacity="0.431222098" filter="url(#filter-7)"></path>
                        <path d="M222.764558,80.497526 C222.764558,80.409566 210.477044,77.2977459 209.713633,70.9699121 C209.370689,68.1272812 209.843556,62.0282675 210.602011,59.2731754 C212.175152,53.5587306 219.143648,49.4671896 219.318131,49.4024863 C219.763997,49.2371458 224.041905,57.3388311 228.850033,67.5238068 C230.055077,70.0369827 231.127567,72.4289088 232.175956,74.7216306 C232.894234,75.8451687 233.154633,77.1649774 232.911033,78.4473036 C232.641151,79.1449524 232.030479,79.687233 231.260122,79.9133228 C230.690239,80.0836426 230.099092,80.1873441 229.500757,80.2219584 C225.367454,80.5857076 222.788659,80.7069573 222.764558,80.497526 Z" id="Path" fill="#B78876" filter="url(#filter-8)"></path>
                        <path d="M227.463793,123.793864 C214.04428,124.583209 200.659872,121.781322 188.8,115.7 C188.8,115.7 199.361534,134.626504 227.8,130.785537 L227.463793,123.793864 Z" id="Path" fill="#000000" opacity="0.324102493" filter="url(#filter-9)"></path>
                        <path d="M180.572444,72.4561187 L173.2,88.4762773 C173.2,88.4762773 185.642454,108.613605 195.294077,115.421885 C206.620853,123.54825 221.245421,125.694823 234.470363,121.172122 C234.470363,121.172122 255.285309,113.558809 253.715466,77.5738291 C253.715466,77.5738291 239.645028,72.3871158 230.679484,71.5820827 C221.713941,70.7770496 201.782758,76.1822719 194.21263,75.2162321 C189.609361,74.5945172 185.052694,73.6724683 180.572444,72.4561187 L180.572444,72.4561187 Z" id="Path" fill="#F5F5F5"></path>
                        <path d="M181.403,73.489 C178.120405,71.7178259 174.947036,69.7512925 171.9,67.6 C168.741684,65.6138712 165.703089,63.4434465 162.8,61.1 C166.082595,62.8711741 169.255964,64.8377075 172.303,66.989 C175.461316,68.9751288 178.499911,71.1455535 181.403,73.489 L181.403,73.489 Z" id="Path" fill="#263238"></path>
                        <path d="M174.565,88.466947 C172.655856,88.9933548 170.693477,89.3029745 168.715,89.389947 C166.759057,89.6955062 164.77521,89.7827082 162.8,89.649947 C164.709404,89.1226537 166.671395,88.8087351 168.65,88.713947 C170.605998,88.4083608 172.590334,88.3254985 174.565,88.466947 L174.565,88.466947 Z" id="Path" fill="#263238"></path>
                        <path d="M254.515,97.24 C254.265537,97.3914109 253.999446,97.5135509 253.722,97.604 C253.189,97.825 252.422,98.15 251.395,98.54 C248.491626,99.5620184 245.514701,100.361659 242.49,100.932 C237.987311,101.776575 233.405647,102.125322 228.827,101.972 C223.220864,101.776236 217.665147,100.840813 212.304,99.19 C209.528749,98.3300121 206.817955,97.2743662 204.192,96.031 C201.762481,94.858264 199.397435,93.556404 197.107,92.131 C192.713,89.427 188.93,86.736 185.732,84.552 C182.534,82.368 179.895,80.652 178.036,79.495 L175.904,78.195 C175.640772,78.0628825 175.396016,77.8967983 175.176,77.701 C175.451178,77.7971604 175.716684,77.9190322 175.969,78.065 C176.476,78.325 177.269,78.715 178.179,79.261 C180.064,80.327 182.755,81.991 185.979,84.136 C189.203,86.281 193.025,88.933 197.406,91.585 C199.603,92.885 201.956,94.185 204.465,95.42 C207.067825,96.6404482 209.752287,97.6786138 212.499,98.527 C222.174558,101.516857 232.420043,102.176132 242.399,100.451 C245.412845,99.9230141 248.387862,99.1933749 251.304,98.267 L253.67,97.461 C253.944023,97.3607105 254.226964,97.2867106 254.515,97.24 L254.515,97.24 Z" id="Path" fill="#E0E0E0" filter="url(#filter-10)"></path>
                        <path d="M250.705997,84.745426 C243.926927,82.5280714 237.07797,80.3340574 229.972759,79.7155322 C222.867548,79.097007 216.07683,80.03063 209.134689,80.4741009 C202.192549,80.9175718 194.446704,80.4741009 187.947183,78 L186.2,78 C206.043002,88.4183232 229.028196,91.1239969 250.740941,85.5973569 C250.927307,85.5973569 251.148617,85.4689838 251.195208,85.2822592 C251.2418,85.0955346 250.938955,84.827118 250.705997,84.745426 Z" id="Path" fill="#E0E0E0" filter="url(#filter-11)"></path>
                        <path d="M181,89.7 C187.085255,92.996046 193.053934,96.6107097 199.722068,98.5883373 C212.967696,102.622031 226.874895,104.378563 240.780052,103.774116 C241.852549,103.774116 243.274773,103.949905 243.391349,104.949706 C243.507924,105.949507 242.42377,106.399966 241.502821,106.652663 C238.460316,107.420319 235.326336,107.819062 232.17676,107.83924 C222.849816,108.205185 213.53299,106.915651 204.71151,104.0378 C195.864344,101.146828 187.872998,96.3153464 181.396358,89.94171" id="Path" fill="#E0E0E0" filter="url(#filter-12)"></path>
                        <path d="M118.938,328.822 C119.094,329.108 124.056194,330.182667 133.824583,332.046 C144.365369,339.322547 150.892302,344.902384 153.405383,348.78551 C160.570291,359.85648 158.553336,371.205763 154.987,376.896 C146.823,389.922 140.722341,387.91031 140.722341,387.91031 C132.173388,387.9201 126.794076,386.800996 124.584405,384.553 C119.146721,379.021005 113.160219,370.57935 106.6249,359.228037 L118.938,328.822 Z" id="Path" fill="#B78876"></path>
                    </g>
                    <g id="speech-bubble--inject-198" transform="translate(361.400000, 0.000000)">
                        <path d="M62.959,0.415996477 C38.3188259,0.407729653 16.0013402,14.9592069 6.06958075,37.509116 C-3.86217867,60.0590251 0.468147915,86.34712 17.108,104.52 C17.355,104.793 17.628,105.053 17.888,105.326 L6.097,135.551 L43.797,122.278 L43.888,121.732 C49.894,123.656 56.212,126.126 62.855,126.126 C97.175,126.126 125.073,96.889 125.073,62.556 C125.073,28.2471767 97.2678203,0.430355156 62.959,0.415996477 L62.959,0.415996477 Z" id="Path" fill="url(#linearGradient-13)"></path>
                        <polygon id="Path" fill="#C53F3F" points="25.974 68.237 35.633 58.578 54.275 75.14 90.844 39.936 99.827 49.608 52.897 93.769"></polygon>
                    </g>
                </g>
                <circle id="Oval" fill="url(#linearGradient-14)" cx="154.7" cy="81.9" r="32.5"></circle>
                <path d="M244.238081,115.232798 C228.000157,141.610646 210.670735,154.366867 192.249816,153.501461 C183.995816,157.833114 179.868817,162.645697 179.868817,167.93921 C179.868817,168.515498 182.197922,193.740131 182.273358,194.923053 C182.45602,197.787408 182.914502,203.013057 183.648804,210.6 C175.255242,210.009867 169.77351,209.197171 167.203607,208.161912 C159.097681,204.896523 151.686393,197.877402 150.013932,195.336101 C141.132965,181.841497 135.562653,143.285662 146.266968,115.232798 C156.329321,88.8623269 186.397873,75.2980935 191.18672,72.9403529 C195.541839,70.796154 241.560213,59.4560958 277.872138,106.451484 C283.127972,113.253655 287.075032,134.236886 277.91811,149.449569 C275.306353,153.788563 272.528895,156.841197 269.585736,158.607472 C265.766511,146.385789 262.392883,137.769737 259.464851,132.759316 C256.53682,127.748895 251.461229,121.906722 244.238081,115.232798 Z" id="Path-2" fill="url(#linearGradient-15)"></path>
                <path d="M182.265655,168.485488 C181.822365,168.298886 164.545397,163.425295 165.113718,180.449934 C165.682039,197.474573 183.3,193.424224 183.3,192.930279 C183.3,192.436334 182.265655,168.485488 182.265655,168.485488 Z" id="Path" fill="#B78876" fill-rule="nonzero"></path>
                <ellipse id="Oval" fill="#D6007A" cx="175.5" cy="195" rx="1.3" ry="5.2"></ellipse>
            </g>
        </g>
    </g>
</svg>