<?xml version="1.0" encoding="UTF-8"?>
<svg width="532px" height="557px" viewBox="0 0 532 557" version="1.1" xmlns="http://www.w3.org/2000/svg" xmlns:xlink="http://www.w3.org/1999/xlink">
    <!-- Generator: Sketch 64 (93537) - https://sketch.com -->
    <title>hand washing</title>
    <desc>Created with Sketch.</desc>
    <defs>
        <linearGradient x1="104.725573%" y1="76.868719%" x2="-17.4821331%" y2="21.7948476%" id="linearGradient-1">
            <stop stop-color="#DBE2E4" offset="0%"></stop>
            <stop stop-color="#F4F4F4" offset="100%"></stop>
        </linearGradient>
        <linearGradient x1="85.4958444%" y1="70.3602152%" x2="-9.45280288%" y2="-3.37156068%" id="linearGradient-2">
            <stop stop-color="#DBE2E4" offset="0%"></stop>
            <stop stop-color="#F4F4F4" offset="100%"></stop>
        </linearGradient>
        <linearGradient x1="90.8777823%" y1="20.4811076%" x2="23.253956%" y2="59.7916846%" id="linearGradient-3">
            <stop stop-color="#485563" offset="0%"></stop>
            <stop stop-color="#29323C" offset="100%"></stop>
        </linearGradient>
        <filter x="-94.7%" y="-84.0%" width="289.4%" height="268.0%" filterUnits="objectBoundingBox" id="filter-4">
            <feGaussianBlur stdDeviation="7.8" in="SourceGraphic"></feGaussianBlur>
        </filter>
        <filter x="-126.9%" y="-52.2%" width="353.8%" height="204.3%" filterUnits="objectBoundingBox" id="filter-5">
            <feGaussianBlur stdDeviation="4.42" in="SourceGraphic"></feGaussianBlur>
        </filter>
        <linearGradient x1="104.131093%" y1="-27.1387141%" x2="2.47634953%" y2="100%" id="linearGradient-6">
            <stop stop-color="#FFBA90" offset="0%"></stop>
            <stop stop-color="#EB9577" offset="100%"></stop>
        </linearGradient>
        <linearGradient x1="113.516185%" y1="20.4238496%" x2="22.7652026%" y2="79.5761504%" id="linearGradient-7">
            <stop stop-color="#1E9DD7" offset="0%"></stop>
            <stop stop-color="#075D98" offset="100%"></stop>
        </linearGradient>
        <linearGradient x1="91.6861589%" y1="43.1913785%" x2="3.88722072%" y2="81.6366429%" id="linearGradient-8">
            <stop stop-color="#075D98" offset="0%"></stop>
            <stop stop-color="#1E9DD7" offset="100%"></stop>
        </linearGradient>
        <filter x="-50.2%" y="-25.1%" width="202.0%" height="150.2%" filterUnits="objectBoundingBox" id="filter-9">
            <feGaussianBlur stdDeviation="5.2" in="SourceGraphic"></feGaussianBlur>
        </filter>
        <filter x="-26.1%" y="-12.4%" width="152.2%" height="124.8%" filterUnits="objectBoundingBox" id="filter-10">
            <feGaussianBlur stdDeviation="5.2" in="SourceGraphic"></feGaussianBlur>
        </filter>
        <filter x="-55.9%" y="-22.2%" width="211.7%" height="144.3%" filterUnits="objectBoundingBox" id="filter-11">
            <feGaussianBlur stdDeviation="5.2" in="SourceGraphic"></feGaussianBlur>
        </filter>
        <linearGradient x1="88.8337864%" y1="88.6392638%" x2="8.78583419%" y2="6.28104403%" id="linearGradient-12">
            <stop stop-color="#FFFFFF" offset="0%"></stop>
            <stop stop-color="#F1F1F1" offset="100%"></stop>
        </linearGradient>
        <linearGradient x1="88.8337864%" y1="67.7994702%" x2="8.78583419%" y2="29.860531%" id="linearGradient-13">
            <stop stop-color="#FFFFFF" offset="0%"></stop>
            <stop stop-color="#F1F1F1" offset="100%"></stop>
        </linearGradient>
        <linearGradient x1="88.8337864%" y1="68.7050791%" x2="8.78583419%" y2="28.8358667%" id="linearGradient-14">
            <stop stop-color="#FFFFFF" offset="0%"></stop>
            <stop stop-color="#F1F1F1" offset="100%"></stop>
        </linearGradient>
        <linearGradient x1="88.8337864%" y1="97.2673577%" x2="8.78583419%" y2="-3.4813381%" id="linearGradient-15">
            <stop stop-color="#FFFFFF" offset="0%"></stop>
            <stop stop-color="#F1F1F1" offset="100%"></stop>
        </linearGradient>
        <linearGradient x1="88.8337864%" y1="81.3223138%" x2="8.78583419%" y2="14.5599133%" id="linearGradient-16">
            <stop stop-color="#FFFFFF" offset="0%"></stop>
            <stop stop-color="#F1F1F1" offset="100%"></stop>
        </linearGradient>
        <linearGradient x1="88.8337864%" y1="102.639595%" x2="8.78583419%" y2="-9.55983358%" id="linearGradient-17">
            <stop stop-color="#FFFFFF" offset="0%"></stop>
            <stop stop-color="#F1F1F1" offset="100%"></stop>
        </linearGradient>
        <linearGradient x1="88.8337864%" y1="102.638351%" x2="8.78583419%" y2="-9.5584259%" id="linearGradient-18">
            <stop stop-color="#FFFFFF" offset="0%"></stop>
            <stop stop-color="#F1F1F1" offset="100%"></stop>
        </linearGradient>
        <linearGradient x1="51.1516268%" y1="102.639595%" x2="48.7777824%" y2="-9.55983358%" id="linearGradient-19">
            <stop stop-color="#FFFFFF" offset="0%"></stop>
            <stop stop-color="#F1F1F1" offset="100%"></stop>
        </linearGradient>
        <filter x="-276.0%" y="-24.1%" width="652.0%" height="148.2%" filterUnits="objectBoundingBox" id="filter-20">
            <feGaussianBlur stdDeviation="1.3" in="SourceGraphic"></feGaussianBlur>
        </filter>
        <filter x="-276.1%" y="-25.0%" width="652.2%" height="150.0%" filterUnits="objectBoundingBox" id="filter-21">
            <feGaussianBlur stdDeviation="1.3" in="SourceGraphic"></feGaussianBlur>
        </filter>
        <filter x="-57.0%" y="-40.1%" width="214.0%" height="180.3%" filterUnits="objectBoundingBox" id="filter-22">
            <feGaussianBlur stdDeviation="1.3" in="SourceGraphic"></feGaussianBlur>
        </filter>
        <filter x="-63.8%" y="-47.2%" width="227.6%" height="194.4%" filterUnits="objectBoundingBox" id="filter-23">
            <feGaussianBlur stdDeviation="1.3" in="SourceGraphic"></feGaussianBlur>
        </filter>
        <filter x="-41.1%" y="-26.8%" width="182.2%" height="153.6%" filterUnits="objectBoundingBox" id="filter-24">
            <feGaussianBlur stdDeviation="1.3" in="SourceGraphic"></feGaussianBlur>
        </filter>
    </defs>
    <g id="Page-1" stroke="none" stroke-width="1" fill="none" fill-rule="evenodd">
        <g id="Covid-illustrations" transform="translate(-765.000000, -1592.000000)">
            <g id="hand-washing" transform="translate(765.000000, 1592.000000)">
                <g id="background-simple--inject-197" transform="translate(44.200000, 0.000000)" fill-rule="nonzero">
                    <path d="M148.759,405.444 C110.591,402.779 72.319,390.117 43.459,364.949 C14.599,339.781 -3.51,301.171 0.767,263.146 C5.044,225.121 34.216,189.787 71.89,183.079 C94.757,179.01 118.898,184.99 141.193,178.464 C169.52,170.17 188.461,143.702 201.539,117.234 C214.617,90.766 224.536,61.945 244.673,40.365 C274.482,8.437 323.284,-1.638 365.573,9.165 C419.9,23.101 463.645,68.9 479.7,122.629 C495.755,176.358 485.472,236.301 456.703,284.427 C427.934,332.553 381.81,369.109 330.2,391.105" id="Path" fill="url(#linearGradient-1)"></path>
                    <path d="M175.188,51.844 C169,26.468 148.317,-5.07 97.409,0.988 C60.06,2.6 41.691,39 40.664,62.673 C39.637,86.346 53.443,109.473 73.788,121.641 C96.226,135.005 126.36,134.797 148.057,120.25 C169.754,105.703 181.428,77.207 175.188,51.844 Z" id="Path" fill="url(#linearGradient-2)"></path>
                </g>
                <g id="Sink--inject-197" transform="translate(5.200000, 425.100000)" fill-rule="nonzero">
                    <path d="M1.716,55.107 C-0.052,51.727 1.144,36.712 3.302,33.566 C5.64578313,30.5300133 8.58826982,28.0078818 11.947,26.156 C37.154,10.4 58.201,7.098 87.841,3.9 C117.93744,0.530298545 148.2759,-0.126679424 178.49,1.937 C211.666,4.316 245.154,1.339 274.963,15.925 C279.794188,18.1869508 283.886558,21.770028 286.767,26.26 C289.068,30.004 288.145,38.35 285.636,46.345 C281.008,61.035 278.785,80.756 241.618,91.26 C199.823,103.064 202.722,131.898 202.722,131.898 L28.275,130.416 L26,116.207 C23.3907263,100.863591 17.5696482,86.2444452 8.918,73.307 C4.9252333,67.1637135 2.26782574,60.2500249 1.118,53.014" id="Path" fill="#EBEBEB"></path>
                    <ellipse id="Oval" fill="#E0E0E0" cx="152.828" cy="39.156" rx="117.702" ry="20.033"></ellipse>
                </g>
                <g id="Character--inject-197" transform="translate(83.200000, 63.700000)">
                    <path d="M236.301,361.4 L234.611,493.298 L301.002,493.22 L314.756,430.599 L323.856,493.22 L396.860989,493.22 C396.860989,493.22 417.404,348.036 388.7,305.981 L236.301,361.4 Z" id="Path" fill="url(#linearGradient-3)" fill-rule="nonzero"></path>
                    <g id="Group-9" transform="translate(78.000000, 0.000000)">
                        <path d="M117.83278,92.9367532 C122.511001,104.027363 126.376765,110.396057 129.430074,112.042837 L97.1926545,172.9 C94.3528045,167.78385 76.4011244,127.667537 76.4011244,127.667537 C76.4011244,127.667537 56.2459244,133.855537 46.9197244,115.236287 C42.3892244,106.197387 34.5658244,86.7604366 27.7037744,69.1688366 C20.099984,49.6463716 29.4835814,27.6253456 48.8313744,19.5874866 C58.4407207,15.5924332 69.2576698,15.6554235 78.8198372,19.7621184 C88.3820047,23.8688133 95.8757093,31.6697584 99.5950744,41.3891366 C107.075324,64.6636049 113.154559,81.8461438 117.83278,92.9367532 Z" id="Path" fill="#FFBE9D" fill-rule="nonzero"></path>
                        <path d="M67.6,130.273 C67.6,130.273 82.069,124.631 92.3,108.173 C92.3,108.173 93.21,127.335 70.265,136.032 L67.6,130.273 Z" id="Path" fill="#000000" fill-rule="nonzero" opacity="0.42859468" filter="url(#filter-4)"></path>
                        <path d="M40.1497106,75.9243268 C40.8390477,78.4660988 42.5647629,79.5860465 44.0393106,78.4485837 C44.7538184,77.9649713 45.3258912,76.9982654 45.6255456,75.7681159 C45.9252001,74.5379664 45.9269907,73.1488327 45.6305106,71.9163465 C44.9411736,69.3745745 43.2154583,68.2546268 41.7409106,69.3920896 C41.0243918,69.8712907 40.450267,70.8375685 40.150235,72.069268 C39.850203,73.3009674 39.8500137,74.6923793 40.1497106,75.9243268 L40.1497106,75.9243268 Z" id="Path" fill="#263238" fill-rule="nonzero" transform="translate(42.888330, 73.920337) rotate(-15.000000) translate(-42.888330, -73.920337) "></path>
                        <path d="M66.6515838,67.4292029 C67.2979491,69.6812403 68.9055924,70.6681844 70.2773891,69.6551116 C70.9453133,69.229298 71.4805006,68.3706725 71.7601843,67.2761959 C72.039868,66.1817193 72.0400444,64.9453237 71.7606731,63.8506267 C71.1180872,61.5920319 69.5094109,60.5968568 68.1348678,61.6075957 C67.4680949,62.0409641 66.9347132,62.9031913 66.6555054,63.9990285 C66.3762977,65.0948658 66.3748838,66.3316095 66.6515838,67.4292029 Z" id="Path" fill="#263238" fill-rule="nonzero" transform="translate(69.207574, 65.632837) rotate(-12.000000) translate(-69.207574, -65.632837) "></path>
                        <path d="M64.9201744,90.3927175 C64.8538744,90.2388088 54.9641244,67.4911026 54.6105244,67.5217532 C54.2569244,67.5526661 54.6105244,74.7042904 55.4613744,83.4463047 C55.6934244,85.6010266 55.9033744,87.6531426 56.1133244,89.6026528 C56.0835982,90.6361482 56.4475067,91.6462468 57.1409744,92.4550941 C57.6102196,92.8437459 58.2459789,93.0102521 58.8647744,92.9065596 C59.326351,92.824253 59.7753635,92.6898691 60.2018244,92.506397 C63.1300744,91.357212 64.9864744,90.5568868 64.9201744,90.3927175 Z" id="Path" fill="#263238" fill-rule="nonzero" opacity="0.44187128" filter="url(#filter-5)"></path>
                        <path d="M74.8070415,88.3393 C74.7663634,88.2376049 68.8142581,73.2897321 62.9328722,64.1625771 C59.2283456,58.4136278 54.6110971,56.8498732 54.4744465,56.8625155 C54.1208465,56.8959784 54.6105244,73.3015366 55.4613744,82.7161366 C55.6934244,85.0366366 55.9033744,87.2466366 56.1133244,89.3461366 C56.0835982,90.4591462 56.4475067,91.5469589 57.1409744,92.4180366 C57.6102196,92.8365901 58.2459789,93.0159069 58.8647744,92.9042366 C59.326351,92.8155976 59.7753635,92.6708745 60.2018244,92.4732866 C63.1300744,91.2356866 74.8733415,88.5161 74.8070415,88.3393 Z" id="Path" fill="#FFBE9D" fill-rule="nonzero"></path>
                        <path d="M86.8896632,62.372478 C83.498793,79.4985408 78.4199217,89.1420116 71.6530494,91.3028904 C61.5027408,94.5442086 48.5018052,100.152537 45.5385495,100.152537 C43.5630457,100.152537 41.1392496,98.8578961 38.2671611,96.2686145 C42.3378287,113.945272 46.8370043,123.816044 51.7646877,125.88093 C59.1562128,128.978259 83.6784785,136.525796 99.7195295,105.55062 C104.162552,90.5820526 105.20323,80.4805818 102.841564,75.2462077 C100.479898,70.0118335 103.379142,67.6658967 111.539297,68.2083973 C113.560431,59.211105 113.864228,51.3673727 112.450687,44.6772004 C110.330376,34.6419421 102.841564,29.5639924 102.841564,25.6215941 C102.841564,21.6791959 98.1090509,8.0852769 86.8896632,6.55547548 C75.6702754,5.02567405 76.1910438,6.53923755 69.813181,4.42845112 C63.4353183,2.31766469 56.1515237,-2.49600681 49.1030973,1.60012611 C42.0546709,5.69625902 38.3984049,14.3537343 31.54165,11.1158746 C24.6848952,7.87801503 18.0826479,10.7392711 15.7275837,13.6876323 C13.3725195,16.6359935 7.87579775,22.831544 10.6241586,28.0292849 C13.3725195,33.2270257 11.9377901,36.8732725 8.93006089,36.8732725 C5.9223317,36.8732725 -3.80983229,49.4529791 1.61511844,57.2728255 C7.04006916,65.092672 17.8545663,69.0151361 25.0663387,62.372478 C32.2781111,55.7298199 30.120979,38.9218105 39.6120381,38.9218105 C49.1030973,38.9218105 59.0268413,38.2191582 61.9743674,34.3352357 C64.9218934,30.4513133 77.9039618,30.8823362 77.9039618,36.8732725 C77.9039618,42.8642088 72.5181973,48.9221093 77.9039618,53.0974674 C81.4944715,55.8810395 84.4897053,58.9727097 86.8896632,62.372478 Z" id="Path-14" fill="url(#linearGradient-6)"></path>
                        <path d="M75.8461713,99.8878366 C77.8765853,101.045216 78.0318523,103.128498 76.3119722,106.137684 C74.5920921,109.14687 71.9167231,111.091267 68.2858651,111.970875 C63.3173226,112.433827 60.1522655,110.663037 58.7906938,106.658505 C58.3607238,105.547421 59.6506338,104.609944 62.660424,103.846073 C65.6702141,103.082203 70.0654632,101.762791 75.8461713,99.8878366 Z" id="Path-9" fill="#6E3714"></path>
                        <path d="M75.1785733,99.8878366 C66.0938017,102.1218 60.9153822,103.510905 59.6433148,104.05515 C59.1098259,104.2834 58.7100744,104.64764 58.7100744,104.760074 C58.7100744,105.531931 70.5507732,106.755838 76.3900744,100.723239 C76.0918026,100.459551 75.8694801,100.27724 75.723107,100.176307 C75.6002577,100.091595 75.4187464,99.9954384 75.1785733,99.8878366 Z" id="Path-8" fill="#FFFFFF"></path>
                        <path d="M92.9650744,50.6406442 C93.2192244,50.3422942 104.015074,40.5851442 109.794224,53.5909942 C115.573374,66.5968442 101.352024,69.7460942 101.164174,69.3814442 C100.976324,69.0167942 92.9650744,50.6406442 92.9650744,50.6406442 Z" id="Path" fill="#FFBE9D" fill-rule="nonzero"></path>
                    </g>
                    <path d="M203.411,104.767 C203.995037,104.27896 204.763592,104.071334 205.513933,104.198892 C206.264274,104.32645 206.921045,104.776381 207.311,105.43 C211.119974,108.245986 214.247026,110.018181 216.692155,110.746584 C226.723962,113.735055 236.156289,113.930367 238.771,114.4 C250.59117,116.532266 304.805197,136.887874 336.231692,178.525021 C375.31439,230.305917 391.860729,306.00949 396.422,315.341 C397.135641,316.797384 396.969787,318.531309 395.993,319.826 C389.337,328.666 245.622,366.665 236.379,360.607 L236.379,360.607 L235.079,331.695 C224.088878,304.122818 214.233856,284.05431 205.513933,271.489477 C201.564192,265.798161 195.886197,259.010118 188.479947,251.125348 L187.59,272.519 C187.064428,286.560362 181.815147,300.013361 172.692,310.7 L172.393,311.051 C167.421378,316.741557 161.446096,321.469786 154.765,325 L87.516,360.75 L62.582,326.56 C103.712917,308.650912 126.971698,292.064383 132.358346,276.800413 C140.200323,254.578854 131.587213,221.187488 134.661651,196.013471 C137.85037,169.903698 152.629157,152.323145 155.495074,147.558296 C157.918274,143.529505 157.952457,136.458751 157.952457,136.458751 C164.208168,143.175397 169.298618,149.173106 173.223806,154.451878 C176.594971,148.047418 186.657592,131.485583 203.411,104.767 Z" id="Combined-Shape" fill="url(#linearGradient-7)" fill-rule="nonzero"></path>
                    <path d="M220.194,137.8 C222.18921,214.909957 217.02832,264.035181 204.711329,285.175673 C191.86032,307.232737 159.26921,322.903846 106.938,332.189 L114.060632,362.375772 C114.060632,362.375772 173.238,363.597 221.338,348.478 C255.933788,337.585374 280.476368,306.812043 283.4,270.66 C284.929462,251.709454 297.86309,203.205599 286.981337,176.840248 C272.982779,142.923205 232.986654,133.118869 220.194,137.8 Z" id="Path" fill="url(#linearGradient-8)" fill-rule="nonzero"></path>
                    <g id="Group" opacity="0.286830357" filter="url(#filter-9)" transform="translate(234.000000, 218.100000)" fill="#000000" fill-rule="nonzero">
                        <path d="M1.196,125.009 C7.15,127.401 13.806,124.736 19.656,122.097 C19.656,122.097 40.586,113.647 51.181,84.397 C56.082,70.838 60.424,56.954 60.424,42.537 C60.2189246,28.0834639 57.8167912,13.745182 53.3,0.014 C48.906,25.585 53.729,52.118 43.511,77.338 C35.1766149,97.6636528 20.0021396,114.438345 0.611,124.762" id="Path" opacity="0.814894903" filter="url(#filter-10)"></path>
                    </g>
                    <path d="M161.2,208 L184.717,278.369 C184.717,278.369 191.217,263.224 188.422,249.938 L161.2,208 Z" id="Path" fill="#000000" fill-rule="nonzero" opacity="0.286830357" filter="url(#filter-11)"></path>
                    <path d="M16.393,400.4 C19.0460127,402.457396 22.8170685,402.211942 25.181,399.828 C26.1716559,400.959755 26.6802345,402.434166 26.598,403.936 C26.5101122,405.41393 26.5929933,406.897065 26.845,408.356 C27.1261446,409.853815 28.3075927,411.019718 29.809,411.281 C31.1230993,411.269245 32.3169638,410.513635 32.89,409.331 C33.4258246,408.155821 33.7345825,406.889913 33.8,405.6 L34.697,398.19 C35.334,399.243 36.231,400.426 37.453,400.348 C38.948,400.257 39.611,398.411 39.689,396.903 C39.767,395.395 39.78,393.627 40.989,392.795 C41.301,393.926 43.043,394.095 43.901,393.25 C44.6570121,392.329463 45.0170052,391.146629 44.902,389.961 C44.7769421,388.781102 44.928269,387.588291 45.344,386.477 L33.189,387.322 L16.393,400.4 Z" id="Path" fill="url(#linearGradient-12)" fill-rule="nonzero"></path>
                    <path d="M3.705,341.9 C4.46799561,340.796632 5.66345271,340.068962 6.994,339.898 C9.1,339.651 12.48,339.196 14.222,338.793 C16.822,338.182 30.927,331.461 33.878,330.135 C37.7517418,328.829217 41.8151642,328.174676 45.903,328.198 C47.84,328.406 61.802,327.392 61.802,327.392 L83.902,348.27 C83.902,348.27 75.218,371.579 65,376.61 C57.9501284,380.180532 51.1057457,384.143069 44.499,388.479 L36.543,390 C36.543,390 21.463,401.271 17.511,400.517 C13.559,399.763 12.61,398.073 12.61,398.073 C12.61,398.073 7.735,400.881 5.161,398.385 C2.587,395.889 5.161,392.132 5.161,392.132 C5.161,392.132 1.261,391.677 0.754,389.857 C0.174550505,387.289155 0.91595305,384.60157 2.73,382.694 C5.018,380.094 20.709,363.051 24.05,360.763 C27.391,358.475 29.38,354.263 30.147,351.78 C30.914,349.297 28.626,345.696 24.362,347.672 C20.098,349.648 15.262,350.74 11.869,350.142 C6.851,349.284 -0.351,347.802 3.705,341.9 Z" id="Path" fill="#FFBE9D" fill-rule="nonzero"></path>
                    <path d="M29.107,370.305 C27.9653446,371.393644 26.7677198,372.422039 25.519,373.386 C23.283,375.258 20.241,377.884 17.017,380.939 C13.793,383.994 11.011,386.906 9.035,389.038 C8.01421243,390.23967 6.92472364,391.381246 5.772,392.457 C5.95698352,392.072593 6.19793634,391.717735 6.487,391.404 C6.981,390.741 7.787,389.831 8.684,388.713 C11.1667227,385.823948 13.796186,383.064314 16.562,380.445 C19.799,377.377 22.906,374.79 25.22,373.009 C26.377,372.125 27.339,371.423 28.015,370.968 C28.3424476,370.691753 28.7108453,370.468083 29.107,370.305 L29.107,370.305 Z" id="Path" fill="#EB996E" fill-rule="nonzero"></path>
                    <path d="M37.947,375.557 C37.6476807,375.882086 37.3067319,376.16621 36.933,376.402 L34.034,378.534 C31.577,380.315 28.184,382.772 24.531,385.619 C21.3588028,387.956622 18.3965743,390.566515 15.678,393.419 C14.6417959,394.672373 13.7276469,396.021831 12.948,397.449 C13.001898,396.991177 13.1478226,396.548981 13.377,396.149 C13.896165,395.051733 14.5465874,394.021534 15.314,393.081 C17.9518409,390.103618 20.902503,387.41882 24.115,385.073 C27.781,382.213 31.226,379.808 33.761,378.131 C35.061,377.286 36.062,376.623 36.777,376.181 C37.1392899,375.92476 37.5323761,375.715114 37.947,375.557 L37.947,375.557 Z" id="Path" fill="#EB996E" fill-rule="nonzero"></path>
                    <path d="M29.523,371.241 C29.6351169,372.318864 29.0352578,373.344939 28.041,373.776 C27.0764568,374.227209 25.9505986,374.168723 25.038,373.62 C24.414,373.243 23.842,372.658 23.114,372.684 C22.386,372.71 21.684,373.464 20.917,373.347 C20.1430471,373.148512 19.665769,372.372216 19.838,371.592 C20.1150093,370.765767 20.6772821,370.06523 21.424,369.616 C22.5650541,368.718683 24.0098247,368.299233 25.454,368.446 C27.898,368.68 29.289,370.084 29.523,371.241 Z" id="Path" fill="url(#linearGradient-13)" fill-rule="nonzero"></path>
                    <path d="M74.464,336.323 C72.6581389,333.917959 69.5517137,332.882484 66.664,333.723 C67.4241149,330.57543 66.1941838,327.281891 63.557,325.403 C60.879,323.739 56.719,324.714 55.562,327.639 C53.8875373,325.494985 51.0092086,324.696021 48.4692037,325.670188 C45.9291988,326.644354 44.3233254,329.163142 44.512,331.877 C44.512,331.877 38.987,327.431 35.061,333.073 C37.7001773,334.805327 40.796293,335.710624 43.953,335.673 C44.058648,339.012642 46.1917947,341.949583 49.335,343.083 C54.73,344.981 57.356,341.913 57.356,341.913 C57.356,341.913 58.396,349.414 62.907,348.803 L73.827,344.825 L74.451,344.526 C76.1567673,342.059173 76.16194,338.795221 74.464,336.323 L74.464,336.323 Z M61.62,325.351 C61.7636419,325.350957 61.9012205,325.408893 62.0015596,325.51168 C62.1018987,325.614466 62.1565035,325.753401 62.153,325.897 C62.153,326.03836 62.0968448,326.173931 61.9968879,326.273888 C61.896931,326.373845 61.7613604,326.43 61.62,326.43 C61.4764008,326.433503 61.3374663,326.378899 61.2346799,326.27856 C61.1318935,326.17822 61.0739573,326.040642 61.074,325.897 C61.074,325.595453 61.3184525,325.351 61.62,325.351 L61.62,325.351 Z M59.8,329.043 C59.6563581,329.043043 59.5187795,328.985107 59.4184404,328.88232 C59.3181013,328.779534 59.2634965,328.640599 59.267,328.497 C59.267,328.202632 59.5056322,327.964 59.8,327.964 C59.9435992,327.960497 60.0825337,328.015101 60.1853201,328.11544 C60.2881065,328.21578 60.3460427,328.353358 60.346,328.497 C60.346,328.641808 60.2884752,328.780685 60.1860803,328.88308 C60.0836854,328.985475 59.9448082,329.043 59.8,329.043 Z M59.878,327.431 C59.325163,327.431 58.877,326.982837 58.877,326.43 C58.877,325.877163 59.325163,325.429 59.878,325.429 C60.430837,325.429 60.8790046,325.877163 60.8790046,326.43 C60.8798501,326.709566 60.7637497,326.976748 60.558797,327.166885 C60.3538443,327.357022 60.0787167,327.452786 59.8,327.431 L59.878,327.431 Z M61.932,333.099 C61.5248151,333.104255 61.1550308,332.862316 60.9967707,332.487108 C60.8385107,332.1119 60.9233223,331.678217 61.2112695,331.390269 C61.4992166,331.102322 61.9329005,331.017511 62.3081083,331.175771 C62.6833162,331.334031 62.9252547,331.703815 62.92,332.111 C62.920376,332.382297 62.8091761,332.641813 62.6124854,332.828669 C62.4157948,333.015525 62.1509216,333.113279 61.88,333.099 L61.932,333.099 Z M62.699,330.421 C61.8880873,330.420983 61.1572764,329.931793 60.848182,329.182099 C60.5390876,328.432406 60.7127665,327.5703 61.2880331,326.998769 C61.8632997,326.427237 62.7265191,326.259179 63.4741829,326.57315 C64.2218468,326.887122 64.7062657,327.621104 64.701,328.432 C64.7012879,328.970973 64.4828341,329.486989 64.0956454,329.861925 C63.7084566,330.236861 63.1856853,330.438614 62.647,330.421 L62.699,330.421 Z M65.299,338.221 C64.8929919,338.226273 64.5240201,337.985759 64.3649799,337.61216 C64.2059398,337.23856 64.2883425,336.805897 64.5735751,336.516912 C64.8588077,336.227926 65.2903563,336.139875 65.6660028,336.294018 C66.0416494,336.448161 66.2869658,336.813958 66.287,337.22 C66.2768583,337.482104 66.1629068,337.729418 65.9702609,337.907433 C65.777615,338.085448 65.5220884,338.17955 65.26,338.169 L65.299,338.221 Z M67.054,336.349 C66.7524525,336.349 66.508,336.104547 66.508,335.803 C66.508,335.501453 66.7524525,335.257 67.054,335.257 C67.3555475,335.257 67.6,335.501453 67.6,335.803 C67.5724753,336.099714 67.3121325,336.319559 67.015,336.297 L67.054,336.349 Z M69.355,338.637 C68.5724125,338.637 67.938,338.002587 67.938,337.22 C67.938,336.437413 68.5724125,335.803 69.355,335.803 C70.1375875,335.803 70.772,336.437413 70.772,337.22 C70.743755,337.997584 70.0937875,338.606928 69.316,338.585 L69.355,338.637 Z M71.214,339.508 C70.9931636,339.508 70.7940722,339.374971 70.7095618,339.170945 C70.6250513,338.966919 70.6717648,338.732075 70.8279197,338.57592 C70.9840746,338.419765 71.2189189,338.373051 71.4229452,338.457562 C71.6269714,338.542072 71.76,338.741164 71.76,338.962 C71.7324753,339.258714 71.4721325,339.478559 71.175,339.456 L71.214,339.508 Z" id="Shape" fill="url(#linearGradient-14)" fill-rule="nonzero"></path>
                    <path d="M63.388,369.733 C62.4819637,368.901888 61.2512999,368.520287 60.034,368.693 C58.8410695,368.876794 57.6808265,369.231434 56.589,369.746 C55.9040942,367.654174 53.9418488,366.248019 51.7408791,366.271813 C49.5399093,366.295608 47.6085223,367.743855 46.969,369.85 C45.7564047,369.069402 44.2832486,368.80283 42.874,369.109 C41.4576783,369.449276 40.3405957,370.536437 39.962,371.943 C39.6381786,373.377759 40.3431594,374.846918 41.665,375.492 C42.5177748,375.719989 43.3871015,375.880815 44.265,375.973 C45.11,376.181 45.994,376.857 45.916,377.728 C45.7785912,378.280093 45.5060857,378.789366 45.123,379.21 C44.1453521,380.84052 44.4858432,382.938385 45.929,384.176 L43.992,385.476 C43.03,387.53 44.759,388.934 46.982,389.376 C48.1030214,389.526862 49.2343181,389.183589 50.08248,388.435211 C50.9306419,387.686833 51.4121056,386.607082 51.402,385.476 C53.8736735,386.568298 56.7545846,386.127031 58.786,384.345 C60.7395348,382.420591 60.8199639,379.295345 58.968,377.273 C60.7260833,376.971292 62.3175289,376.048714 63.453,374.673 C64.610056,373.220812 64.5828643,371.154242 63.388,369.733 Z M56.459,381.94 C56.5612195,381.936473 56.660485,381.97463 56.7340234,382.045717 C56.8075618,382.116804 56.8490608,382.21472 56.849,382.317 C56.8774466,382.470854 56.8111922,382.626815 56.6807087,382.713153 C56.5502253,382.799491 56.3807747,382.799491 56.2502913,382.713153 C56.1198078,382.626815 56.0535534,382.470854 56.082,382.317 C56.082,382.108789 56.2507886,381.94 56.459,381.94 L56.459,381.94 Z M54.288,368.381 C55.0059702,368.381 55.588,368.96303 55.588,369.681 C55.588,370.39897 55.0059702,370.981 54.288,370.981 C53.5700298,370.981 52.988,370.39897 52.988,369.681 C52.988,368.96303 53.5700298,368.381 54.288,368.381 Z M51.558,368.004 C51.6947028,368.000494 51.8270254,368.052358 51.9249368,368.147821 C52.0228482,368.243285 52.078045,368.374252 52.078,368.511 C52.1103947,368.713956 52.02021,368.916951 51.8478866,369.028957 C51.6755632,369.140963 51.4534368,369.140963 51.2811134,369.028957 C51.10879,368.916951 51.0186053,368.713956 51.051,368.511 C51.051,368.230992 51.2779916,368.004 51.558,368.004 Z M48.269,388.089 C47.6935449,388.094256 47.1720634,387.750956 46.9494116,387.220294 C46.7267598,386.689632 46.8471636,386.077014 47.2540888,385.670089 C47.661014,385.263164 48.2736316,385.14276 48.8042938,385.365412 C49.3349561,385.588063 49.6782556,386.109545 49.673,386.685 C49.6659451,387.457467 49.0414667,388.081945 48.269,388.089 L48.269,388.089 Z M50.869,384.423 C50.4453976,384.423 50.102,384.079602 50.102,383.656 C50.1089549,383.235312 50.4483121,382.895955 50.869,382.889 C51.072421,382.889 51.2675105,382.969809 51.4113509,383.113649 C51.5551913,383.25749 51.636,383.452579 51.636,383.656 C51.6433386,384.067507 51.3193302,384.408873 50.908,384.423 L50.869,384.423 Z M51.584,371.423 C51.1404487,371.368913 50.8070035,370.992337 50.8070035,370.5455 C50.8070035,370.098663 51.1404487,369.722087 51.584,369.668 C51.9230028,369.626662 52.2554942,369.784292 52.4380709,370.072905 C52.6206477,370.361518 52.6206477,370.729482 52.4380709,371.018095 C52.2554942,371.306708 51.9230028,371.464338 51.584,371.423 Z M53.846,384.072 C52.9987952,384.072 52.312,383.385205 52.312,382.538 C52.312,381.690795 52.9987952,381.004 53.846,381.004 C54.6932048,381.004 55.38,381.690795 55.38,382.538 C55.394002,382.947094 55.2439216,383.344817 54.9631504,383.642679 C54.6823791,383.94054 54.2942074,384.113833 53.885,384.124 L53.846,384.072 Z M56.225,384.761 C55.8013976,384.761 55.458,384.417602 55.458,383.994 C55.4649549,383.573312 55.8043121,383.233955 56.225,383.227 C56.6486024,383.227 56.992,383.570398 56.992,383.994 C57.0062345,384.198377 56.9366905,384.399747 56.7993675,384.551784 C56.6620446,384.70382 56.4687668,384.793431 56.264,384.8 L56.225,384.761 Z M57.707,383.916 C57.4965853,383.916117 57.3240138,383.749298 57.317,383.539 C57.3237521,383.326469 57.4944686,383.155752 57.707,383.149 C57.9172978,383.156014 58.0841169,383.328585 58.084,383.539 C58.0986865,383.641165 58.0708434,383.744884 58.0069664,383.825958 C57.9430893,383.907033 57.8487652,383.958373 57.746,383.968 L57.707,383.916 Z M59.111,371.475 C58.7301084,371.480254 58.3840274,371.254154 58.2358288,370.903236 C58.0876303,370.552319 58.1668805,370.146594 58.4362371,369.877237 C58.7055937,369.60788 59.1113188,369.52863 59.4622364,369.676829 C59.8131541,369.825027 60.0392544,370.171108 60.034,370.552 C60.0481448,370.79904 59.9625045,371.041415 59.7962984,371.224731 C59.6300924,371.408046 59.3972408,371.516949 59.15,371.527 L59.111,371.475 Z M60.489,370.071 C60.310546,370.101492 60.1309939,370.023287 60.031778,369.871855 C59.9325622,369.720422 59.9325622,369.524578 60.031778,369.373145 C60.1309939,369.221713 60.310546,369.143508 60.489,369.174 C60.707552,369.211343 60.8673661,369.400781 60.8673661,369.6225 C60.8673661,369.844219 60.707552,370.033657 60.489,370.071 Z" id="Shape" fill="url(#linearGradient-15)" fill-rule="nonzero"></path>
                    <path d="M51.168,359.164 C51.2720458,358.061734 51.0215574,356.955031 50.453,356.005 C50.1496602,355.55412 49.6607115,355.262375 49.1198627,355.209548 C48.5790139,355.156721 48.0428532,355.348339 47.658,355.732 C48.3543808,354.200407 47.9476014,352.392575 46.6623054,351.306878 C45.3770094,350.221181 43.5266148,350.122364 42.133,351.065 C41.0189021,349.572457 39.0049305,349.075971 37.3247609,349.879667 C35.6445913,350.683364 34.767183,352.562922 35.23,354.367 C33.8593284,354.492752 32.6135131,355.215515 31.824,356.343 C31.0421229,357.483824 30.8131072,358.915173 31.2,360.243 C31.2,360.243 27.521,361.114 29.107,363.48 C30.693,365.846 38.636,364.897 38.636,364.897 C38.636,364.897 36.4,367.016 39.936,367.497 C42.1907836,367.683582 44.4154845,366.881931 46.033,365.3 C46.033,365.3 50.687,365.053 51.727,364.208 C52.767,363.363 51.168,359.164 51.168,359.164 Z M32.292,357.565 C32.435594,357.565 32.552,357.681406 32.552,357.825 C32.552,357.968594 32.435594,358.085 32.292,358.085 C32.148406,358.085 32.032,357.968594 32.032,357.825 C32.032,357.681406 32.148406,357.565 32.292,357.565 L32.292,357.565 Z M32.292,359.554 C32.0048119,359.554 31.772,359.321188 31.772,359.034 C31.772,358.746812 32.0048119,358.514 32.292,358.514 C32.5791881,358.514 32.812,358.746812 32.812,359.034 C32.8140666,359.297608 32.618549,359.521056 32.357,359.554 L32.292,359.554 Z M33.852,358.852 C33.1340298,358.852 32.552,358.26997 32.552,357.552 C32.552,356.83403 33.1340298,356.252 33.852,356.252 C34.5699702,356.252 35.152,356.83403 35.152,357.552 C35.1258711,358.225152 34.5898413,358.766824 33.917,358.8 L33.852,358.852 Z M44.434,355.381 C44.1396322,355.381 43.901,355.142368 43.901,354.848 C43.901,354.553632 44.1396322,354.315 44.434,354.315 C44.7283678,354.315 44.967,354.553632 44.967,354.848 C44.967,355.142368 44.7283678,355.381 44.434,355.381 Z M44.057,352.781 C44.057,352.06303 44.6390298,351.481 45.357,351.481 C46.0749702,351.481 46.657,352.06303 46.657,352.781 C46.657,353.49897 46.0749702,354.081 45.357,354.081 C44.6695294,354.04661 44.1280237,353.482304 44.122,352.794 L44.057,352.781 Z M46.163,355.784 C45.9654044,355.787561 45.774852,355.710636 45.6351081,355.570892 C45.4953642,355.431148 45.4184388,355.240596 45.422,355.043 C45.422,354.633757 45.753757,354.302 46.163,354.302 C46.5693305,354.308947 46.8970527,354.636669 46.904,355.043 C46.9123421,355.433119 46.6167121,355.76286 46.228,355.797 L46.163,355.784 Z" id="Shape" fill="url(#linearGradient-16)" fill-rule="nonzero"></path>
                    <path d="M106.873,332.202 L115.297,362.83 C115.297,362.83 96.889,377.52 95.797,378.43 C94.7571637,379.40059 93.438142,380.019165 92.027,380.198 C91.013,380.107 89.336,378.898 88.127,378.599 C86.918,378.3 83.85,377.923 83.018,378.352 C80.9693778,379.325347 78.7724175,379.949284 76.518,380.198 C73.658,380.445 67.782,384.722 64.818,382.876 C63.1636224,381.957957 62.0017763,380.353276 61.646,378.495 C61.646,378.495 67.47,376.155 68.328,374.595 C69.186,373.035 73.528,366.418 74.048,364.91 C74.4401226,362.834243 74.6618614,360.729898 74.711,358.618 C74.711,358.618 66.573,358.696 64.987,359.294 C63.401,359.892 61.958,361.036 58.942,362.128 C55.926,363.22 50.128,364.143 49.127,362.128 C48.126,360.113 47.827,357.747 48.282,357.11 C48.282,357.11 54.496,350.311 55.835,349.31 C57.174,348.309 73.281,340.665 76.817,338.819 C80.353,336.973 93.275,327.886 106.847,332.176" id="Path" fill="#FFBE9D" fill-rule="nonzero"></path>
                    <path d="M106.873,332.202 L106.561,332.137 L105.664,331.942 C105.261,331.851 104.78,331.708 104.182,331.604 L102.128,331.318 C97.6217529,330.949907 93.0897806,331.580211 88.855,333.164 C85.8458734,334.235352 82.9430158,335.584506 80.184,337.194 C77.207,339.027 73.775,340.652 70.187,342.394 C66.599,344.136 62.751,346.021 58.773,348.049 C57.779748,348.534952 56.8199581,349.086505 55.9,349.7 C55.068,350.428 54.262,351.273 53.456,352.105 C51.831,353.795 50.206,355.55 48.568,357.305 L48.568,357.305 C48.4137355,357.82841 48.3869905,358.381141 48.49,358.917 C48.5670108,359.522199 48.7019636,360.118603 48.893,360.698 C48.984,360.984 49.101,361.27 49.218,361.556 C49.335,361.842 49.348,361.829 49.413,361.972 C49.478,362.115 49.556,362.167 49.621,362.284 C50.0632242,362.653568 50.6071963,362.880223 51.181,362.934 C52.4411074,363.07609 53.7150817,363.036689 54.964,362.817 C56.2562623,362.626642 57.5273743,362.313217 58.76,361.881 C60.0159413,361.429902 61.2332592,360.877761 62.4,360.23 C62.998,359.918 63.596,359.58 64.233,359.281 C64.8860741,358.968385 65.5911981,358.778883 66.313,358.722 C69.095,358.423 71.89,358.358 74.737,358.306 L75.088,358.306 L75.088,358.657 C75.0400178,360.502412 74.8793855,362.343171 74.607,364.169 C74.5293976,364.664487 74.3805225,365.146142 74.165,365.599 C73.957,366.041 73.723,366.457 73.476,366.899 C73.008,367.731 72.514,368.55 72.007,369.369 L70.109,372.424 L69.173,373.945 L68.718,374.712 C68.5472331,374.99583 68.3371492,375.254058 68.094,375.479 C67.1442218,376.232811 66.1103335,376.874084 65.013,377.39 C63.96,377.923 62.894,378.391 61.815,378.833 L62.023,378.495 C62.3132829,379.920706 63.1069827,381.194317 64.259,382.083 C64.7732433,382.561103 65.4139718,382.881467 66.105,383.006 C66.8115189,383.064897 67.5229143,383.007809 68.211,382.837 C69.6239128,382.448871 71.0022831,381.944483 72.332,381.329 C73.671966,380.662049 75.0983565,380.185127 76.57,379.912 C77.9716051,379.764004 79.350628,379.449796 80.678,378.976 C81.3369668,378.755289 81.9835697,378.499252 82.615,378.209 C83.307101,377.913189 84.0638969,377.801237 84.812,377.884 C86.2344588,377.897969 87.6446932,378.148385 88.985,378.625 C89.622,378.911 90.22,379.236 90.818,379.509 C91.3361121,379.835985 91.9530514,379.969501 92.56,379.886 C93.7862451,379.544626 94.9136391,378.916315 95.849,378.053 L98.8,375.7 L104.585,371.085 L115.102,362.713 L115.024,362.96 L108.953,340.509 C108.264,337.909 107.718,335.829 107.341,334.399 C107.172,333.723 107.042,333.203 106.938,332.813 C106.882343,332.634972 106.843178,332.452202 106.821,332.267 C106.903245,332.43201 106.964393,332.606717 107.003,332.787 L107.471,334.36 C107.874,335.79 108.459,337.831 109.213,340.444 C110.695,345.761 112.84,353.444 115.479,362.83 L115.479,362.986 L115.362,363.09 L104.897,371.501 L99.138,376.142 L96.2,378.482 C95.1821173,379.40819 93.9626007,380.08471 92.638,380.458 C92.2672293,380.554921 91.8777707,380.554921 91.507,380.458 C91.1733268,380.35603 90.8474748,380.230034 90.532,380.081 C89.908,379.795 89.31,379.47 88.699,379.21 C87.4440849,378.775345 86.1269934,378.547049 84.799,378.534 C84.150215,378.449821 83.490713,378.539549 82.888,378.794 C82.2350638,379.097129 81.5668312,379.366158 80.886,379.6 C79.5073097,380.086771 78.0761404,380.409656 76.622,380.562 C75.2235517,380.840772 73.8683545,381.304162 72.592,381.94 C71.2283845,382.573914 69.8153741,383.095641 68.367,383.5 C67.5972868,383.6851 66.8030219,383.746534 66.014,383.682 C65.2065816,383.531539 64.4557708,383.162877 63.843,382.616 C62.5354733,381.629338 61.6486746,380.185388 61.36,378.573 L61.36,378.326 L61.607,378.235 C62.66,377.793 63.726,377.312 64.753,376.792 C65.7961771,376.307733 66.7780702,375.701142 67.678,374.985 C67.8736108,374.813391 68.0404,374.611488 68.172,374.387 L68.627,373.607 L69.576,372.086 L71.474,369.031 C71.968,368.212 72.462,367.393 72.93,366.574 C73.4358992,365.820932 73.793303,364.978165 73.983,364.091 C74.247003,362.294954 74.4032824,360.484718 74.451,358.67 L74.789,359.021 C71.968,359.021 69.16,359.125 66.443,359.424 C65.7901278,359.474302 65.1516277,359.641633 64.558,359.918 C63.96,360.204 63.362,360.529 62.764,360.854 C61.5642543,361.50966 60.3171017,362.074572 59.033,362.544 C57.7646392,362.978531 56.4592055,363.296187 55.133,363.493 C53.8148975,363.722517 52.4702673,363.757556 51.142,363.597 C50.4316471,363.534173 49.7609574,363.242172 49.231,362.765 C49.0088501,362.485259 48.8292447,362.174235 48.698,361.842 C48.5660403,361.541745 48.4531496,361.233467 48.36,360.919 C48.1514114,360.307416 48.0076229,359.675618 47.931,359.034 C47.7953048,358.354568 47.8584981,357.650414 48.113,357.006 L48.113,357.006 L48.113,357.006 C49.777,355.212 51.402,353.457 53.027,351.806 C53.859,350.974 54.652,350.142 55.536,349.362 C56.4982864,348.72507 57.5063704,348.160195 58.552,347.672 C62.556,345.657 66.352,343.772 69.992,342.069 C73.632,340.366 76.999,338.741 80.002,336.869 C82.7954564,335.263064 85.7333089,333.922532 88.777,332.865 C93.0666858,331.307122 97.6518269,330.733979 102.193,331.188 L104.26,331.513 C104.845,331.643 105.326,331.799 105.729,331.903 L106.613,332.163 C106.701217,332.161682 106.789052,332.174857 106.873,332.202 Z" id="Path" fill="#EB996E" fill-rule="nonzero"></path>
                    <path d="M88.049,372.853 C87.8139662,373.524876 87.4618688,374.149848 87.009,374.699 C86.0746329,376.147228 84.8642846,377.397332 83.447,378.378 C82.0051044,379.347005 80.3505532,379.953525 78.624,380.146 C77.9256768,380.296437 77.2033232,380.296437 76.505,380.146 C77.1682596,379.928636 77.8522379,379.780514 78.546,379.704 C80.1596267,379.381392 81.6957579,378.750166 83.07,377.845 C84.4190767,376.891871 85.6194499,375.744069 86.632,374.439 C87.451,373.412 87.971,372.801 88.049,372.853 Z" id="Path" fill="#EB996E" fill-rule="nonzero"></path>
                    <path d="M72.137,355.069 C72.228,354.913 73.164,355.394 73.762,356.486 C74.36,357.578 74.295,358.605 74.113,358.605 C73.931,358.605 73.697,357.747 73.164,356.811 C72.631,355.875 72.02,355.225 72.137,355.069 Z" id="Path" fill="#EB996E" fill-rule="nonzero"></path>
                    <circle id="Oval" fill="url(#linearGradient-17)" fill-rule="nonzero" cx="43.966" cy="401.765" r="2.028"></circle>
                    <path d="M18.291,374.166 C18.3503693,374.883977 18.0009133,375.574325 17.3871459,375.951558 C16.7733785,376.328791 15.9996215,376.328791 15.3858541,375.951558 C14.7720867,375.574325 14.4226307,374.883977 14.482,374.166 C14.5639435,373.175024 15.3921414,372.412483 16.3865,372.412483 C17.3808586,372.412483 18.2090565,373.175024 18.291,374.166 Z" id="Path" fill="url(#linearGradient-18)" fill-rule="nonzero"></path>
                </g>
                <g id="Tap--inject-197" transform="translate(0.000000, 353.600000)" fill-rule="nonzero">
                    <polyline id="Path" fill="url(#linearGradient-19)" points="118.976 70.655 118.976 22.945 126.945 22.945 126.802 60.06 127.192 69.706"></polyline>
                    <path d="M121.017,46.254 C120.566331,40.8684116 120.566331,35.4545884 121.017,30.069 C121.467669,35.4545884 121.467669,40.8684116 121.017,46.254 L121.017,46.254 Z" id="Path" fill="#263238" filter="url(#filter-20)"></path>
                    <path d="M124.189,50.96 C123.736823,45.76983 123.736823,40.55017 124.189,35.36 C124.641177,40.55017 124.641177,45.76983 124.189,50.96 L124.189,50.96 Z" id="Path" fill="#263238" filter="url(#filter-21)"></path>
                    <path d="M69.888,76.921 C69.797,76.765 69.745,76.635 69.771,76.622 C69.8579493,76.6877245 69.9290311,76.7721341 69.979,76.869 C70.07,77.012 70.122,77.142 70.096,77.155 C70.07,77.168 69.979,77.064 69.888,76.921 Z" id="Path" fill="#263238"></path>
                    <path d="M40.885,17.134 C40.885,16.38 39.585,4.329 49.686,3.952 C59.787,3.575 119.015,-0.338 123.695,0.429 C128.375,1.196 131.326,2.886 131.326,8.515 L131.326,11.024 C131.869766,15.2736789 130.695246,19.5646549 128.063,22.945 L118.391,22.945 C118.391,22.945 113.932,16.809 114.933,11.388 L56.433,14.144 C55.2436599,14.069816 54.194466,14.9159402 54.015,16.094 C53.885,16.822 55.393,97.513 55.393,97.513 L55.393,97.513 C51.2532895,100.970451 45.2327105,100.970451 41.093,97.513 L40.833,97.292 L40.885,17.134 Z" id="Path" fill="#E0E0E0"></path>
                    <path d="M22.932,77.584 C23.581852,76.3168689 24.7084869,75.359816 26.0640236,74.9234112 C27.4195603,74.4870064 28.8929432,74.6070032 30.16,75.257 L43.797,82.095 C46.7094336,83.8343645 48.4995381,86.970746 48.516,90.363 C48.516,95.303 42.809,94.159 42.809,94.159 L25.142,85.982 C22.8311723,84.9276142 21.5655273,82.4071418 22.1,79.924 C22.2777277,79.1583615 22.5347835,78.4133354 22.867,77.701 L22.932,77.584 Z" id="Path" fill="#E0E0E0"></path>
                    <path d="M16.185,77.194 C14.638,76.518 16.38,70.694 17.108,69.147 L21.398,60.138 C21.9865357,58.6301719 23.4885805,57.6815121 25.103,57.798 C26.1307865,57.8646977 27.0078909,58.5653432 27.3,59.553 C27.5852212,60.4526346 27.505862,61.428286 27.079,62.27 L22.529,71.708 C21.827,73.151 18.538,77.844 17.069,77.194 L16.185,77.194 Z" id="Path" fill="#EBEBEB"></path>
                    <path d="M18.486,73.372 C20.059,73.97 18.59,79.872 17.94,81.458 L14.04,90.649 C13.5209913,92.1854474 12.0601066,93.2033201 10.439,93.158 C9.4298723,93.123085 8.54868735,92.464788 8.229,91.507 C7.90036867,90.6246854 7.93306895,89.6483484 8.32,88.79 L12.415,79.144 C13.039,77.662 16.12,72.839 17.615,73.411 L18.486,73.372 Z" id="Path" fill="#EBEBEB"></path>
                    <path d="M23.816,83.291 L11.336,78.715 L15.561,69.615 L27.885,75.569 C29.237,79.651 27.755,82.147 23.816,83.291 Z" id="Path" fill="#E0E0E0"></path>
                    <path d="M10.4,75.14 L1.729,71.877 C0.969380977,71.5638352 0.482817151,70.8132846 0.507,69.992 C0.585,68.562 1.261,67.496 2.834,67.535 L12.896,71.5" id="Path" fill="#EBEBEB"></path>
                    <path d="M15.327,69.823 C17.303,70.551 18.148,73.203 17.212,75.738 C16.276,78.273 13.91,79.742 11.934,79.014 C9.958,78.286 9.126,75.647 10.062,73.099 C10.998,70.551 13.364,69.095 15.327,69.823 Z" id="Path" fill="#E0E0E0"></path>
                    <path d="M14.482,69.576 C14.482,69.576 14.703,69.472 15.106,69.576 C15.6869799,69.6929178 16.2127679,69.9992464 16.601,70.447 C17.1972649,71.0996066 17.5745359,71.9223301 17.68,72.8 C17.8071255,73.8466456 17.6777392,74.908506 17.303,75.894 C16.9550105,76.9010349 16.3060765,77.7768689 15.444,78.403 C14.7369258,78.9130532 13.8968595,79.2066248 13.026,79.248 C11.492,79.248 10.816,78.429 10.894,78.416 C11.5583351,78.6820534 12.2722158,78.8017725 12.987,78.767 C14.7054997,78.5112985 16.1335035,77.3095629 16.679,75.66 C17.3803501,74.0672041 17.2133854,72.2256813 16.237,70.785 C15.7862662,70.2153498 15.1748683,69.7941646 14.482,69.576 L14.482,69.576 Z" id="Path" fill="#263238" opacity="0.328264509" filter="url(#filter-22)"></path>
                    <path d="M27.547,75.062 C27.547,75.062 28.223,75.413 28.73,76.466 C29.3731644,77.882443 29.3154239,79.5184249 28.574,80.886 C27.7963953,82.2318549 26.4264708,83.129059 24.882,83.304 C23.712,83.421 23.036,83.083 23.062,83.018 C23.088,82.953 23.764,83.018 24.804,82.836 C26.1365351,82.5786466 27.2896529,81.7509133 27.9597586,80.5707273 C28.6298642,79.3905413 28.749804,77.976173 28.288,76.7 C27.95,75.647 27.469,75.14 27.547,75.062 Z" id="Path" fill="#263238" opacity="0.328264509" filter="url(#filter-23)"></path>
                    <path d="M18.2,75.764 C18.7506817,74.4479607 20.2589501,73.8214492 21.58,74.36 L29.38,77.727 C30.6882974,78.182194 31.5474234,79.4366233 31.499,80.821 C31.4536921,81.68302 30.886934,82.4301102 30.069,82.706 C29.3107038,82.9843502 28.4724421,82.946886 27.742,82.602 L19.5,79.027 C18.2864336,78.4406816 17.7221017,77.0242087 18.2,75.764 L18.2,75.764 Z" id="Path" fill="#EBEBEB"></path>
                    <path d="M22.243,82.849 C22.243,83.031 22.243,83.187 22.243,83.187 C22.243,83.187 22.243,83.031 22.243,82.849 C22.243,82.667 22.243,82.511 22.243,82.511 C22.243,82.511 22.243,82.667 22.243,82.849 Z" id="Path" fill="#263238"></path>
                    <path d="M39.806,80.496 C40.138684,80.3961417 40.4890507,80.3695315 40.833,80.418 C41.7841964,80.4614633 42.7208394,80.6681404 43.602,81.029 C44.9265066,81.5546953 46.1040489,82.3932481 47.034,83.473 C48.1781838,84.803159 48.9219255,86.4303756 49.179,88.166 C49.5059892,89.9201475 49.1527182,91.7329853 48.191,93.236 C47.7375212,93.8920071 47.0996038,94.3987216 46.358,94.692 C45.7154687,94.9333719 45.0225736,95.0093668 44.343,94.913 C43.4044337,94.7742113 42.4978066,94.4705352 41.665,94.016 C41.067,93.717 40.768,93.509 40.794,93.47 C40.82,93.431 41.158,93.548 41.769,93.782 C42.6009869,94.1192444 43.4761906,94.3380454 44.369,94.432 C45.6669165,94.5848251 46.9384107,93.9843973 47.645,92.885 C48.4901612,91.5002174 48.7869302,89.8494395 48.477,88.257 C48.041528,85.2761334 46.1222329,82.7203374 43.381,81.471 C42.2347734,80.9978418 41.0337371,80.6702864 39.806,80.496 Z" id="Path" fill="#263238" opacity="0.380603609" filter="url(#filter-24)"></path>
                </g>
            </g>
        </g>
    </g>
</svg>