<?xml version="1.0" encoding="UTF-8"?>
<svg width="260px" height="224px" viewBox="0 0 260 224" version="1.1" xmlns="http://www.w3.org/2000/svg" xmlns:xlink="http://www.w3.org/1999/xlink">
    <!-- Generator: Sketch 64 (93537) - https://sketch.com -->
    <title>Hand_Wash</title>
    <desc>Created with Sketch.</desc>
    <g id="Page-1" stroke="none" stroke-width="1" fill="none" fill-rule="evenodd">
        <g id="Icons-01" transform="translate(1.000000, -3.000000)" fill-rule="nonzero">
            <g id="Hand_Wash" transform="translate(0.000000, 3.000000)">
                <path d="M53.6,188.1 C65.44,169.21 78.03,149.57 97.3,138.39 C106.36,133.13 116.49,130.01 125.92,125.45 C142.1,117.63 154.85,110.45 168.46,98.65 C174.18,93.71 181.22,83.65 184.01,76.65 C186.69,69.9 189.42,58.87 188.38,51.65 C186.38,37.83 183.67,25.08 172.71,16.48 C157.52,4.57 132.22,15.58 118.11,28.89 C101.9,44.17 100.24,82.48 81.2,79.24 C76.08,78.37 83.51,66.68 83.03,61.5 C83.0263229,60.1482531 82.6602812,58.8222155 81.97,57.66 C81.3157025,56.8550179 80.4600903,56.2374591 79.49,55.87 C70.17,51.78 59.27,58.1 55.18,67.47 C51.09,76.84 51.43,87.47 49.75,97.47 C47.43,111.34 42.58,117.47 36.45,130.11 C33.45,136.31 30.05,142.92 23.94,146.11" id="Path" stroke="#0D0D0D" stroke-width="2" fill="#FFFFFF" stroke-linecap="round"></path>
                <path d="M0,176.77 C0,170.27 2.49,164.04 5.21,158.13 C11.8576236,143.724557 20.2541637,130.192693 30.21,117.84 C33.12,114.23 36.39,110.57 40.78,109.14 C46.07,107.41 51.89,109.31 56.6,112.23 C64.79,117.31 70.74,125.23 76.49,132.99 C81.95,140.33 89.07,148.63 87.3,157.63 C86.43,162.04 83.15,170.49 81.15,174.5 C72.08,192.73 58.44,208.41 43.98,222.74" id="Path" stroke="#0D0D0D" stroke-width="2" fill="#FFFFFF" stroke-linecap="round"></path>
                <path d="M0,176.77 C0,170.27 2.49,164.04 5.21,158.13 C11.8576236,143.724557 20.2541637,130.192693 30.21,117.84 C33.12,114.23 36.39,110.57 40.78,109.14 C46.07,107.41 51.89,109.31 56.6,112.23 C64.79,117.31 70.74,125.23 76.49,132.99 C81.95,140.33 89.07,148.63 87.3,157.63 C86.43,162.04 83.15,170.49 81.15,174.5 C72.08,192.73 58.44,208.41 43.98,222.74" id="Path"></path>
                <path d="M180.21,67.19 C180.279998,66.5820081 180.279998,65.9679919 180.21,65.36 C179.54,58.89 176.15,56.92 172.05,55.81 C171.720415,55.7250808 171.464639,55.4651413 171.385052,55.134228 C171.305465,54.8033146 171.415072,54.4554983 171.67,54.23 C174.39,51.79 176.94,49.23 178.06,45.93 C178.537444,44.6991552 178.621298,43.3505076 178.3,42.07 C177.918303,40.9911579 177.267811,40.027465 176.41,39.27 C173.14,36.15 170.27,35.53 167.54,36.06 C167.117007,36.1504811 166.687476,35.9373753 166.503637,35.5458227 C166.319799,35.1542701 166.430195,34.6876618 166.77,34.42 L166.77,34.42 C170.09,31.87 173.25,27.88 172.03,23.87 C170.6,19.17 164.43,18.09 159.54,18.57 C156.086452,18.9042218 152.673671,19.5740513 149.35,20.57 C149.019528,20.6710089 148.660325,20.5783112 148.42,20.33 C147.83,19.72 147.22,19.12 146.6,18.53 C146.461867,18.3915652 146.370889,18.2131084 146.34,18.02 C146.083308,15.9706385 144.967057,14.1271881 143.27,12.95 C142.061368,12.1582266 140.617615,11.8052308 139.18,11.95 C138.956438,11.9703791 138.732963,11.9100765 138.55,11.78 C130.635049,5.98453528 121.40616,2.24281521 111.69,0.89 C106.81,0.27 100.61,1.17 99.05,5.83 C97.72,9.83 100.76,13.83 104,16.52 C106.691067,18.6527215 109.050178,21.1736004 111,24 C111.182012,24.2757203 111.204083,24.6273049 111.057982,24.923623 C110.911881,25.2199411 110.619542,25.4165042 110.29,25.44 C100.411417,26.1242609 90.8596389,29.2623584 82.5,34.57 C78.39,37.26 74.25,41.96 76.08,46.57 C77.63,50.46 82.59,51.57 86.78,51.51 C87.78,51.51 88.99,51.51 90.24,51.58 C90.5005244,51.6045119 90.7410618,51.7301658 90.91,51.93 C91.4096581,52.4945189 91.9891105,52.9830107 92.63,53.38 C94.5318842,54.5129114 96.6513563,55.2318963 98.85,55.49 C99.07,55.65 99.29,55.8 99.51,55.97 C99.7186614,56.1393101 99.8428717,56.3913838 99.85,56.66 C99.9298042,57.4390948 100.118301,58.2031788 100.41,58.93 C100.924895,60.183796 101.629825,61.3508097 102.5,62.39 C102.38,62.69 102.26,62.99 102.1,63.3 C99.68,68.3 94.46,71.71 93.69,76.64 C88.91,78.33 84.81,80.57 84.4,88.19 C84.2877201,89.381998 84.4804262,90.58297 84.96,91.68 C85.6106489,92.8450364 86.6311062,93.7599291 87.86,94.28 C91.47,96 95.86,95.6 100.09,95.17 C100.363915,95.1374197 100.637643,95.2322519 100.832696,95.4273043 C101.027748,95.6223567 101.12258,95.8960851 101.09,96.17 C100.664719,100.960811 100.537807,105.773434 100.71,110.58 C100.78,113.32 100.91,116.2 102.33,118.42 C103.770333,120.418309 105.87675,121.836772 108.27,122.42 C109.956573,122.916965 111.702061,123.186019 113.46,123.22 C113.721936,123.222223 113.968578,123.343704 114.13,123.55 C116.23,126.23 118.5,128.78 120.76,131.21 C122.55,133.13 124.47,135.11 127.02,135.75 C129.506816,136.206463 132.074896,135.811915 134.31,134.63 C140.210992,131.84493 144.739247,126.797513 146.87,120.63 C147.07,120.04 147.25,119.45 147.42,118.85 C147.495441,118.547383 147.707751,118.297291 147.994108,118.173726 C148.280464,118.050162 148.608075,118.067274 148.88,118.22 C152.39,120.49 155.96,122.74 160.02,122.84 C161.398365,122.917234 162.767071,122.568074 163.94,121.84 C164.934066,121.105989 165.739516,120.146303 166.29,119.04 C169.64,112.85 168.01,109.17 165.29,105.87 C165.057471,105.589677 164.995738,105.205098 165.128848,104.866082 C165.261959,104.527065 165.568862,104.287227 165.93,104.24 C169.68,103.58 173.36,102.71 176.29,100.38 C177.435367,99.5376081 178.31654,98.385839 178.83,97.06 C179.16421,95.8947582 179.205431,94.6650063 178.95,93.48 C178.11,88.82 176.09,86.66 173.48,85.6 C173.05944,85.4100263 172.823492,84.9569363 172.908967,84.5034441 C172.994442,84.049952 173.379139,83.713842 173.84,83.69 L173.84,83.69 C178.16,83.27 183.21,81.47 184.62,77.18 C185.88,73.23 183.43,69.67 180.21,67.19 Z" id="Path" fill="#EAEAEA"></path>
                <path d="M185.38,184.21 C178.3,165 170.7,145 155.47,131.29 C148.31,124.86 139.79,120.16 132.17,114.29 C119.08,104.21 108.98,95.29 98.95,82.19 C94.74,76.68 90.31,66.31 89.14,59.47 C88.01,52.89 87.65,42.47 89.95,36.19 C94.36,24.19 99.25,13.19 110.75,7.51 C126.69,-0.35 147.38,14.3 157.56,28.92 C169.25,45.7 163.79,72.92 181.56,73.54 C186.34,73.72 181.87,61.82 183.28,57.25 C183.553469,56.0327478 184.147291,54.9107008 185,54 C185.744047,53.4029023 186.628986,53.006918 187.57,52.85 C196.74,50.93 205.09,59.85 207,69.08 C208.91,78.31 206.58,87.74 206.18,97.08 C205.63,109.99 208.76,122.75 211.87,135.3 C213.4,141.44 215.19,148.03 220.1,152.01" id="Path" stroke="#0D0D0D" stroke-width="2" fill="#FFFFFF"></path>
                <path d="M203.69,212.73 C198.13,210.55 193.61,206.37 189.46,202.08 C179.328393,191.604346 170.531593,179.915586 163.27,167.28 C161.15,163.59 159.11,159.58 159.35,155.34 C159.64,150.24 163.21,145.88 167.29,142.82 C174.39,137.48 183.18,135.02 191.74,132.66 C199.86,130.43 208.74,128.23 216.49,131.58 C221.58,133.79 225.42,138.12 228.9,142.45 C240.62827,157.044297 250.354295,173.139995 257.82,190.31" id="Path" stroke="#0D0D0D" stroke-width="2" fill="#FFFFFF"></path>
                <path d="M203.69,212.73 C198.13,210.55 193.61,206.37 189.46,202.08 C179.328393,191.604346 170.531593,179.915586 163.27,167.28 C161.15,163.59 159.11,159.58 159.35,155.34 C159.64,150.24 163.21,145.88 167.29,142.82 C174.39,137.48 183.18,135.02 191.74,132.66 C199.86,130.43 208.74,128.23 216.49,131.58 C221.58,133.79 225.42,138.12 228.9,142.45 C240.62827,157.044297 250.354295,173.139995 257.82,190.31" id="Path"></path>
                <path d="M179.94,167 C179.94,167 190.26,185.39 203.86,199" id="Path" stroke="#ED1C24" stroke-width="2" fill="#FFFFFF" stroke-linecap="round"></path>
                <path d="M39.09,128.74 C39.09,128.74 26,145.64 18.64,163.6" id="Path" stroke="#ED1C24" stroke-width="2" fill="#FFFFFF" stroke-linecap="round"></path>
            </g>
        </g>
    </g>
</svg>