<?xml version="1.0" encoding="UTF-8"?>
<svg width="511px" height="595px" viewBox="0 0 511 595" version="1.1" xmlns="http://www.w3.org/2000/svg" xmlns:xlink="http://www.w3.org/1999/xlink">
    <!-- Generator: Sketch 64 (93537) - https://sketch.com -->
    <title>work from home</title>
    <desc>Created with Sketch.</desc>
    <defs>
        <linearGradient x1="104.725573%" y1="84.2178256%" x2="-17.4821331%" y2="14.0802011%" id="linearGradient-1">
            <stop stop-color="#DBE2E4" offset="0%"></stop>
            <stop stop-color="#F4F4F4" offset="100%"></stop>
        </linearGradient>
        <linearGradient x1="74.454314%" y1="6.77776118%" x2="13.5810201%" y2="59.0497973%" id="linearGradient-2">
            <stop stop-color="#251323" offset="0%"></stop>
            <stop stop-color="#62345F" offset="100%"></stop>
        </linearGradient>
        <filter x="-87.5%" y="-185.7%" width="275.1%" height="471.4%" filterUnits="objectBoundingBox" id="filter-3">
            <feGaussianBlur stdDeviation="7.488" in="SourceGraphic"></feGaussianBlur>
        </filter>
        <path d="M230.672267,50.544 C229.923309,55.947666 228.451699,59.401439 226.257436,60.9053189 C222.966043,63.1611388 228.200183,68.11742 231.554771,69.5299919 C232.051495,70.6287905 232.299856,71.6975028 232.299856,72.7361288 C232.299856,73.7747547 237.425238,71.837494 247.676,66.9243466 L230.672267,50.544 Z" id="path-4"></path>
        <filter x="-73.5%" y="-55.6%" width="220.2%" height="220.2%" filterUnits="objectBoundingBox" id="filter-5">
            <feOffset dx="-3" dy="1" in="SourceAlpha" result="shadowOffsetOuter1"></feOffset>
            <feGaussianBlur stdDeviation="4" in="shadowOffsetOuter1" result="shadowBlurOuter1"></feGaussianBlur>
            <feColorMatrix values="0 0 0 0 0   0 0 0 0 0   0 0 0 0 0  0 0 0 0.251884834 0" type="matrix" in="shadowBlurOuter1"></feColorMatrix>
        </filter>
        <linearGradient x1="113.516185%" y1="7.51735273%" x2="22.7652026%" y2="92.4826473%" id="linearGradient-6">
            <stop stop-color="#1E9DD7" offset="0%"></stop>
            <stop stop-color="#075D98" offset="100%"></stop>
        </linearGradient>
        <filter x="-54.0%" y="-35.1%" width="208.0%" height="170.2%" filterUnits="objectBoundingBox" id="filter-7">
            <feGaussianBlur stdDeviation="11.232" in="SourceGraphic"></feGaussianBlur>
        </filter>
        <linearGradient x1="69.6102303%" y1="0%" x2="41.5914243%" y2="100%" id="linearGradient-8">
            <stop stop-color="#1E9DD7" offset="0%"></stop>
            <stop stop-color="#075D98" offset="100%"></stop>
        </linearGradient>
        <filter x="-48.4%" y="-84.3%" width="196.8%" height="268.5%" filterUnits="objectBoundingBox" id="filter-9">
            <feGaussianBlur stdDeviation="7.488" in="SourceGraphic"></feGaussianBlur>
        </filter>
        <filter x="-57.9%" y="-42.9%" width="215.7%" height="185.7%" filterUnits="objectBoundingBox" id="filter-10">
            <feGaussianBlur stdDeviation="5.616" in="SourceGraphic"></feGaussianBlur>
        </filter>
        <linearGradient x1="25.9425634%" y1="18.5462528%" x2="73.1978168%" y2="78.3207524%" id="linearGradient-11">
            <stop stop-color="#6088ED" offset="0%"></stop>
            <stop stop-color="#3C56C7" offset="100%"></stop>
        </linearGradient>
        <linearGradient x1="5.69012945%" y1="37.71338%" x2="92.7265912%" y2="61.0627939%" id="linearGradient-12">
            <stop stop-color="#6088ED" offset="0%"></stop>
            <stop stop-color="#3C56C7" offset="100%"></stop>
        </linearGradient>
        <linearGradient x1="0%" y1="51.3950119%" x2="93.0135258%" y2="48.8471884%" id="linearGradient-13">
            <stop stop-color="#09203F" offset="0%"></stop>
            <stop stop-color="#537895" offset="100%"></stop>
        </linearGradient>
        <linearGradient x1="57.1516982%" y1="36.7461088%" x2="1.86320595%" y2="63.605298%" id="linearGradient-14">
            <stop stop-color="#29323C" offset="0%"></stop>
            <stop stop-color="#485563" offset="100%"></stop>
            <stop stop-color="#485563" offset="100%"></stop>
        </linearGradient>
        <linearGradient x1="0%" y1="63.4970161%" x2="131.456948%" y2="35.1998302%" id="linearGradient-15">
            <stop stop-color="#09203F" offset="0%"></stop>
            <stop stop-color="#537895" offset="100%"></stop>
        </linearGradient>
        <linearGradient x1="50%" y1="24.2882325%" x2="41.0822993%" y2="59.7916846%" id="linearGradient-16">
            <stop stop-color="#29323C" offset="0%"></stop>
            <stop stop-color="#485563" offset="100%"></stop>
        </linearGradient>
        <linearGradient x1="83.5735845%" y1="16.4790719%" x2="0%" y2="57.0185537%" id="linearGradient-17">
            <stop stop-color="#251323" offset="0%"></stop>
            <stop stop-color="#62345F" offset="100%"></stop>
        </linearGradient>
        <linearGradient x1="37.849633%" y1="-55.1238781%" x2="50%" y2="100%" id="linearGradient-18">
            <stop stop-color="#37ECBA" offset="0%"></stop>
            <stop stop-color="#72AFD3" offset="100%"></stop>
        </linearGradient>
        <linearGradient x1="49.5563359%" y1="0%" x2="50.6603118%" y2="108.597651%" id="linearGradient-19">
            <stop stop-color="#C1DFC4" offset="0%"></stop>
            <stop stop-color="#DEECDD" offset="100%"></stop>
        </linearGradient>
        <linearGradient x1="76.2117013%" y1="16.1954179%" x2="35.0426601%" y2="84.8581495%" id="linearGradient-20">
            <stop stop-color="#37ECBA" offset="0%"></stop>
            <stop stop-color="#72AFD3" offset="100%"></stop>
        </linearGradient>
        <linearGradient x1="48.1975063%" y1="0%" x2="52.682678%" y2="108.597651%" id="linearGradient-21">
            <stop stop-color="#C1DFC4" offset="0%"></stop>
            <stop stop-color="#DEECDD" offset="100%"></stop>
        </linearGradient>
        <linearGradient x1="28.6440573%" y1="-55.1238781%" x2="50%" y2="100%" id="linearGradient-22">
            <stop stop-color="#37ECBA" offset="0%"></stop>
            <stop stop-color="#72AFD3" offset="100%"></stop>
        </linearGradient>
        <linearGradient x1="46.7117943%" y1="0%" x2="54.8938851%" y2="108.597651%" id="linearGradient-23">
            <stop stop-color="#C1DFC4" offset="0%"></stop>
            <stop stop-color="#DEECDD" offset="100%"></stop>
        </linearGradient>
        <linearGradient x1="92.2489219%" y1="70.3301359%" x2="16.2145492%" y2="34.7306599%" id="linearGradient-24">
            <stop stop-color="#A1C4FD" offset="0%"></stop>
            <stop stop-color="#C2E9FB" offset="100%"></stop>
        </linearGradient>
    </defs>
    <g id="Page-1" stroke="none" stroke-width="1" fill="none" fill-rule="evenodd">
        <g id="Covid-illustrations" transform="translate(-805.000000, -3379.000000)">
            <g id="work-from-home" transform="translate(805.000000, 3379.000000)">
                <g id="background-simple--inject-208" transform="translate(0.000000, 53.000000)" fill="url(#linearGradient-1)" fill-rule="nonzero">
                    <path d="M494.169,104.534 C485.42,79.6 469.3,58.514 451.854,38.637 C434.408,18.76 405.665,6.033 379.6,1.418 C330.824,-7.214 278.434,27.834 267.8,76.194 C262.964,98.19 265.876,121.018 266.019,143.534 C266.162,166.05 262.847,190.1 248.079,207.104 C227.279,231.037 191.113,233.351 159.679,229.438 C128.245,225.525 95.784,217.309 65.481,226.591 C19.682,240.605 -6.656,294.334 1.716,341.498 C10.088,388.662 47.021,427.298 90.454,447.474 C133.887,467.65 183.131,471.706 232.154,472.278 L287.079,473.331 C371.475,462.476 438.789,421.5 476.957,353.315 C515.125,285.13 520,178.283 494.169,104.534 Z" id="Path" transform="translate(255.226277, 236.719348) scale(-1, 1) translate(-255.226277, -236.719348) "></path>
                </g>
                <g id="Character--inject-208" transform="translate(128.700000, 0.000000)">
                    <path d="M277.734305,18.72 C286.820158,37.5133414 284.396217,43.8260999 292.057649,58.4305105 C297.16527,68.1667842 302.988744,78.8805899 309.52807,90.5719275 C318.139703,113.36688 311.587425,130.184583 289.871236,141.025035 C268.155048,151.865487 238.728158,149.863596 201.590567,135.019361 C186.455687,113.45711 183.079919,95.6620156 191.463264,81.6340789 C192.621962,79.6952185 198.646098,53.7653402 200.08976,33.7234029 C200.884879,22.6850011 213.64058,0 238.316,0 C258.597496,0 273.652624,10.2773772 277.734305,18.72 Z" id="Path-21" fill="url(#linearGradient-2)"></path>
                    <path d="M268.268,43.7133516 C268.268,58.7142388 268.268,70.2107613 268.268,78.2029192 C268.268,85.844733 269.792775,93.0902722 272.842325,99.9395367 C272.673845,110.684817 269.14784,150.188691 257.65376,149.851731 L238.471652,173.845295 C226.846532,173.583215 230.694034,120.009433 231.181307,109.86768 C231.98864,93.0644227 232.71872,81.4789946 232.7,81.5725946 C232.68128,81.6661946 213.49328,53.458167 214.33568,40.691127 C215.08448,29.215767 268.354177,40.2100737 268.268,43.7133516 Z" id="Path" fill="#FFBE9D" fill-rule="nonzero"></path>
                    <path d="M232.7,87.27264 C241.71767,87.4353205 250.603191,85.0891801 258.36512,80.496 C258.36512,80.496 251.86928,94.2892775 232.7,92.4172775 L232.7,87.27264 Z" id="Path" fill="#000000" fill-rule="nonzero" filter="url(#filter-3)"></path>
                    <path d="M231.764,91.5323917 C248.306033,91.5323917 270.14,72.4787255 270.14,53.352 C270.14,34.2252745 256.730033,18.72 240.188,18.72 C223.645967,18.72 211.61175,33.315844 211.61175,50.544 C211.61175,67.772156 215.221967,91.5323917 231.764,91.5323917 Z" id="Oval" fill="#FFBE9D" fill-rule="nonzero"></path>
                    <g id="shadow" opacity="0.593796503" transform="translate(236.444000, 61.776000) scale(-1, 1) rotate(-113.000000) translate(-236.444000, -61.776000) " fill="black" fill-opacity="1">
                        <use filter="url(#filter-5)" xlink:href="#path-4"></use>
                    </g>
                    <path d="M227.990978,58.2391143 C227.609799,60.5802672 226.86083,62.0766237 225.74407,62.7281838 C224.068931,63.7055239 226.732822,65.8528462 228.440124,66.4648468 C228.692929,66.9409043 228.819332,67.4039268 228.819332,67.8539143 C228.819332,68.0437869 230.037119,78.625037 230.965981,78.3558053 C231.162024,78.298982 232.32293,78.7298234 233.714916,78.5992127 C236.610677,78.327502 240.901299,77.2356128 242.354221,75.5553029 C242.482815,75.4065836 242.503322,75.1847034 243.15456,74.7195588 C244.371562,73.8503202 246.390529,72.1216239 247.339604,70.5365519 C247.896945,69.6057241 248.633077,66.6140026 249.548,61.5613876 C245.670587,59.2970125 243.031067,57.5426881 241.629441,56.2984141 C237.017678,52.204387 234.994411,47.9257537 233.921207,47.0456554 C232.358744,45.7643323 230.382001,49.4954852 227.990978,58.2391143 Z" id="Path-31" fill="#FFBE9D" fill-rule="nonzero" transform="translate(237.380000, 62.712000) rotate(-8.000000) translate(-237.380000, -62.712000) "></path>
                    <path d="M229.242723,71.5968916 C232.021386,74.1866261 234.251424,75.7435999 235.932838,76.2678131 C236.970201,77.8101742 236.428628,78.5813548 234.30812,78.5813548 C232.777344,78.5813548 230.033357,77.8273759 228.589448,76.2678131 C227.033093,74.586798 226.847694,72.0750568 227.297383,71.5968916 C227.875307,70.9823695 228.523754,70.9823695 229.242723,71.5968916 Z" id="Path-68" fill="#FB5454" transform="translate(231.764000, 74.858677) scale(-1, 1) rotate(-31.000000) translate(-231.764000, -74.858677) "></path>
                    <path d="M215.852066,55.9380735 C215.843608,58.0611384 216.647511,59.8135672 217.666755,59.8939161 C218.146859,59.9673457 218.621093,59.6374961 218.983548,58.9780325 C219.346002,58.3185689 219.566485,57.3844244 219.595756,56.3842211 C219.61203,54.266081 218.812323,52.508963 217.795356,52.4283785 C217.312891,52.3465829 216.834927,52.6726362 216.469304,53.3329732 C216.103681,53.9933102 215.881203,54.9322958 215.852066,55.9380735 L215.852066,55.9380735 Z" id="Path" fill="#263238" fill-rule="nonzero"></path>
                    <path d="M238.316244,55.9369764 C238.29997,58.0544773 239.099677,59.811065 240.116644,59.8916252 C240.599109,59.9733961 241.077073,59.6474413 241.442696,58.9873035 C241.808319,58.3271658 242.030797,57.3884636 242.059934,56.3829894 C242.068392,54.2605652 241.264489,52.5086653 240.245245,52.4283406 C239.764229,52.3466026 239.287791,52.6734089 238.924418,53.3343431 C238.561045,53.9952772 238.341669,54.9340793 238.316244,55.9369764 L238.316244,55.9369764 Z" id="Path" fill="#263238" fill-rule="nonzero"></path>
                    <path d="M272.230686,98.5080609 C281.900884,101.986144 288.440207,104.516805 291.848655,106.100044 C301.711389,110.681326 306.540625,114.43802 308.62832,115.33392 C313.3832,117.3744 301.14032,162.13392 301.14032,162.13392 L303.01232,254.14272 C303.079162,257.438922 301.738776,260.60754 299.326793,262.855151 C296.91481,265.102761 293.659618,266.216541 290.37632,265.9176 L207.2408,258.5232 L206.0302,240.956061 L133.78352,261.10656 L128.0552,230.256 L179.47904,217.63872 C179.47904,217.63872 184.10288,173.64672 185.69408,152.568 C187.28528,131.48928 200.76368,123.02784 200.76368,123.02784 L200.76368,123.02784 L200.7952,123.232061 L200.80112,123.00912 C206.224427,119.267078 210.77628,116.321486 214.456678,114.172344 C218.137076,112.023203 223.981064,108.898219 231.98864,104.797393 C230.307976,120.812193 229.883877,132.886814 230.716342,141.021257 C231.548807,149.155699 234.142561,159.081202 238.497605,170.797765 C244.738904,159.692788 250.208871,149.767285 254.907508,141.021257 C259.606144,132.275228 265.380537,118.104163 272.230686,98.5080609 Z" id="Combined-Shape" fill="url(#linearGradient-6)" fill-rule="nonzero"></path>
                    <path d="M318.540422,230.880935 C311.847398,241.312198 307.836849,250.410405 295.454938,250.954566 L266.2088,258.54192 L257.480454,228.384 C260.680386,225.684441 265.173262,223.332748 270.959083,221.328918 C274.48636,220.1073 291.933959,219.166213 297.267017,207.19296 C298.200891,205.09632 296.643195,190.38864 292.593929,163.06992 C300.052159,166.663325 304.617566,166.763165 306.290151,163.36944 C310.889483,154.037259 324.043001,222.332645 318.540422,230.880935 Z" id="Path" fill="#000000" fill-rule="nonzero" opacity="0.483933222" filter="url(#filter-7)"></path>
                    <path d="M308.62832,115.33392 C308.62832,115.33392 325.202352,125.344188 332.64608,149.129046 C338.885305,169.06517 338.148659,230.89923 332.64608,239.44752 C325.953055,249.878783 314.607991,256.406559 302.22608,256.95072 L266.2088,258.54192 L257.480454,228.384 C260.680386,225.684441 265.173262,223.332748 270.959083,221.328918 C274.48636,220.1073 291.933959,219.166213 297.267017,207.19296 C298.200891,205.09632 294.879783,188.899409 287.303694,158.602226 C285.631109,144.986123 285.631109,136.481209 287.303694,133.087484 C290.369915,126.86603 297.478123,120.948175 308.62832,115.33392 Z" id="Path" fill="url(#linearGradient-8)" fill-rule="nonzero"></path>
                    <g id="Group" transform="translate(228.084000, 200.304000)" fill="#000000" fill-rule="nonzero" opacity="0.543480283">
                        <path d="M2.05136,25.87104 C-0.26992,23.99904 1.1528,19.88064 3.79232,18.38304 C6.43184,16.88544 9.61424,17.25984 12.60944,17.18496 C20.0994893,16.9747605 27.3058092,14.2740373 33.08912,9.50976 C37.33856,5.9904 41.15744,1.19808 46.62368,0.468 C45.36944,4.94208 39.97808,9.30384 36.17792,11.9808 C25.15184,19.76832 13.00256,22.68864 0.19808,27.12528" id="Path" filter="url(#filter-9)"></path>
                    </g>
                    <path d="M205.556,185.328 C198.405847,172.314424 198.405847,159.029576 205.556,146.016 C212.706153,159.029576 212.706153,172.314424 205.556,185.328 L205.556,185.328 Z" id="Path" fill="#263238" fill-rule="nonzero" opacity="0.350097656" filter="url(#filter-10)"></path>
                    <g id="Group" opacity="0.2" transform="translate(260.780000, 252.720000)" fill="#000000" fill-rule="nonzero">
                        <path d="M1.53504,7.956 C1.03758261,6.16095961 1.29452733,4.24063595 2.2464,2.63952 C3.36314856,1.50762748 4.90737204,0.902183027 6.49584,0.97344 C10.0403727,1.15378019 13.5341599,1.89297205 16.848,3.16368 C24.5647885,5.43869429 32.6026892,6.43157423 40.64112,6.10272 C37.0943892,8.9282986 32.7416702,10.5540129 28.21104,10.74528 C23.7102087,10.9105577 19.2045609,10.596794 14.77008,9.80928 L0.86112,7.93728" id="Path"></path>
                    </g>
                    <polygon id="Path" fill="#FFBE9D" fill-rule="nonzero" points="164.76512 464.391025 165.229517 540.67104 195.447344 538.220349 202.20512 463.91904"></polygon>
                    <path d="M197.809267,523.038548 C197.809267,523.038548 175.655751,540.607853 164.929312,525.404721 L162.126759,532.76408 L149.515269,585.267052 C148.632759,588.672911 150.1549,592.28046 153.068506,593.688395 C155.271713,594.673722 157.786979,594.135171 159.507706,592.309679 C168.632686,582.621409 201.996415,546.812072 201.67946,542.0052 L201.546005,529.112348 C201.519392,526.437301 200.040644,524.048449 197.809267,523.07581 L197.809267,523.038548 Z" id="Path" fill="url(#linearGradient-11)" fill-rule="nonzero"></path>
                    <path d="M152.87792,594.04176 L206.22992,537.264 L206.22992,540.09072 C206.492,543.1608 205.16288,544.35888 203.70272,546.32448 C199.3784,552.1464 187.43504,565.17552 159.11168,592.35696 C157.465371,593.946876 155.129311,594.601254 152.89664,594.09792 L152.87792,594.04176 Z" id="Path" fill="#FFFFFF" fill-rule="nonzero" opacity="0.6"></path>
                    <polygon id="Path" fill="#FFBE9D" fill-rule="nonzero" points="77.6771343 411.84 43.628 477.635324 70.8053731 494.208 114.764 431.174788"></polygon>
                    <path d="M44.8444017,466.303367 L43.6954655,468.437261 C43.6954655,468.437261 4.26397617,460.712919 0.23504,467.379132 L63.2426996,511.46784 L75.11504,486.778163 C63.1354655,485.120428 53.0095081,478.82456 44.8444017,466.303367 Z" id="Path" fill="url(#linearGradient-12)" fill-rule="nonzero"></path>
                    <g id="Group" opacity="0.6" transform="translate(0.572000, 464.256000)" fill="#FFFFFF" fill-rule="nonzero">
                        <path d="M66.2518214,48.672 L69.264,42.369097 L4.65518512,0.0575969401 C4.65518512,0.0575969401 0.934258605,-0.539127608 0,2.10883758 L66.2518214,48.672 Z" id="Path"></path>
                    </g>
                    <polygon id="Path" fill="#CACACA" fill-rule="nonzero" points="122.32688 409.74336 122.32688 577.99872 133.78352 577.99872 133.78352 396.35856"></polygon>
                    <rect id="Rectangle" fill="#CACACA" fill-rule="nonzero" x="288.6728" y="383.40432" width="11.1384" height="194.61312"></rect>
                    <rect id="Rectangle" fill="#CACACA" fill-rule="nonzero" x="133.78352" y="409.74336" width="154.88928" height="12.43008"></rect>
                    <rect id="Rectangle" fill="url(#linearGradient-13)" fill-rule="nonzero" x="133.78352" y="348.17328" width="171.40032" height="35.21232" rx="7.02"></rect>
                    <path d="M165.00848,255.79008 C171.591122,256.105569 194.338036,260.319083 216.646718,266.938867 C217.266877,267.122891 217.886807,267.308321 218.506182,267.494993 L234.4784,258.54192 L292.37936,264.68208 C292.37936,264.68208 315.66704,306.01584 312.22256,334.9008 C308.77808,363.78576 302.41328,363.78576 302.41328,363.78576 L226.91552,359.62992 L226.635234,357.288026 L168.149877,352.136341 L107.953159,441.991048 L71.8332337,420.585946 L140.24192,270.24192 C140.24192,270.24192 150.55664,255.09744 165.00848,255.79008 Z" id="Combined-Shape" fill="url(#linearGradient-14)" fill-rule="nonzero"></path>
                    <polygon id="Path" fill="url(#linearGradient-15)" fill-rule="nonzero" points="95.63216 170.61408 114.50192 260.52624 203.60912 268.78176 261.0608 264.83184 240.24416 244.91376 216.07664 250.08048 207.48416 163.06992"></polygon>
                    <path d="M219.83936,244.65168 C222.44144,251.84016 234.70304,245.08224 234.70304,245.08224 L233.86064,257.88672 L226.22288,263.33424 C226.22288,263.33424 226.22288,266.77872 231.25856,267.07824 C233.62811,267.396023 236.037854,267.217523 238.33472,266.55408 L238.61552,268.2576 C238.913419,270.170449 240.536562,271.596608 242.47184,271.64592 C243.284521,271.710733 244.10072,271.575771 244.84928,271.2528 C244.84928,271.2528 250.2032,275.12784 255.2576,272.31984 C258.36828,270.482989 260.65376,267.520578 261.64112,264.0456 L262.4648,253.4688 L268.94192,248.976 C268.94192,248.976 274.27712,239.11056 267.59408,232.3152 C263.973203,228.810294 258.683389,227.650883 253.92848,229.32 L243.5576,232.76448 C240.940221,232.480587 238.310895,233.181295 236.18192,234.73008 C234.45968,235.98432 232.30688,237.48192 230.41616,238.60512 C230.41616,238.66128 219.29648,243.15408 219.83936,244.65168 Z" id="Path" fill="#FFBE9D" fill-rule="nonzero"></path>
                    <path d="M160.01024,212.80896 C160.01024,215.910591 157.495871,218.42496 154.39424,218.42496 C151.292609,218.42496 148.77824,215.910591 148.77824,212.80896 C148.77824,209.707329 151.292609,207.19296 154.39424,207.19296 C157.495871,207.19296 160.01024,209.707329 160.01024,212.80896 L160.01024,212.80896 Z" id="Path" fill="#FAFAFA" fill-rule="nonzero"></path>
                    <path d="M170.924,311.42592 L170.41856,311.72544 C159.205538,318.465857 152.598109,330.817938 153.21488,343.8864 L162.118745,467.746569 L202.20512,470.452938 L215.23424,360.99648 L237.9416,358.24464 L200.10848,315.8064 C192.6986,307.51972 180.440154,305.679774 170.924,311.42592 Z" id="Path" fill="url(#linearGradient-16)" fill-rule="nonzero"></path>
                    <path d="M259.117891,54.2789539 C240.63632,50.059182 229.999847,42.5229255 227.208473,31.6701844 C219.746819,44.9206508 213.439164,51.545884 208.285507,51.545884 C207.298933,43.2674051 206.748702,37.850592 206.634815,35.2954449 C206.433913,30.788076 207.253766,28.3980912 207.253766,28.3980912 C207.853734,25.4391654 208.459518,23.4505133 209.071119,22.4321349 C211.388296,18.5737995 214.443162,16.7578241 216.015992,15.3878234 C221.18483,10.885549 231.343412,8.74079658 232.581395,8.77629234 C234.098895,8.81980248 244.865682,7.51233893 255.111948,10.2713565 C265.392906,13.0397157 275.054482,21.3800619 276.501646,27.6150185 C282.171748,41.9531985 284.668432,52.2287894 283.991699,58.4417913 C283.764461,60.5280386 278.912712,66.6314415 269.436453,76.752 C268.272314,73.2361576 267.616364,70.7207438 267.468602,69.2057585 C266.778149,62.1266466 267.240309,57.6923464 266.11472,56.16 C264.627804,54.1357525 262.295528,53.5087371 259.117891,54.2789539 Z" id="Path-20" fill="url(#linearGradient-17)"></path>
                    <path d="M261.132488,52.1513774 C263.381347,51.3065781 265.387698,51.1223084 267.151538,51.5985684 C268.915379,52.0748284 269.97581,53.8901795 270.332829,57.0446219 C269.435199,62.694874 267.630349,65.52 264.918278,65.52 C262.526064,65.52 259.66362,58.032 259.155539,55.6372959 C258.94684,54.6536485 259.605823,53.4916757 261.132488,52.1513774 Z" id="Path-33" fill="#FFBE9D" fill-rule="nonzero"></path>
                    <ellipse id="Oval" fill="#D6007A" cx="265.46" cy="66.456" rx="1" ry="2.808"></ellipse>
                    <circle id="Oval" stroke="#263238" stroke-width="1.872" cx="239.252" cy="55.224" r="8.424"></circle>
                    <circle id="Oval-Copy-29" stroke="#263238" stroke-width="1.872" cx="218.66" cy="55.224" r="8.424"></circle>
                    <line x1="231.764" y1="55.224" x2="226.148" y2="55.224" id="Path-42" stroke="#263238" stroke-width="1.872"></line>
                </g>
                <g id="Big-Leaf-Plant" transform="translate(32.500000, 429.000000)">
                    <g id="Big-Ass-Leaf" transform="translate(16.011450, 0.000000)">
                        <path d="M16.8871746,0.120498744 C18.8813497,-0.123134012 21.0097402,-0.0371326449 22.8642647,0.750008419 C26.8077212,2.4240001 27.928655,7.08273007 27.8745781,10.8693507 C27.8162789,14.9449768 26.9507866,19.3965909 30.0493956,22.6804215 C31.4737645,24.1901371 33.2455687,25.3455094 34.6442035,26.8829463 C36.1386677,28.5259049 37.3112935,30.4057761 38.1795352,32.4244595 C39.7737301,36.1323981 40.5561889,40.4928857 39.0983848,44.3825377 C37.814814,47.807148 34.5854932,50.8981523 35.2832711,54.7922657 C36.0111148,58.8545513 40.10674,61.9602026 42.6673426,64.9859676 C45.5652212,68.4101859 48.2333805,72.7866505 48.6716989,77.2771533 C49.0920025,81.5806515 47.2187458,85.9330211 44.343898,89.1861139 C38.5999449,95.6863314 29.9658924,98.872953 21.2601175,98.8533 C17.5638825,98.844646 13.3789941,98.677709 10.1892429,96.6914159 C9.20340403,96.0774676 8.6833107,95.3886728 8.09725714,94.4311503 C7.57179725,93.5725312 6.87766874,93.0140357 6.07422894,92.4064766 C4.30907441,91.0720097 3.0343197,89.2734709 2.22080327,87.2601952 C-0.9382569,79.4404772 1.58664193,69.7665272 6.00861114,62.8225569 C7.0564226,61.1773883 7.91428245,59.594243 7.40525138,57.6332989 C6.87406202,55.5863109 5.56851394,53.7400392 4.41377145,51.980479 C3.27270235,50.2414849 1.97002002,48.582508 1.07816758,46.702274 C0.144098104,44.732595 -0.118928377,42.67001 0.0461112335,40.5143603 C0.356291873,36.465113 2.10427517,32.7284345 4.57903908,29.4719455 C6.96269466,26.3352342 9.7615042,23.3338873 9.7677755,19.2238506 C9.77466223,14.8677715 6.86245975,10.9927705 8.10310103,6.56398383 C8.61680772,4.73010355 9.64860716,2.84853133 11.311428,1.74909291 C12.9061043,0.694650607 15.0116767,0.349632451 16.8871746,0.120498744 Z" id="leaf" fill="url(#linearGradient-18)" opacity="0.80015346"></path>
                        <path d="M15.5841251,7.0843224 C15.6215209,6.49928442 16.3154928,6.14840038 16.8618026,6.30106325 C17.5808968,6.50210867 17.5670673,7.17401481 17.5480823,7.77263056 C17.4898849,9.61263299 17.7562082,11.400815 18.1985137,13.1861391 C19.1177983,16.8980267 20.8167597,20.3179212 22.1627633,23.8834835 C23.5075938,27.4460609 24.1388856,31.1243143 23.3499516,34.8940298 C22.6062222,38.4483458 21.4378006,41.9105381 20.6766653,45.4693405 C20.0057863,48.6059678 19.291939,51.9137171 20.3136019,55.0423572 C21.2966929,58.0539008 23.4701717,60.5064736 25.0352649,63.2280282 C28.2751885,68.8618197 29.712564,75.1118381 29.9048195,81.5436581 C29.9939174,84.5303483 29.9136825,87.5445026 29.2208045,90.4737956 C28.822007,92.1604902 28.2860904,94.439983 26.8407063,95.6044815 C26.1742027,96.141493 25.0342698,96.3271835 24.4733061,95.5319305 C23.9466429,94.7860464 24.4086697,93.6313429 24.5758672,92.8363474 C25.2999535,89.394941 25.4456233,85.8779602 25.2722666,82.3835718 C25.1044854,78.9987975 24.7045736,75.619676 23.639292,72.387076 C22.6505678,69.3871767 21.1485128,66.692684 19.3806846,64.0684097 C17.5792802,61.3940907 15.7065621,58.7140659 14.9622281,55.5452733 C14.205963,52.3269044 14.8203525,49.0521107 15.6418757,45.8952058 C16.5106564,42.5560909 17.6486232,39.3127653 18.8250781,36.064122 C19.9715738,32.8985612 20.3779503,29.9033778 19.7450367,26.5902507 C18.4947462,20.0446158 15.1480863,13.9008044 15.5841251,7.0843224 Z" id="middle-thing" fill="url(#linearGradient-19)"></path>
                    </g>
                    <g id="Big-Ass-Leaf" transform="translate(22.276800, 6.961500)">
                        <path d="M63.2746971,1.10149969 C65.7424439,1.85078776 68.1933802,3.05973163 69.9525028,4.95539039 C73.6929825,8.98657114 72.5453008,15.0792419 70.4804106,19.5292665 C68.2578108,24.31888 64.8897197,29.1332268 66.7883765,34.6287365 C67.6610434,37.1551543 69.1285103,39.44326 69.9563412,41.9890742 C70.8407959,44.7095337 71.2225427,47.5427448 71.1739061,50.3817713 C71.0838654,55.5962124 69.6968252,61.1600917 65.9310423,65.0017135 C62.615421,68.384005 57.1939574,70.3595425 55.9541026,75.3278226 C54.6606226,80.5106283 57.8228604,86.3140888 59.2268921,91.2245204 C60.8159084,96.7816318 61.6321653,103.34539 59.7727611,108.883999 C57.991071,114.19208 53.4934279,118.364796 48.4020526,120.716428 C38.2291916,125.415622 26.4179681,124.692577 16.2173838,120.140288 C11.8865886,118.207297 7.06636141,115.8328 4.37497483,111.824378 C3.54319224,110.585451 3.29724442,109.5003 3.11597093,108.063031 C2.95349135,106.77425 2.43454612,105.752657 1.81332256,104.616174 C0.448317744,102.119726 -0.0962055063,99.3295711 0.0137602783,96.5254091 C0.44169729,85.6341923 8.51643719,75.5070349 17.3732914,69.5953213 C19.4718449,68.194797 21.3148206,66.7688058 21.7542574,64.1849327 C22.2131842,61.4877745 21.6577732,58.6251499 21.2334099,55.9435251 C20.8142138,53.2933355 20.163167,50.6537016 20.1109316,47.9661261 C20.0564569,45.1508083 20.8381564,42.5747091 22.171126,40.1112386 C24.6752152,35.4838558 28.700494,31.974102 33.3244053,29.4103206 C37.7781456,26.9407948 42.6472723,24.8473269 44.8270366,19.9899524 C47.1375714,14.841922 45.7700213,8.7442515 49.5660596,4.15206191 C51.1379064,2.25050885 53.3426333,0.562077497 55.8740803,0.126889496 C58.3018172,-0.29053522 60.9538106,0.396803178 63.2746971,1.10149969 Z" id="leaf" fill="url(#linearGradient-20)" opacity="0.597446987"></path>
                        <path d="M58.2338205,9.61444501 C58.5839473,8.94122266 59.5791817,8.88942474 60.138033,9.35655073 C60.8735834,9.97153448 60.5055178,10.759981 60.1698079,11.4589323 C59.1381004,13.6074251 58.5129973,15.8646413 58.0951686,18.2107107 C57.2260844,23.0882833 57.4216075,28.0287194 57.128124,32.9566647 C56.834832,37.8804603 55.6466105,42.5672566 52.7498056,46.617983 C50.0186691,50.4373188 46.8391839,53.9249645 44.085345,57.7404903 C41.6581476,61.1033673 39.0910858,64.6463722 38.6471753,68.8869022 C38.2194889,72.9685456 39.4764807,77.0121539 39.8812091,81.0554269 C40.7191175,89.425302 39.1265569,97.5801656 35.9828524,105.297721 C34.5228284,108.881364 32.8504185,112.408778 30.5060837,115.514592 C29.1564008,117.303014 27.3359195,119.72158 25.0359413,120.343051 C23.975346,120.629665 22.5451617,120.252093 22.3057166,119.016309 C22.0805236,117.856967 23.2255237,116.731688 23.8373887,115.877859 C26.4864227,112.18194 28.4986895,108.093357 30.1260837,103.864317 C31.7025895,99.768009 33.0047025,95.5567284 33.4520557,91.1702236 C33.8670568,87.099417 33.5218664,83.121232 32.8291299,79.0869023 C32.1233421,74.9757097 31.3371549,70.8203824 32.1263775,66.6776587 C32.9276131,62.4699716 35.3611183,58.9138652 37.9750852,55.6059318 C40.7397389,52.1069879 43.7689869,48.8625696 46.8460243,45.6320265 C49.8445177,42.4841703 51.8883523,39.1501624 52.8834513,34.8949115 C54.8495941,26.4880251 54.1539887,17.4582227 58.2338205,9.61444501 Z" id="middle-thing" fill="url(#linearGradient-21)"></path>
                    </g>
                    <g id="Big-Ass-Leaf" transform="translate(0.000000, 38.984400)">
                        <path d="M9.26295555,-1.08821752e-13 C13.3662652,-1.08821752e-13 16.9737604,2.17502405 19.4595432,5.26145552 C22.369388,8.874562 22.9570868,13.2868833 24.1386789,17.5930628 C24.7266359,19.7360678 25.7378805,21.8634415 27.5100106,23.3194244 C29.1218591,24.6435494 31.1680938,24.9085256 33.0974081,25.555461 C36.9531977,26.8483234 40.0666852,29.96274 41.2962843,33.7629182 C42.7963746,38.3983641 41.2074972,43.0731405 41.4810855,47.7708596 C41.732219,52.0851069 45.9860023,54.7767212 49.4084382,56.8448472 C52.7831251,58.8842316 55.8233116,60.7932709 56.8397182,64.7661501 C57.9175532,68.9798022 58.2791545,73.683068 56.7862911,77.8455401 C54.3007664,84.7762705 47.0266706,87.8281617 39.99803,88.3013877 C33.6192909,88.730745 25.5987634,88.0565809 20.8083856,83.4264294 C17.9419019,80.65565 16.9038147,76.7805926 17.0326077,72.9252005 C17.1126194,70.5278082 17.5875275,68.1526023 18.2015528,65.8358878 C18.6367132,64.1938417 19.2246701,62.5588549 19.3921785,60.8620992 C19.8374049,56.3479221 15.6651819,55.4808875 12.1136949,54.2414742 C7.60077704,52.6662395 4.44134735,49.6909921 2.24438097,45.5459162 C0.198404408,41.6864902 -0.660043687,37.3540904 0.566458222,33.1048896 C1.19287239,30.93516 2.32903851,28.9666208 3.86990896,27.2923036 C4.54820169,26.555362 5.50421243,25.9406977 6.11643098,25.1664426 C6.68786937,24.4433675 6.56346408,23.5064961 6.36653206,22.6596309 C5.45594731,18.7477643 2.61888734,15.5085492 1.60428738,11.6037419 C0.688282485,8.07912896 1.22978101,3.69252372 4.45218765,1.41866933 C5.8443912,0.436164553 7.56128739,0.0108410843 9.26295555,-1.08821752e-13 Z" id="leaf" fill="url(#linearGradient-22)" opacity="0.803501674"></path>
                        <path d="M14.8542338,10.1925944 C19.2033025,14.8252264 20.3854319,21.110731 20.732364,27.2028626 C20.9266972,30.6190347 20.7244268,34.2222769 21.7280975,37.5358378 C22.5868503,40.371891 24.6000805,42.5398367 26.675272,44.5887836 C30.8525389,48.7134018 35.5111581,52.9065955 36.7329735,58.8759466 C37.4498811,62.3790988 36.9659685,65.997468 37.9565811,69.4620464 C38.8573243,72.6112276 40.4432264,75.7051955 42.3722199,78.3645153 C43.925349,80.5059888 45.9488207,82.1454993 47.6466115,84.141754 C48.1645772,84.7511185 48.9065766,85.6481473 48.6927845,86.5083672 C48.442635,87.5158228 47.1593704,87.8347496 46.2488977,87.6764207 C44.1260831,87.307575 42.3391909,85.2805621 40.9512066,83.806944 C38.92159,81.6521083 37.1969151,79.3344057 35.7951047,76.7345852 C34.2389032,73.8473525 32.9858511,70.7836386 32.4504748,67.5444519 C31.8948714,64.1839974 32.1713929,60.6818537 30.9027225,57.4567855 C28.767874,52.0302402 23.5897529,48.8278625 19.845959,44.598364 C15.1814509,39.3281307 15.8771073,32.7688281 16.354875,26.2859166 C16.6173144,22.7232651 16.8782176,18.6999975 15.0780114,15.4471966 C14.3908042,14.2055252 12.8586703,13.0478084 12.5632019,11.6364629 C12.2925693,10.3433598 13.769655,9.03664243 14.8542338,10.1925944 Z" id="middle-thing" fill="url(#linearGradient-23)"></path>
                    </g>
                    <path d="M19.4922,125.307 C19.4922,151.801417 23.816147,165.6837 46.6421148,165.6837 C69.4680825,165.6837 73.7919,151.801417 73.7919,125.307 L19.4922,125.307 Z" id="Base" fill="url(#linearGradient-24)"></path>
                </g>
            </g>
        </g>
    </g>
</svg>