<?xml version="1.0" encoding="UTF-8"?>
<svg width="585px" height="561px" viewBox="0 0 585 561" version="1.1" xmlns="http://www.w3.org/2000/svg" xmlns:xlink="http://www.w3.org/1999/xlink">
    <!-- Generator: Sketch 64 (93537) - https://sketch.com -->
    <title>social distancing</title>
    <desc>Created with Sketch.</desc>
    <defs>
        <linearGradient x1="85.4958444%" y1="65.9605485%" x2="-9.45280288%" y2="8.16157285%" id="linearGradient-1">
            <stop stop-color="#DBE2E4" offset="0%"></stop>
            <stop stop-color="#F4F4F4" offset="100%"></stop>
        </linearGradient>
        <linearGradient x1="37.5%" y1="-55.1238781%" x2="50%" y2="100%" id="linearGradient-2">
            <stop stop-color="#37ECBA" offset="0%"></stop>
            <stop stop-color="#72AFD3" offset="100%"></stop>
        </linearGradient>
        <linearGradient x1="42.7250505%" y1="-55.1238781%" x2="50%" y2="100%" id="linearGradient-3">
            <stop stop-color="#37ECBA" offset="0%"></stop>
            <stop stop-color="#72AFD3" offset="100%"></stop>
        </linearGradient>
        <linearGradient x1="50%" y1="24.2882325%" x2="32.1275371%" y2="59.7916846%" id="linearGradient-4">
            <stop stop-color="#29323C" offset="0%"></stop>
            <stop stop-color="#485563" offset="100%"></stop>
        </linearGradient>
        <linearGradient x1="50%" y1="31.9510529%" x2="17.2853534%" y2="56.8734908%" id="linearGradient-5">
            <stop stop-color="#29323C" offset="0%"></stop>
            <stop stop-color="#485563" offset="100%"></stop>
        </linearGradient>
        <linearGradient x1="64.2569228%" y1="94.2624479%" x2="40.0228673%" y2="1.77523219%" id="linearGradient-6">
            <stop stop-color="#C3CFE2" offset="0%"></stop>
            <stop stop-color="#F5F7FA" offset="100%"></stop>
        </linearGradient>
        <linearGradient x1="61.8102369%" y1="6.77776118%" x2="32.411415%" y2="59.0497973%" id="linearGradient-7">
            <stop stop-color="#251323" offset="0%"></stop>
            <stop stop-color="#62345F" offset="100%"></stop>
        </linearGradient>
        <linearGradient x1="51.93751%" y1="0%" x2="49.1692245%" y2="100%" id="linearGradient-8">
            <stop stop-color="#1E9DD7" offset="0%"></stop>
            <stop stop-color="#075D98" offset="100%"></stop>
        </linearGradient>
        <filter x="-214.3%" y="-20.5%" width="528.6%" height="141.1%" filterUnits="objectBoundingBox" id="filter-9">
            <feGaussianBlur stdDeviation="6.5" in="SourceGraphic"></feGaussianBlur>
        </filter>
        <linearGradient x1="99.3391229%" y1="0%" x2="28.8441165%" y2="100%" id="linearGradient-10">
            <stop stop-color="#1E9DD7" offset="0%"></stop>
            <stop stop-color="#075D98" offset="100%"></stop>
        </linearGradient>
        <filter x="-141.0%" y="-50.4%" width="381.9%" height="200.8%" filterUnits="objectBoundingBox" id="filter-11">
            <feGaussianBlur stdDeviation="2.6" in="SourceGraphic"></feGaussianBlur>
        </filter>
        <filter x="-86.9%" y="-194.6%" width="273.8%" height="489.3%" filterUnits="objectBoundingBox" id="filter-12">
            <feGaussianBlur stdDeviation="5.2" in="SourceGraphic"></feGaussianBlur>
        </filter>
        <filter x="-13.2%" y="-55.4%" width="126.5%" height="210.9%" filterUnits="objectBoundingBox" id="filter-13">
            <feGaussianBlur stdDeviation="1.3" in="SourceGraphic"></feGaussianBlur>
        </filter>
        <filter x="-14.7%" y="-238.9%" width="129.4%" height="577.7%" filterUnits="objectBoundingBox" id="filter-14">
            <feGaussianBlur stdDeviation="1.3" in="SourceGraphic"></feGaussianBlur>
        </filter>
        <filter x="-13.4%" y="-110.7%" width="126.9%" height="321.4%" filterUnits="objectBoundingBox" id="filter-15">
            <feGaussianBlur stdDeviation="1.3" in="SourceGraphic"></feGaussianBlur>
        </filter>
        <linearGradient x1="71.2655044%" y1="80.5455962%" x2="34.4404746%" y2="-2.88698861%" id="linearGradient-16">
            <stop stop-color="#C3CFE2" offset="0%"></stop>
            <stop stop-color="#F5F7FA" offset="100%"></stop>
        </linearGradient>
        <filter x="-51.2%" y="-89.6%" width="202.3%" height="279.2%" filterUnits="objectBoundingBox" id="filter-17">
            <feGaussianBlur stdDeviation="6.5" in="SourceGraphic"></feGaussianBlur>
        </filter>
        <linearGradient x1="0%" y1="77.9477831%" x2="93.0135258%" y2="26.9044779%" id="linearGradient-18">
            <stop stop-color="#09203F" offset="0%"></stop>
            <stop stop-color="#537895" offset="100%"></stop>
        </linearGradient>
        <linearGradient x1="0%" y1="81.1754759%" x2="93.0135258%" y2="24.2371733%" id="linearGradient-19">
            <stop stop-color="#09203F" offset="0%"></stop>
            <stop stop-color="#537895" offset="100%"></stop>
        </linearGradient>
        <linearGradient x1="50%" y1="24.2882325%" x2="42.0332949%" y2="80.0456208%" id="linearGradient-20">
            <stop stop-color="#29323C" offset="0%"></stop>
            <stop stop-color="#485563" offset="100%"></stop>
        </linearGradient>
        <linearGradient x1="109.438899%" y1="0%" x2="24.5134823%" y2="100%" id="linearGradient-21">
            <stop stop-color="#1E9DD7" offset="0%"></stop>
            <stop stop-color="#075D98" offset="100%"></stop>
        </linearGradient>
        <filter x="-103.6%" y="-46.8%" width="307.3%" height="193.6%" filterUnits="objectBoundingBox" id="filter-22">
            <feGaussianBlur stdDeviation="3.9" in="SourceGraphic"></feGaussianBlur>
        </filter>
        <filter x="-111.1%" y="-15.0%" width="322.3%" height="130.0%" filterUnits="objectBoundingBox" id="filter-23">
            <feGaussianBlur stdDeviation="3.9" in="SourceGraphic"></feGaussianBlur>
        </filter>
        <filter x="-69.7%" y="-54.9%" width="239.4%" height="209.8%" filterUnits="objectBoundingBox" id="filter-24">
            <feGaussianBlur stdDeviation="3.9" in="SourceGraphic"></feGaussianBlur>
        </filter>
        <filter x="-44.2%" y="-110.3%" width="188.4%" height="320.6%" filterUnits="objectBoundingBox" id="filter-25">
            <feGaussianBlur stdDeviation="2.457" in="SourceGraphic"></feGaussianBlur>
        </filter>
        <filter x="-106.8%" y="-47.1%" width="313.6%" height="194.3%" filterUnits="objectBoundingBox" id="filter-26">
            <feGaussianBlur stdDeviation="2.457" in="SourceGraphic"></feGaussianBlur>
        </filter>
        <filter x="-13.2%" y="-56.2%" width="126.5%" height="212.4%" filterUnits="objectBoundingBox" id="filter-27">
            <feGaussianBlur stdDeviation="1.2285" in="SourceGraphic"></feGaussianBlur>
        </filter>
        <filter x="-14.7%" y="-238.9%" width="129.4%" height="577.8%" filterUnits="objectBoundingBox" id="filter-28">
            <feGaussianBlur stdDeviation="1.2285" in="SourceGraphic"></feGaussianBlur>
        </filter>
        <filter x="-13.4%" y="-110.6%" width="126.9%" height="321.1%" filterUnits="objectBoundingBox" id="filter-29">
            <feGaussianBlur stdDeviation="1.2285" in="SourceGraphic"></feGaussianBlur>
        </filter>
        <linearGradient x1="109.947381%" y1="12.1209539%" x2="17.2853534%" y2="59.6824668%" id="linearGradient-30">
            <stop stop-color="#485563" offset="0%"></stop>
            <stop stop-color="#29323C" offset="100%"></stop>
        </linearGradient>
    </defs>
    <g id="Page-1" stroke="none" stroke-width="1" fill="none" fill-rule="evenodd">
        <g id="Covid-illustrations" transform="translate(-122.000000, -1213.000000)">
            <g id="social-distancing" transform="translate(122.000000, 1213.000000)">
                <g id="background-simple--inject-174" transform="translate(53.300000, 0.000000)">
                    <path d="M439.894,62.894 L437.138,58.409 C413.92,20.631 371.943,-2.145 327.691,0.624 C322.009015,0.977069413 316.360549,1.74612969 310.791,2.925 C270.556,11.427 235.547,41.47 221.091,79.95 C212.563,102.583 210.184,128.648 193.986,146.614 C172.9,170.014 137.111,170.729 105.651,169.754 C74.191,168.779 38.376,169.611 17.394,193.089 C4.264,207.779 0.078,228.683 1.144,248.378 C3.9,300.495 40.612,347.1 87.386,370.266 C134.16,393.432 189.228,395.499 240.422,385.307 C312.13,371.007 380.328,331.838 421.33,271.284 C462.332,210.73 472.693,128.245 439.894,62.894 Z" id="Path" fill="url(#linearGradient-1)" fill-rule="nonzero"></path>
                    <g id="Group-4" transform="translate(187.200000, 409.500000)">
                        <path d="M43.9838515,123.5 C43.6267012,123.5 43.2780292,123.424745 42.9484336,123.246678 C41.9554074,122.709295 41.6109746,121.47554 41.393717,120.366857 C40.6635195,116.639095 40.30213,112.843498 40.3,109.045781 C40.2947115,100.053363 42.3040793,91.0545862 46.2136563,82.9525071 C51.7733312,71.4300448 61.1440223,61.7868325 72.499706,55.9 C73.6156682,59.6765185 74.0989339,63.7985732 74.1,68.0361598 C74.1042328,76.9490828 71.9814671,86.3686506 69.1391019,94.1463922 C64.9455004,105.623278 56.9843341,115.686221 46.783825,122.409336 C45.9465884,122.961557 44.9376653,123.5 43.9838515,123.5" id="Fill-125" fill="url(#linearGradient-2)" opacity="0.803501674"></path>
                        <path d="M20.2832106,0.00362146124 C27.423761,-0.196773766 32.1281481,7.95654057 32.8444838,15.2635048 C33.5587461,22.5694032 31.9757583,30.1556417 34.0615288,37.1780021 C36.7112453,46.0966556 44.8190044,52.4954458 47.2759011,61.4727256 C50.1723439,72.0584969 44.5245915,83.0450587 44.2540218,94.0390819 C44.123402,99.387929 45.2720271,104.794336 44.3100017,110.053645 C42.6886572,118.920068 34.4585716,126.009582 25.6842367,126.1 C16.9099018,126.189725 8.54504963,119.268628 6.75265536,110.436315 C5.08051426,102.200924 8.6113962,93.4517534 6.4945257,85.3250873 C4.92916113,79.3164283 0.394787203,74.2180753 0.0246976988,68.0100869 C-0.414848379,60.6253096 5.14478751,54.2393107 6.1752328,46.9152915 C7.20567809,39.5912723 3.60844957,32.4388681 3.07353028,25.0562227 C2.11254157,11.8162806 7.4441111,1.42024517 20.2832106,0.00362146124" id="Fill-126" fill="url(#linearGradient-3)" opacity="0.803501674"></path>
                        <path d="M36.4084178,150.8 C36.4327487,150.804204 36.5090593,150.550922 36.6329258,150.066707 C36.7667458,149.506933 36.9326384,148.803491 37.1372393,147.940417 C37.549759,146.090821 38.1845747,143.421784 39.0173557,140.135506 C40.6740699,133.562949 43.2752662,124.554418 46.8662884,114.832866 C50.4727939,105.112378 54.379012,96.5476216 57.412635,90.4486382 C58.9266816,87.3964859 60.1863596,84.9413551 61.0832857,83.257776 C61.4913815,82.4660043 61.8242727,81.818965 62.0897009,81.3038877 C62.311997,80.8537272 62.4192742,80.6121517 62.3971552,80.6 C62.3761421,80.5887391 62.2257328,80.8079662 61.9614106,81.2379068 C61.6650158,81.7370209 61.2923104,82.362776 60.8355527,83.1311351 C59.86121,84.7785311 58.5296453,87.2027998 56.9547714,90.2336679 C53.7972819,96.290083 49.8047996,104.849518 46.1883405,114.599804 C42.5851529,124.350089 40.0547375,133.409703 38.5207838,140.023764 C37.7499361,143.330262 37.189219,146.019519 36.8618576,147.888271 C36.7103423,148.760922 36.5875818,149.472878 36.4902581,150.040102 C36.4128416,150.534959 36.3840869,150.79569 36.4084178,150.8" id="Fill-127" fill="#132529"></path>
                        <path d="M22.1077774,36.4 C22.0835272,36.4021554 22.1162123,36.8052897 22.2026696,37.5691231 C22.3038879,38.3913048 22.4399,39.5031067 22.6128147,40.9045287 C22.9997639,43.8612003 23.545921,48.0293965 24.2164924,53.1534452 C25.5829397,63.4949001 27.456533,77.7817665 29.4292359,93.575082 C31.39983,109.372641 33.0973456,123.682847 34.3172372,134.043397 C34.9256015,139.174872 35.4211495,143.348373 35.7722505,146.310349 C35.950437,147.709649 36.0917209,148.821451 36.1971566,149.643633 C36.3004836,150.403223 36.3669082,150.802113 36.390104,150.8 C36.4143542,150.796809 36.3932671,150.393675 36.3352774,149.62772 C36.2614724,148.803416 36.1634172,147.68631 36.039003,146.282766 C35.7395655,143.313364 35.3178225,139.130315 34.8001329,133.988232 C33.7046555,123.612829 32.0819993,109.289892 30.1103508,93.4880898 C28.1365936,77.6915917 26.1881409,63.4121515 24.6983338,53.0855489 C23.9370877,47.9752916 23.3160711,43.8155825 22.8774584,40.866337 C22.6518259,39.4723412 22.4715308,38.3669046 22.3407904,37.5500272 C22.2100501,36.7925592 22.1299189,36.3957902 22.1077774,36.4" id="Fill-128" fill="#132529"></path>
                    </g>
                </g>
                <g id="Distance--inject-174" transform="translate(157.000000, 228.800000)">
                    <path d="M254.255,31.005 C254.255,31.2 197.471,31.343 127.44,31.343 C57.409,31.343 0.625,31.2 0.625,31.005 C0.625,30.81 57.396,30.667 127.44,30.667 C197.484,30.667 254.255,30.823 254.255,31.005 Z" id="Path" fill="#263238" fill-rule="nonzero"></path>
                    <text id="1-m" font-family="Helvetica" font-size="27.3" font-weight="normal" fill="#000000">
                        <tspan x="109.058521" y="26">1 </tspan>
                        <tspan x="105.279443" y="58">m</tspan>
                    </text>
                    <path d="M8.23,38.337 C7.37862483,37.7621637 6.5861108,37.1046384 5.864,36.374 C4.447,35.074 2.523,33.293 0.391,31.252 L0.131,31.005 L0.391,30.758 L0.937,30.251 C3.212,28.106 5.305,26.208 6.839,24.843 C7.63255923,24.0590939 8.50369758,23.3578276 9.439,22.75 C8.77089719,23.6401569 8.01289881,24.4591437 7.177,25.194 C5.734,26.637 3.693,28.6 1.405,30.745 L0.859,31.252 L0.859,30.758 C2.978,32.812 4.85,34.658 6.189,36.036 C6.95184738,36.725643 7.63631748,37.4973068 8.23,38.337 L8.23,38.337 Z" id="Path" fill="#263238" fill-rule="nonzero"></path>
                    <path d="M246.897,23.218 C247.761287,23.7808008 248.559332,24.439297 249.276,25.181 C250.693,26.481 252.617,28.262 254.749,30.303 L255.009,30.55 L254.749,30.797 L254.203,31.304 C251.928,33.449 249.835,35.347 248.301,36.712 C247.507441,37.4959061 246.636302,38.1971724 245.701,38.805 C246.362394,37.9133121 247.116255,37.0940876 247.95,36.361 C249.406,34.918 251.447,32.955 253.722,30.81 L254.268,30.303 L254.268,30.784 C252.149,28.73 250.264,26.884 248.938,25.506 C248.185371,24.8110382 247.501845,24.044792 246.897,23.218 L246.897,23.218 Z" id="Path" fill="#263238" fill-rule="nonzero"></path>
                </g>
                <g id="character-2--inject-174" transform="translate(413.400000, 70.200000)">
                    <path d="M9.308,200.07 L26.78,203.203 C26.78,203.216 24.193,219.583 22.633,229.502 L22.633,229.502 C21.9550342,233.818969 21.4614276,236.919862 21.45,236.977 C27.846,243.516 27.781,253.903 28.275,260.221 C23.712,261.937 23.504,253.929 23.075,251.628 C17.459,247.754 17.29,260.143 16.575,261.131 C16.289,261.261 17.823,265.187 19.526,269.451 C19.955,271.427 17.29,273.065 15.99,271.193 C15.015,273.234 13.143,272.207 11.57,269.828 C10.179,269.555 6.916,268.073 6.37,265.785 C6.175,265.603 1.313,262.496 0.676,260.182 C0.13,247.962 6.63,232.882 6.63,232.882 L6.63,232.882 L7.11901895,225.816753 L7.20243202,225.826 L9.308,200.07 Z" id="Combined-Shape" fill="#B78876" fill-rule="nonzero"></path>
                    <path d="M146.524539,422.5 L147.088436,423.251077 L157.982465,437.807656 L171.6,447.345136 L152.655429,482.3 L132.379099,482.025797 C132.379099,482.025797 133.914821,477.257057 143.705049,474.872687 L144.628882,455.547368 L127.4,436.186284" id="Path" fill="url(#linearGradient-4)" fill-rule="nonzero"></path>
                    <g id="Group" opacity="0.6" transform="translate(131.300000, 445.600000)" fill="#FFFFFF" fill-rule="nonzero">
                        <polygon id="Path" points="39.832 2.30592975 20.9941291 36.7 0.832 36.4301966 3.14646926 33.4858202 19.5505684 32.8171769 36.9448786 0.3"></polygon>
                    </g>
                    <path d="M62.231,448.789555 L62.1346314,487.762055 L14.131,488.371 C14.3598755,483.730837 41.0780824,474.243469 41.0780824,474.243469 L40.4998705,448.071 L62.231,448.789555 Z" id="Path" fill="url(#linearGradient-5)" fill-rule="nonzero"></path>
                    <g id="Group" opacity="0.6" transform="translate(10.100000, 483.300000)" fill="#FFFFFF" fill-rule="nonzero">
                        <path d="M52.027,4.408 L51.832,0.222 L2.237,2.406 C2.237,2.406 -0.064,3.446 0.222,5.006 L52.027,4.408 Z" id="Path"></path>
                    </g>
                    <path d="M100.399,209.001 C98.943,207.103 24.089,212.355 24.089,212.355 L20.982,208.65 C20.982,208.65 17.147,220.688 17.082,231.114 C16.6597942,267.577093 16.9840138,294.528783 18.0546587,311.96907 C18.8300138,324.599228 21.2747942,342.753204 25.389,366.431 L40.17,452.79 L62.231,452.79 C62.231,452.79 64.1026394,378.152571 63.7,361.4 C63.4252879,349.970087 63.4252879,328.721171 63.7,297.653254 L71.734,361.4 C72.7908839,367.530057 75.3950968,373.288858 79.3,378.131 L127.621,438.165 L147.303,422.058 C130.670955,386.93865 120.274797,360.010032 116.114528,341.272146 C112.192171,323.605823 118.280592,282.899087 116.114528,250.601 C115.402736,239.987496 104.572,214.409 100.399,209.001 Z" id="Path" fill="url(#linearGradient-6)"></path>
                    <path d="M57.6639354,0 C72.3671266,0.362246197 82.3401103,8.63048498 87.5828863,24.8047163 C95.4470504,49.0660634 92.7802253,52.4028873 99.4114968,71.2565156 C103.832344,83.8256012 109.5036,98.242617 116.425262,114.507563 C123.87897,143.934808 118.207715,165.645695 99.4114968,179.640225 C80.6152791,193.634755 55.145145,191.050404 23.0010947,171.887174 C4.73184523,151.375454 2.93010105,125.864231 17.5958621,95.3535059 C24.8185768,74.852488 27.9885094,55.7042917 27.1056598,37.9089168 C26.2228102,20.113542 32.5446529,8.19321962 46.0711877,2.14794967 C48.7520793,1.30617593 50.7397036,0.765377303 52.0340605,0.5255538 C53.3284173,0.285730296 55.2050423,0.110545696 57.6639354,0 Z" id="Path-21" fill="url(#linearGradient-7)"></path>
                    <path d="M23.543,97.305 C19.5657425,101.460434 16.9883371,106.756161 16.172,112.45 C15.9659979,113.947477 11.0579586,140.997415 9.32735761,173.244992 C8.35258699,191.408619 8.33120633,206.603341 8.33120633,206.603341 L19.851,208.65 C19.851,208.65 28.951,175.734 27.651,164.788 C26.351,153.842 23.543,97.305 23.543,97.305 Z" id="Path" fill="url(#linearGradient-8)" fill-rule="nonzero"></path>
                    <path d="M25.7963299,107.25 C23.9352089,110.791701 22.7291357,115.30528 22.3471383,120.158173 C22.2507415,121.434481 19.9540697,144.489303 19.1442509,171.974103 C18.688116,187.45507 18.6781111,200.40562 18.6781111,200.40562 L24.0686925,202.15 C24.0686925,202.15 28.3269537,174.095499 27.7186306,164.766159 C27.1103076,155.436818 25.7963299,107.25 25.7963299,107.25 Z" id="Path" fill="#000000" fill-rule="nonzero" opacity="0.481329055" filter="url(#filter-9)"></path>
                    <path d="M71.656,76.479 C80.4219056,79.6323739 86.7485722,82.1457073 90.636,84.019 C94.5234278,85.8922927 99.7095688,88.9268076 106.194423,93.1225447 C106.151199,93.2552471 106.108065,93.3877876 106.06502,93.5201663 C107.677672,94.9087827 109.030245,96.6064379 110.032,98.54 C112.203,102.895 121.485,122.109 121.485,122.109 L122.090186,100.308 L139.425963,98.54 C139.425963,98.54 144.248,125.801 144.235383,139.009 C144.235383,150.709 136.708,163.475954 119.6,160.992954 C111.569,159.804366 99.0838509,139.334398 94.9310341,132.153319 C92.1562796,143.865127 90.7242392,153.159786 90.636,160.03917 C90.3110668,185.371911 104.267711,211.358895 105.131,218.595 L105.131,218.595 L18.98,214.916 C22.8484737,197.158856 24.9728709,184.534526 25.3531915,177.04301 C26.313523,158.126502 22.6683491,142.924051 21.7114548,139.248707 C19.4234548,130.460707 23.543,97.305 23.543,97.305 C21.8122281,98.1570723 27.6311238,92.4253224 34.84,87.7848456 C41.7092365,83.3630006 49.946,80.041 49.946,80.041 L49.946,80.041 Z" id="Combined-Shape" fill="url(#linearGradient-10)" fill-rule="nonzero"></path>
                    <path d="M34.333,32.682 C34.853,24.648 39.624,19.4346349 47.632,20.3056349 C51.7565687,25.4831797 55.0230224,29.1486127 57.4313613,31.3019339 C69.3997537,42.003 77.6406665,38.8746075 77.7113032,40.4909529 C78.0012392,47.1254152 77.3608048,60.8764309 75.79,81.744 C75.5492399,89.6989393 68.9396587,95.9719483 60.983,95.797 C53.1068717,95.6343541 46.8053925,89.2058056 46.8,81.328 C46.8,77.428 46.8,74.308 46.8,74.334 C46.8,74.36 36.53,72.605 34.437,59.202 C33.397,52.533 33.8,41.6 34.333,32.682 Z" id="Path" fill="#B78876" fill-rule="nonzero"></path>
                    <path d="M36.491,41.0326549 C36.4833052,42.5002869 37.2146942,43.7117055 38.142,43.767249 C38.5839124,43.8296805 39.0227491,43.6036184 39.3566462,43.1415369 C39.6905433,42.6794553 39.8904632,42.0215397 39.91,41.3205069 C39.9176948,39.852875 39.1863058,38.6414564 38.259,38.5859128 C37.8179241,38.5294083 37.381159,38.7575656 37.0481285,39.2184479 C36.7150979,39.6793302 36.51414,40.3337202 36.491,41.0326549 L36.491,41.0326549 Z" id="Path" fill="#263238" fill-rule="nonzero"></path>
                    <path d="M54.821,41.0326549 C54.8133052,42.5002869 55.5446942,43.7117055 56.472,43.767249 C56.9139124,43.8296805 57.3527491,43.6036184 57.6866462,43.1415369 C58.0205433,42.6794553 58.2204632,42.0215397 58.24,41.3205069 C58.2476948,39.852875 57.5163058,38.6414564 56.589,38.5859128 C56.1479241,38.5294083 55.711159,38.7575656 55.3781285,39.2184479 C55.0450979,39.6793302 54.84414,40.3337202 54.821,41.0326549 L54.821,41.0326549 Z" id="Path" fill="#263238" fill-rule="nonzero"></path>
                    <path d="M48.1,52.455 C47.1260856,52.1468676 49.179,37.128 48.971,37.05 C47.4360269,39.977153 46.1320604,43.0197415 45.071,46.15 C44.603,47.45 44.148,48.607 43.771,49.764 C43.4714799,50.3301098 43.3794978,50.9831829 43.511,51.61 C43.6522086,51.9466808 43.9394653,52.2004242 44.291,52.299 C44.5536978,52.3716427 44.8244902,52.4109513 45.097,52.416 C46.0925987,52.5522919 47.1011976,52.5653906 48.1,52.455 Z" id="Path" fill="#263238" fill-rule="nonzero" opacity="0.453892299" filter="url(#filter-11)"></path>
                    <path d="M53.2803384,54.5353567 C52.5556231,54.3060672 52.181618,43.3943225 53.2803384,38.9942112 C53.8469203,36.7251868 51.6110439,34.119191 51.5578221,34.0992329 C50.022849,37.0263859 47.4320604,43.0197415 46.371,46.15 C45.903,47.45 45.448,48.607 45.071,49.764 C44.7714799,50.3301098 44.6794978,50.9831829 44.811,51.61 C44.9522086,51.9466808 45.2394653,52.2004242 45.591,52.299 C45.8536978,52.3716427 46.1244902,52.4109513 46.397,52.416 C47.3925987,52.5522919 52.281536,54.6457473 53.2803384,54.5353567 Z" id="Path" fill="#B78876" fill-rule="nonzero"></path>
                    <path d="M46.8,74.334 C53.107896,74.4422628 59.3223311,72.79978 64.753,69.589 C64.753,69.589 60.203,78.767 46.8,77.48 L46.8,74.334 Z" id="Path" fill="#000000" fill-rule="nonzero" opacity="0.895531064" filter="url(#filter-12)"></path>
                    <path d="M48.893,56.914 C49.5929731,55.9866194 50.7273823,55.493398 51.883,55.614 C52.7081711,55.6936354 53.4668685,56.101084 53.989,56.745 C54.4942565,57.3804607 54.5462697,58.2646848 54.119,58.955 C53.5147806,59.636118 52.5530466,59.8739662 51.701,59.553 C50.8252008,59.2442982 50.0205384,58.762385 49.335,58.136 C49.1266641,57.9908778 48.949793,57.8051631 48.815,57.59 C48.6731592,57.3822333 48.6731592,57.1087667 48.815,56.901" id="Path" fill="#C53F3F" fill-rule="nonzero"></path>
                    <path d="M53.56,53.742 C53.261,53.742 53.248,55.731 51.532,57.148 C49.816,58.565 47.632,58.344 47.632,58.63 C47.632,58.916 48.113,59.02 49.01,59.046 C50.1874308,59.0689386 51.3346955,58.6726946 52.247,57.928 C53.1201544,57.2128737 53.6836363,56.1883611 53.82,55.068 C53.924,54.236 53.703,53.729 53.56,53.742 Z" id="Path" fill="#263238" fill-rule="nonzero"></path>
                    <path d="M134.352438,48.1006093 L134.467743,48.1137464 C135.837493,48.3758188 135.973422,49.3297624 135.461073,51.4682732 C134.948724,53.606784 136.653069,51.0279915 138.650185,48.8685149 C140.093127,47.2751147 141.839297,49.3716939 140.553196,51.4682732 C140.553196,51.4682732 142.738522,49.9482532 142.738522,52.0657983 C142.738522,54.1833433 138.889406,60.5531753 139.569053,60.783799 C140.2487,61.0144227 143.595922,56.5734436 144.934304,56.5105463 C145.697599,56.4790976 145.93809,57.6112504 144.934304,59.466723 C143.930518,61.3221956 136.32893,75.0023752 134.635041,76.9836426 L134.635041,76.9836426 L135.315231,83.2 L135.295,83.2 L137.33519,99.008 L123.540558,100.426561 C123.540558,100.426561 123.796876,90.3179133 123.012744,83.1996674 L122.993945,83.2 C122.701174,80.7260365 122.515023,78.4595881 122.284989,76.7823247 C121.605342,75.9751417 119.745548,73.8492566 119.609619,71.8050918 C119.442321,69.1843678 121.512784,56.5105463 121.512784,56.5105463 C121.512784,56.5105463 123.98027,54.1938262 124.492619,57.2338661 C124.755856,59.6147802 124.885019,62.0086776 124.879495,64.4041671 L124.879495,64.4041671 L130.055267,53.7849932 C131.215895,51.3948929 133.097994,47.851674 134.467743,48.1137464 Z" id="Combined-Shape" fill="#B78876" fill-rule="nonzero"></path>
                    <path d="M32.773,50.31 C32.773,50.31 34.983,52.702 39.845,51.987 C45.8492,51.8154094 51.8553733,52.250955 57.772,53.287 C62.855,54.249 69.966,51.844 69.966,51.844 L74.958,63.362 C74.958,63.362 64.766,76.206 47.788,76.1800394 C39.845,76.1800394 33.787,70.655 32.188,66.235 C30.589,61.815 32.773,50.31 32.773,50.31 Z" id="Path" fill="#EBEBEB" fill-rule="nonzero"></path>
                    <path d="M79.365,42.003 C79.365,42.003 79.17,42.003 78.78,42.003 C78.31509,42.1787769 77.8774121,42.4194997 77.48,42.718 C76.1664656,43.714312 74.9790695,44.8667848 73.944,46.15 C72.3892439,47.8507654 71.0768436,49.7581205 70.044,51.818 C71.6254625,50.1685598 73.1140885,48.4325527 74.503,46.618 C75.5211626,45.3811642 76.6245171,44.2169949 77.805,43.134 C78.1686687,42.8233858 78.5554525,42.5409032 78.962,42.289 C79.183,42.146 79.365,42.055 79.365,42.003 Z" id="Path" fill="#EBEBEB" fill-rule="nonzero"></path>
                    <path d="M73.814,63.7 C73.814,63.791 74.477,63.544 75.439,63.05 C76.7064488,62.4180434 77.882746,61.6178114 78.936,60.671 C80.0120323,59.7095417 80.8375195,58.5003146 81.341,57.148 C81.692,56.095 81.627,55.393 81.549,55.393 C81.295522,55.9030441 81.0740924,56.4283967 80.886,56.966 C80.3003281,58.1822763 79.4834661,59.2728974 78.481,60.177 C77.4543693,61.0853855 76.3542768,61.9071937 75.192,62.634 C74.308,63.271 73.775,63.7 73.814,63.7 Z" id="Path" fill="#EBEBEB" fill-rule="nonzero"></path>
                    <path d="M35.204,67.34 C35.5281299,67.6076148 35.8866523,67.8305982 36.27,68.003 C37.2784253,68.5182576 38.3260253,68.9529465 39.403,69.303 C46.6730931,71.75063 54.6628554,70.7453273 61.1,66.573 C62.0572437,65.9555524 62.9616721,65.2598382 63.804,64.493 C64.402,63.96 64.688,63.622 64.662,63.583 C64.636,63.544 63.284,64.714 60.84,66.183 C54.4443463,70.0555976 46.7091563,71.0425663 39.546,68.9 C36.829,68.081 35.256,67.223 35.204,67.34 Z" id="Path" fill="#263238" fill-rule="nonzero" filter="url(#filter-13)"></path>
                    <path d="M35.438,57.954 C36.736257,58.049203 38.039743,58.049203 39.338,57.954 C41.73,57.876 45.045,57.824 48.711,57.954 C52.377,58.084 55.666,58.344 58.058,58.565 C59.3485405,58.7633893 60.6523,58.8633442 61.958,58.864 C60.7082592,58.4818128 59.423602,58.2248813 58.123,58.097 C55.0119594,57.6500032 51.8784426,57.37658 48.737,57.278 C45.5980187,57.1722476 42.4555584,57.2460346 39.325,57.499 C38.0168338,57.5119175 36.7137842,57.6644483 35.438,57.954 Z" id="Path" fill="#263238" fill-rule="nonzero" filter="url(#filter-14)"></path>
                    <path d="M63.414,61.1 C57.083,64.649 49.452,64.727 42.211,64.584 C40.8423965,64.6215433 39.4746922,64.4817141 38.142,64.168 C36.8053517,63.8505845 35.6309277,63.0553052 34.84,61.932 C44.5146782,62.6039624 54.2302027,62.4038218 63.869,61.334" id="Path" fill="#E0E0E0" fill-rule="nonzero" filter="url(#filter-15)"></path>
                    <path d="M77.1063065,44.7895187 C77.3036093,42.9318396 79.3694474,42.7751341 83.303821,44.3194022 C86.9097656,45.7347598 87.3397177,52.1836652 83.6301796,56.3943494 C81.2686142,59.0749543 77.8584252,58.7684475 76.4500428,57.231273 L77.1063065,44.7895187 Z" id="Path-13" fill="#B78876"></path>
                </g>
                <g id="character-1--inject-174" transform="translate(0.000000, 61.100000)">
                    <path d="M26.442,322.933 C30.7233333,309.811667 35.0046667,296.699 39.286,283.595 C41.21,277.706 43.303,271.531 47.905,267.371 C50.583,264.953 54.678,263.38 57.798,265.213 C59.8734408,266.61105 61.1315506,268.937825 61.1652561,271.44 C61.1769873,273.904879 60.7681148,276.353718 59.956,278.681 C54.756,296.608 48.49,314.197 41.951,331.669 L42.614,330.46" id="Path" fill="#C19F7B" fill-rule="nonzero"></path>
                    <path d="M43.628,313.963 C42.1153007,313.8097 40.6458926,313.368436 39.299,312.663 C37.864282,312.175926 36.5392015,311.411796 35.399,310.414 C36.8414337,310.812973 38.23961,311.357434 39.572,312.039 C40.9883497,312.534816 42.3479871,313.179772 43.628,313.963 L43.628,313.963 Z" id="Path" fill="#263238" fill-rule="nonzero"></path>
                    <path d="M47.879,304.447 C46.2189635,304.054388 44.6062541,303.483402 43.069,302.744 C41.447647,302.219355 39.8873586,301.52202 38.415,300.664 C40.118663,300.883729 41.7770259,301.370709 43.329,302.107 C44.9573935,302.647383 46.4922566,303.436742 47.879,304.447 L47.879,304.447 Z" id="Path" fill="#263238" fill-rule="nonzero"></path>
                    <path d="M51.883,296.595 C51.766,296.751 49.712,295.438 46.982,294.268 C44.252,293.098 41.873,292.487 41.925,292.279 C43.7749327,292.345925 45.5885992,292.811536 47.242,293.644 C48.986901,294.274991 50.5714276,295.282519 51.883,296.595 Z" id="Path" fill="#263238" fill-rule="nonzero"></path>
                    <path d="M54.392,286.689 C54.262,286.845 52.494,285.389 50.011,284.089 C47.528,282.789 45.344,282.217 45.383,282.022 C47.1261074,282.093832 48.8238756,282.598694 50.323,283.491 C51.9245389,284.201429 53.3232192,285.300712 54.392,286.689 Z" id="Path" fill="#263238" fill-rule="nonzero"></path>
                    <rect id="Rectangle" fill="#73675B" fill-rule="nonzero" x="22.334" y="289.289" width="3.835" height="7.605"></rect>
                    <path d="M21.892,311.74 L21.892,295.88 L26.572,295.88 L26.572,309.101 C26.572,309.101 31.499,309.244 32.11,311.415 C33.41,316.173 32.864,326.898 32.864,326.898 L21.892,311.74 Z" id="Path" fill="#436D81" fill-rule="nonzero"></path>
                    <path d="M62.4,353.886 C61.1,345.917 59.033,338.039 58.656,329.966 C58.396,324.428 58.916,318.851 58.227,313.365 C57.395,306.735 54.847,300.482 52.312,294.307 C50.7,290.303 48.867,286.104 45.5,283.4 C43.4351996,281.842874 40.9352785,280.970174 38.35,280.904 L38.35,280.904 C33.644,278.98 20.748,278.434 16.666,287.079 C14.508,291.668 14.248,296.907 13.013,301.834 C11.349,308.49 12.545,310.674 10.413,317.174 C5.785,331.045 -1.287,348.27 0.819,362.752 C1.222,365.573 5.902,370.201 7.501,372.567 C9.802,375.96 14.001,377.481 18.018,378.339 C29.4409127,380.744142 41.3312659,379.488695 52,374.751 C55.822,373.048 59.618,370.721 61.555,366.951 C63.583,363.051 63.115,358.293 62.4,353.886 Z M50.141,309.14 C48.022,310.947 44.837,310.063 42.055,309.92 C38.701,309.751 35.425,310.843 32.11,311.415 C28.795,311.987 25.103,311.961 22.438,309.907 C20.4653395,308.237634 19.2241902,305.862653 18.98,303.29 C18.7590244,300.738881 18.9034825,298.169277 19.409,295.659 C19.6333831,293.679867 20.1321693,291.741601 20.891,289.9 C21.6719376,288.066423 23.1156788,286.594828 24.934,285.779 C27.079,284.713 34.866,283.985 37.856,283.543 C40.5191644,284.881057 42.8371247,286.816399 44.629,289.198 C47.0220769,292.528023 48.9629945,296.160686 50.401,300.001 C51.0802647,301.477451 51.5191355,303.052997 51.701,304.668 C51.9123837,306.32096 51.3346382,307.977164 50.141,309.14 L50.141,309.14 Z" id="Shape" fill="url(#linearGradient-16)" fill-rule="nonzero"></path>
                    <path d="M27.0030356,254.8 L42.3430992,258.433426 L41.4765455,264.607214 C41.4765455,264.607214 44.016163,273.784676 44.1912667,275.773477 L44.2222929,275.6 C44.2222929,275.6 45.1743439,281.162779 45.9236432,282.089909 C46.2288999,282.450152 46.4950032,282.845078 46.717019,283.267363 C46.8647998,283.618527 46.8124904,284.027229 46.5816795,284.324795 C46.3508686,284.62236 45.9806914,284.758335 45.6239235,284.676601 C45.006704,284.524331 43.7966749,284.185019 43.1553412,283.185599 C42.8607622,284.942607 42.5609582,286.652341 42.3430992,287.855068 C42.1261607,289.153781 40.8982081,290.049486 39.5680642,289.879261 C39.4864902,289.869892 39.4066374,289.849455 39.3307935,289.818535 C38.5289061,289.516008 37.9698772,288.795184 37.8865374,287.956278 C37.3820354,288.974645 36.2640004,289.55583 35.1218184,289.393455 C33.1720726,289.120189 33.1308082,286.751883 33.1308082,286.751883 C33.0208658,286.85436 32.903656,286.949059 32.7800603,287.03527 C32.0880086,287.520651 31.1827446,287.60158 30.4126699,287.246911 C29.6425952,286.892242 29.1277424,286.157259 29.0662587,285.324827 L28.9940459,284.252005 C28.5491068,284.976901 27.729713,285.39836 26.8689261,285.345069 C24.3208456,284.909868 24.7231741,279.201644 24.7231741,279.201644 L27.0030356,264.020198 L27.0030356,254.8 Z" id="Combined-Shape" fill="#FFBE9D" fill-rule="nonzero"></path>
                    <path d="M62.4,353.886 C61.1,345.917 59.033,338.039 58.656,329.966 C58.396,324.428 58.916,318.851 58.227,313.365 C57.395,306.735 54.847,300.482 52.312,294.307 C50.7,290.303 48.867,286.104 45.5,283.4 C43.4351996,281.842874 40.9352785,280.970174 38.35,280.904 L38.35,280.904 C33.644,278.98 20.748,278.434 16.666,287.079 C14.508,291.668 14.248,296.907 13.013,301.834 C11.349,308.49 12.545,310.674 10.413,317.174 C5.785,331.045 -1.287,348.27 0.819,362.752 C1.222,365.573 5.902,370.201 7.501,372.567 C9.802,375.96 14.001,377.481 18.018,378.339 C29.4409127,380.744142 41.3312659,379.488695 52,374.751 C55.822,373.048 59.618,370.721 61.555,366.951 C63.583,363.051 63.115,358.293 62.4,353.886 Z M50.141,309.14 C48.022,310.947 44.837,310.063 42.055,309.92 C38.701,309.751 35.425,310.843 32.11,311.415 C28.795,311.987 25.103,311.961 22.438,309.907 C20.4653395,308.237634 19.2241902,305.862653 18.98,303.29 C18.7590244,300.738881 18.9034825,298.169277 19.409,295.659 C19.6333831,293.679867 20.1321693,291.741601 20.891,289.9 C21.6719376,288.066423 23.1156788,286.594828 24.934,285.779 C27.079,284.713 34.866,283.985 37.856,283.543 C40.5191644,284.881057 42.8371247,286.816399 44.629,289.198 C47.0220769,292.528023 48.9629945,296.160686 50.401,300.001 C51.0802647,301.477451 51.5191355,303.052997 51.701,304.668 C51.9123837,306.32096 51.3346382,307.977164 50.141,309.14 L50.141,309.14 Z" id="Shape"></path>
                    <path d="M53.651,342.914 C53.4654743,341.459066 52.5621189,340.194368 51.246,339.547 C49.244,338.689 46.891,339.885 45.474,341.549 C44.057,343.213 43.225,345.293 41.925,347.048 C39.5956291,350.087593 35.9784628,351.862505 32.149,351.845 C27.56,351.845 22.971,349.141 18.59,350.545 C17.040307,350.894663 15.8575901,352.149371 15.6,353.717 C15.6923859,354.79137 16.1896173,355.79048 16.991,356.512 C19.1849719,358.851883 22.0673459,360.431952 25.22,361.023 C30.6768793,360.84542 36.0448043,359.590695 41.015,357.331 C46.787,354.887 51.025,351.832 53.001,347.113 C53.6020683,345.800454 53.8270846,344.346849 53.651,342.914 Z" id="Path" fill="#000000" fill-rule="nonzero" opacity="0.175106957" filter="url(#filter-17)"></path>
                    <path d="M209.124778,61.8415216 C209.05862,61.8379796 207.871894,58.2066494 207.347888,57.4098495 C206.157014,55.5990169 205.12636,53.5294614 204.739268,53.5489133 C204.015384,53.5852895 203.420883,54.1304578 203.326001,54.8449053 C202.381476,54.05408 201.777832,52.6207092 201.515069,50.5447928 C201.248755,48.4265108 200.258069,48.4265108 199.38456,49.0090383 C198.594011,49.5326526 198.078711,50.3787931 197.978424,51.3179657 C197.296661,53.4997962 196.898966,53.2032367 196.785339,50.4282873 C196.678814,47.9393059 195.720085,47.865166 194.803966,48.3100053 C193.979306,48.7335853 193.403172,49.5182815 193.248695,50.4282873 L191.000199,66.4661944 C189.519495,62.9498463 184.97913,61.2533318 183.466469,63.0538715 C182.188164,64.6214002 188.689406,66.1353484 188.753321,77.4787486 L188.753321,81.9515332 L199.048091,88.4 C200.113345,86.101664 201.195493,85.0939725 201.68551,83.6959063 C202.378359,83.3125827 203.031347,82.8620167 203.634925,82.3507972 C206.564375,79.8512245 208.279434,69.8847076 208.748146,68.1265335 C209.315362,66.3305982 209.453374,61.8591136 209.124778,61.8415216 Z" id="Path" fill="#FFBE9D" fill-rule="nonzero"></path>
                    <path d="M86.7463078,457.249 L87.2840462,482.149606 C87.2840462,482.149606 68.0972272,490.687803 67.7672514,495.3 L108.459,495.3 L109.148,457.485523 L86.7463078,457.249 Z" id="Path" fill="url(#linearGradient-18)" fill-rule="nonzero"></path>
                    <g id="Group" opacity="0.6" transform="translate(59.800000, 491.400000)" fill="#FFFFFF" fill-rule="nonzero">
                        <path d="M48.659,4.849 L48.568,0.949 L2.86,1.807 C2.86,1.807 0.728,2.704 0.949,4.212 L48.659,4.849 Z" id="Path"></path>
                    </g>
                    <g id="Group" opacity="0.3" transform="translate(84.500000, 461.500000)" fill="#000000" fill-rule="nonzero">
                        <polygon id="Path" points="0.936 1.027 1.027 5.421 24.479 5.499 24.583 0.442"></polygon>
                    </g>
                    <path d="M85.579,471.419 C86.3624765,471.629224 87.1875235,471.629224 87.971,471.419 C88.834222,471.281029 89.676992,471.036495 90.48,470.691 C90.9547726,470.483681 91.415135,470.244814 91.858,469.976 C92.1353741,469.83377 92.3860668,469.644651 92.599,469.417 C92.9540072,469.072174 93.0037323,468.519673 92.716,468.117 C92.4814502,467.787046 92.1065764,467.585191 91.702,467.571 C91.3988614,467.565464 91.0965763,467.604892 90.805,467.688 C90.2906655,467.799578 89.789553,467.965163 89.31,468.182 C88.4983707,468.559376 87.7522897,469.064078 87.1,469.677 C85.982,470.678 85.592,471.549 85.67,471.601 C85.748,471.653 86.32,470.951 87.464,470.119 C88.1236602,469.635145 88.8450511,469.241659 89.609,468.949 C90.0547723,468.772021 90.5161126,468.637101 90.987,468.546 C91.494,468.416 91.923,468.416 92.053,468.637 C92.183,468.858 92.053,468.767 92.053,468.91 C91.8945142,469.067978 91.7151896,469.203565 91.52,469.313 C91.1056216,469.580518 90.6709641,469.815233 90.22,470.015 C89.4779325,470.374466 88.7030374,470.661786 87.906,470.873 C87.1175114,470.995222 86.3395619,471.177757 85.579,471.419 Z" id="Path" fill="#263238" fill-rule="nonzero"></path>
                    <path d="M166.993943,458.536 L166.993943,482.85209 C166.993943,482.85209 187.531581,491.686 187.765581,496.249 L148.421,496.873 L148.291,458.536 L166.993943,458.536 Z" id="Path" fill="url(#linearGradient-19)" fill-rule="nonzero"></path>
                    <g id="Group" opacity="0.6" transform="translate(148.200000, 492.700000)" fill="#FFFFFF" fill-rule="nonzero">
                        <path d="M0.221,4.173 L0.364,0.273 L46.046,1.794 C46.046,1.794 48.178,2.73 47.931,4.225 L0.221,4.173 Z" id="Path"></path>
                    </g>
                    <path d="M164.34934,316.537 C168.211921,352.083085 169.30139,405.289924 167.61775,476.157519 L148.2,476.807519 L114.384852,313.963 L109.2,478.211419 L85.598228,472.8295 C72.3121091,398.844013 64.3626998,347.650626 61.75,319.249339 C59.1373002,290.848053 58.4873002,259.540172 59.8,225.325696 L143.923,221.455 C153.67798,249.296915 160.48676,280.990915 164.34934,316.537 Z" id="Path" fill="url(#linearGradient-20)" fill-rule="nonzero"></path>
                    <path d="M187.473,78 C178.529352,99.40936 170.902685,110.632693 164.593,111.67 C156.245017,113.042401 138.828107,90.9950055 132.969714,88.4584472 C115.756574,81.0055271 91.598,81.666 91.598,81.666 L66.3,86.333 L62.738,84.162 C61.8057018,84.8628311 36.9751815,91.0525091 27.9198119,118.04 C21.7507796,136.425412 21.2581757,184.111545 26.442,261.098399 L41.9241632,263.222326 C47.6528044,238.058603 50.83375,220.947268 51.467,211.888322 C52.10025,202.829376 53.7079166,189.27513 56.29,171.225585 L57.5503241,183.352 L58.656,221.455 L60.762,227.877 L144.534,225.641 C138.826189,199.409211 134.971427,179.735878 132.969714,166.621 C132.200252,161.579619 132.200252,151.105953 132.969714,135.2 C132.969714,135.2 149.955286,147.449694 173.08537,141.216662 C173.307064,141.156921 174.041265,141.281187 174.263167,141.216662 C197.636879,134.42 202.070277,87.1600979 202.070277,87.1600979 L187.473,78 Z" id="Path" fill="url(#linearGradient-21)" fill-rule="nonzero"></path>
                    <g id="Group" opacity="0.3" transform="translate(162.500000, 109.200000)" fill="#000000" fill-rule="nonzero">
                        <path d="M1.87953158,-7.38964445e-14 C-0.161468425,1.677 -0.213468425,4.758 0.215531575,7.371 C1.21152708,13.3637399 3.77215959,18.9872656 7.63853158,23.673 C8.23653158,24.401 9.05553158,25.155 9.97853158,24.973 C10.9015316,24.791 11.3695316,23.387 11.2785316,22.373 C10.9796436,20.3648889 10.3001481,18.4322978 9.27653158,16.679 L1.12553158,0.481" id="Path" filter="url(#filter-22)"></path>
                    </g>
                    <g id="Group" opacity="0.3" transform="translate(55.900000, 136.500000)" fill="#000000" fill-rule="nonzero">
                        <path d="M3.029,76.518 C6.7959005,73.4076102 9.27805908,69.0128928 9.997,64.181 C10.7058614,59.388403 10.7058614,54.517597 9.997,49.725 C8.06,32.916 4.017,16.432 1.84741111e-14,-1.10844667e-13 C1.118,26 2.24033333,51.9696667 3.367,77.909" id="Path" filter="url(#filter-23)"></path>
                    </g>
                    <g id="Group" opacity="0.3" transform="translate(32.200000, 183.300000)" fill="#000000" fill-rule="nonzero">
                        <path d="M2.016,10.543 C1.81473887,9.19047558 1.41157987,7.87582667 0.82,6.643 C0.224282917,5.40226448 -0.0185800597,4.02154348 0.118,2.652 C0.309674394,1.26433378 1.42788665,0.189129696 2.822,0.052 C4.577,0.052 5.63,1.924 6.423,3.497 C8.32002347,7.25673898 10.8235531,10.6782294 13.833,13.624 C14.8731465,14.5163164 15.7525594,15.580406 16.433,16.77 C17.140461,18.027623 16.9679144,19.5962283 16.004,20.67 C14.704,21.97 12.429,21.229 10.804,20.293 C6.5742079,17.9413414 3.34094047,14.1353238 1.704,9.581" id="Path" filter="url(#filter-24)"></path>
                    </g>
                    <g id="Group-4" transform="translate(46.800000, 0.000000)">
                        <path d="M15.0955782,83.7721876 C16.4102465,91.7712703 23.7118487,97.3738251 31.7786082,96.5731576 C40.1383904,95.7372289 46.2806868,88.3478767 45.5746632,79.9761226 L44.7638532,70.4429626 C44.7638532,70.4429626 56.8522932,67.4699926 55.9432032,55.1972776 C55.7860819,53.0935988 55.7383462,35.474052 52.3185309,27.5614043 C51.8311432,26.4337038 51.6495757,22.5362532 48.5168538,19.5150299 C42.0508798,13.2791903 30.029274,6.68765255 25.9678032,7.23663764 L27.8965482,12.5741512 C21.8110282,13.4611774 14.4145605,11.4351636 10.8092497,16.4173422 C7.20393887,21.3995207 5.76781177,27.6284501 6.82777315,33.6862426 L15.0955782,83.7721876 Z" id="Path" fill="#FFBE9D" fill-rule="nonzero"></path>
                        <path d="M44.8252782,70.4675326 C39.1742319,71.0646558 33.4733674,69.9655394 28.4493732,67.3102876 C28.4493732,67.3102876 32.9948232,75.8115076 45.1324032,73.6370626 L44.8252782,70.4675326 Z" id="Path" fill="#263238" fill-rule="nonzero" opacity="0.376674107" filter="url(#filter-25)"></path>
                        <path d="M49.5379629,33.5722978 C49.6250899,35.2916221 48.9464701,36.8277239 48.0023379,37.0482884 C47.5551806,37.1823784 47.0971052,36.983699 46.7317673,36.4972084 C46.3664294,36.0107178 46.1247105,35.2775383 46.0613079,34.4635774 C45.9741809,32.7442532 46.6528008,31.2081514 47.5969329,30.9875869 C48.0440903,30.8534969 48.5021656,31.0521762 48.8675035,31.5386668 C49.2328414,32.0251574 49.4745604,32.7583369 49.5379629,33.5722978 Z" id="Path" fill="#263238" fill-rule="nonzero"></path>
                        <path d="M29.6655882,39.4418441 C29.2184308,39.5759301 28.7603555,39.3772567 28.3950175,38.8907809 C28.0296796,38.4043051 27.7879607,37.671148 27.7245582,36.8572118 C27.6235772,35.1383871 28.3018619,33.5907094 29.2478982,33.381327 C29.6964624,33.2470048 30.1559765,33.4450757 30.5232578,33.9310635 C30.8905391,34.4170512 31.1348075,35.1502273 31.2012132,35.9659593 C31.2883402,37.6852313 30.6097203,39.2212864 29.6655882,39.4418441 Z" id="Path" fill="#263238" fill-rule="nonzero"></path>
                        <path d="M36.9874482,32.3226076 C37.1962932,32.2243276 39.3215982,36.2292376 41.7540282,41.2783726 C42.3437082,42.5068726 42.9088182,43.7353726 43.4370732,44.8533076 C43.7933115,45.401953 43.9414722,46.0599608 43.8547632,46.7083426 C43.7400394,47.0652902 43.4685934,47.3503085 43.1176632,47.4822976 C42.860505,47.5777558 42.5921215,47.6396904 42.3191382,47.6665726 C41.2980348,47.884081 40.25462,47.9789369 39.2110332,47.9491276 C40.1752444,47.547946 36.7786032,32.4208876 36.9874482,32.3226076 Z" id="Path" fill="#263238" fill-rule="nonzero" opacity="0.618536086" filter="url(#filter-26)"></path>
                        <path d="M34.1336451,27.0069777 C34.3424901,26.9086977 39.3215982,36.2292376 41.7540282,41.2783726 C42.3437082,42.5068726 42.9088182,43.7353726 43.4370732,44.8533076 C43.7933115,45.401953 43.9414722,46.0599608 43.8547632,46.7083426 C43.7400394,47.0652902 43.4685934,47.3503085 43.1176632,47.4822976 C42.860505,47.5777558 42.5921215,47.6396904 42.3191382,47.6665726 C41.2980348,47.884081 38.031035,50.33071 36.9874482,50.3009008 C37.4561633,50.1058814 33.0143162,46.1133755 32.8771861,41.805523 C32.7322209,37.2515335 34.0263223,27.0574825 34.1336451,27.0069777 Z" id="Path" fill="#FFBE9D" fill-rule="nonzero"></path>
                        <path d="M55.4763732,46.9171876 C55.4763732,46.9171876 53.3879232,49.1776276 48.7933332,48.5019526 C43.1193642,48.3397996 37.4435304,48.7513901 31.8523182,49.7304526 C27.0488832,50.6395426 20.3289882,48.3791026 20.3289882,48.3791026 L15.6115482,59.2021876 C15.6115482,59.2021876 25.2429882,71.3397676 41.2871982,71.3152349 C48.7933332,71.3152349 54.5181432,66.0940726 56.0291982,61.9171726 C57.5402532,57.7402726 55.4763732,46.9171876 55.4763732,46.9171876 Z" id="Path" fill="#EBEBEB" fill-rule="nonzero"></path>
                        <path d="M11.4469332,39.0793576 C11.4469332,39.0793576 11.6312082,39.0793576 11.9874732,39.0793576 C12.4276686,39.2436067 12.8415314,39.4712313 13.2159732,39.7550326 C14.4594108,40.7029548 15.5853038,41.7958545 16.5697782,43.0105576 C18.0439821,44.6183668 19.284642,46.4255947 20.2552782,48.3791026 C18.7680165,46.8138485 17.3616025,45.1737156 16.0415232,43.4651026 C15.0822633,42.2899013 14.0394234,41.1854764 12.9211332,40.1604376 C12.5774663,39.8669072 12.2119555,39.5999612 11.8277682,39.3619126 C11.6557782,39.2144926 11.4469332,39.1284976 11.4469332,39.0793576 Z" id="Path" fill="#EBEBEB" fill-rule="nonzero"></path>
                        <path d="M16.6926282,59.6321626 C16.6926282,59.7058726 16.0660932,59.4724576 15.1570032,59.0056276 C13.9605024,58.4013167 12.8492897,57.6412307 11.8523382,56.7451926 C10.8375544,55.829899 10.0580194,54.6837719 9.57961315,53.4036676 C9.24791815,52.4085826 9.29705815,51.7574776 9.38305315,51.7451926 C9.62381507,52.2308333 9.83309206,52.7314567 10.0095882,53.2439626 C10.5644013,54.3889484 11.3362601,55.415312 12.2823132,56.2660726 C13.255822,57.1240724 14.2950346,57.9045087 15.3904182,58.6002226 C16.2257982,59.2021876 16.7294832,59.5461676 16.6926282,59.6321626 Z" id="Path" fill="#EBEBEB" fill-rule="nonzero"></path>
                        <path d="M53.1790782,63.0228226 C52.8765804,63.2809662 52.5369962,63.492171 52.1717082,63.6493576 C51.2187463,64.1362761 50.2287642,64.547057 49.2110232,64.8778576 C42.3407852,67.1908679 34.7904598,66.240857 28.7073582,62.2980076 C27.809328,61.741489 26.9550867,61.1172358 26.1520782,60.4306876 C25.8397596,60.186817 25.5663614,59.8968493 25.3412682,59.5707376 C25.4149782,59.4724576 26.6434782,60.6272476 28.9530582,62.0277376 C35.0049635,65.6675081 42.3111969,66.5863629 49.0758882,64.5584476 C51.6434532,63.7230676 53.1299382,62.8876876 53.1790782,63.0228226 Z" id="Path" fill="#263238" fill-rule="nonzero" filter="url(#filter-27)"></path>
                        <path d="M52.9579482,54.1530526 C51.7310953,54.2430195 50.499301,54.2430195 49.2724482,54.1530526 C47.0120082,54.0793426 43.8793332,54.0302026 40.4149632,54.1530526 C36.9505932,54.2759026 33.8424882,54.5216026 31.5820482,54.7304476 C30.3624496,54.9175966 29.1304219,55.012052 27.8965482,55.0130026 C29.0974834,54.6478166 30.3322615,54.4049769 31.5820482,54.2881876 C34.5219815,53.8657757 37.4831549,53.6073908 40.4518182,53.5142326 C43.4181563,53.4144573 46.3877721,53.4841858 49.3461582,53.7230776 C50.5613218,53.7469429 51.7711438,53.8909693 52.9579482,54.1530526 Z" id="Path" fill="#263238" fill-rule="nonzero" filter="url(#filter-28)"></path>
                        <path d="M26.5206282,57.1260226 C32.5402782,60.4306876 39.7147182,60.5535376 46.5574632,60.4306876 C47.851066,60.4558942 49.1427646,60.3197087 50.4026682,60.0252826 C51.6681487,59.7306818 52.779734,58.9779548 53.5230582,57.9122626 C44.3804905,58.5474002 35.1993079,58.358267 26.0906532,57.3471526" id="Path" fill="#E0E0E0" fill-rule="nonzero" filter="url(#filter-29)"></path>
                        <path d="M13.7243922,43.1062378 L14.8400452,33.3402421 C15.0595405,27.9128425 16.8646182,24.8006952 20.2552782,24.0038002 C25.3412682,22.8084577 35.2080528,23.3466018 37.7080518,24.0038002 C40.2080508,24.6609985 50.7618305,27.7780102 55.992023,21.6596807 C61.2222155,15.5413512 59.550145,6.31417102 57.771084,3.91964551 C55.992023,1.52512001 51.7338841,-1.14255806 46.8113772,0.787752092 C41.8888703,2.71806225 43.8789428,6.00645433 43.8789428,6.00645433 C42.5442268,2.15639528 41.190067,0.172158693 39.8164632,0.0537445747 C36.7623391,-0.260212859 34.807866,0.801353714 33.9530441,3.23844429 C32.6708112,6.89408016 26.7766685,0.339858689 23.8987253,1.78915149 C21.0207822,3.23844429 20.2552782,4.80836602 20.2552782,6.00645433 C20.2552782,7.20454263 17.0538452,10.4628326 11.4469332,8.83368764 C5.84002113,7.20454263 0.463291054,17.317563 1.16657491,20.6606816 C1.86985876,24.0038002 0.904463656,28.5531331 0.234783809,30.9466876 C-0.434896038,33.3402421 -0.0463045086,51.0771082 6.48699327,56.4772721 C10.8425251,60.0773813 12.2743945,60.0773813 10.7826014,56.4772721 L7.67297296,38.8986474 L13.7243922,43.1062378 Z" id="Path-12" fill="url(#linearGradient-30)"></path>
                        <path d="M11.4469332,39.0793576 C11.2380882,39.0179326 2.84743315,37.3226026 3.80566315,45.6886876 C4.76389315,54.0547726 12.9825582,51.3152176 12.9702869,51.0818026 C12.9579882,50.8483876 11.4469332,39.0793576 11.4469332,39.0793576 Z" id="Path" fill="#FFBE9D" fill-rule="nonzero"></path>
                    </g>
                </g>
            </g>
        </g>
    </g>
</svg>