<?xml version="1.0" encoding="UTF-8"?>
<svg width="111px" height="193px" viewBox="0 0 111 193" version="1.1" xmlns="http://www.w3.org/2000/svg" xmlns:xlink="http://www.w3.org/1999/xlink">
    <!-- Generator: Sketch 64 (93537) - https://sketch.com -->
    <title>Sanitizer</title>
    <desc>Created with Sketch.</desc>
    <g id="Page-1" stroke="none" stroke-width="1" fill="none" fill-rule="evenodd">
        <g id="Icons-01" transform="translate(-1341.000000, -27.000000)" fill-rule="nonzero">
            <g id="Sanitizer" transform="translate(1342.000000, 28.000000)">
                <path d="M108.72,129.93 L108.72,176.24 C108.72,184.376127 102.136098,190.977951 94,191 L31,191 C22.8482771,191 16.24,184.391723 16.24,176.24 L16.24,139 C34.03,138.41 68.54,136.36 95.87,129.33 C101.34,127.89 105.56,128.25 108.72,129.93 Z" id="Path" fill="#EAEAEA"></path>
                <path d="M108.72,89.47 L108.72,176.24 C108.72,184.376127 102.136098,190.977951 94,191 L31,191 C22.8482771,191 16.2399983,184.391723 16.2399983,176.24 L16.2399983,89.47 C16.2373462,81.6293873 19.3508422,74.1091436 24.8949929,68.5649929 C30.4391436,63.0208422 37.9593873,59.9073462 45.8,59.91 L42.13,59.91 L42.13,50 L82.89,50 L82.89,59.92 L79.21,59.92 C95.5121045,59.9475737 108.714508,73.1678731 108.72,89.47 L108.72,89.47 Z" id="Path" stroke="#000000" stroke-width="2" stroke-linecap="round" stroke-linejoin="round"></path>
                <rect id="Rectangle" stroke="#000000" stroke-width="2" fill="#FFFFFF" stroke-linecap="round" x="58.37" y="8.13" width="7.71" height="16.52"></rect>
                <path d="M49.36,24.1499873 L75.56,24.1499873 C77.8298903,24.1499873 79.67,25.9901097 79.67,28.26 L79.67,34 L45.239805,34 L45.239805,28.3 C45.2293033,27.2013105 45.6589689,26.1440808 46.4330731,25.36434 C47.2071772,24.5845992 48.2612619,24.1472746 49.36,24.1499873 L49.36,24.1499873 Z" id="Path" stroke="#000000" stroke-width="2" fill="#FFFFFF" stroke-linecap="round"></path>
                <rect id="Rectangle" stroke="#000000" stroke-width="2" fill="#FFFFFF" stroke-linecap="round" x="34.78" y="31.27" width="55.36" height="23.13" rx="5.96"></rect>
                <path d="M81.5,13.26 L14.2,13.26 L14.2,18.05 L3.87,18.05 C1.32,10.05 4.48,5.48 12.12,4.78 C27.71,3.36 68,-1.49289409e-06 68,-1.49289409e-06 C73.4011591,-0.00258900242 78.2311742,3.36245454 80.1,8.43 L81.5,13.26 Z" id="Path" stroke="#000000" stroke-width="2" fill="#FFFFFF" stroke-linecap="round"></path>
                <path d="M73.55,117.5 L69.08,117.5 L69.08,113 C69.08,109.824363 66.5056373,107.25 63.33,107.25 C60.1543627,107.25 57.58,109.824363 57.58,113 L57.58,117.47 L53.1,117.47 C49.9243627,117.47 47.35,120.044363 47.35,123.22 C47.35,126.395637 49.9243627,128.97 53.1,128.97 L57.58,128.97 L57.58,133.44 C57.58,136.615637 60.1543627,139.19 63.33,139.19 C66.5056373,139.19 69.08,136.615637 69.08,133.44 L69.08,129 L73.55,129 C76.7256373,129 79.3,126.425637 79.3,123.25 C79.3,120.074363 76.7256373,117.5 73.55,117.5 L73.55,117.5 Z" id="Path" stroke="#ED1C24" stroke-width="2" fill="#FFFFFF" stroke-linecap="round"></path>
                <path d="M9.56,24.65 C9.50029872,24.397272 9.27468382,24.2187439 9.015,24.2187439 C8.75531618,24.2187439 8.52970128,24.397272 8.47,24.65 C7.43275879,28.8859847 5.81405912,32.9579735 3.66,36.75 C-1.2,45.48 -1.2,56.65 8.99,56.65 C18.22,56.65 18.7,48.4 14.33,36.75 C13,33.16 11.42,31.87 9.56,24.65 Z" id="Path" stroke="#000000" stroke-width="2" fill="#FFFFFF" stroke-linecap="round"></path>
            </g>
        </g>
    </g>
</svg>