<?xml version="1.0" encoding="UTF-8"?>
<svg width="202px" height="221px" viewBox="0 0 202 221" version="1.1" xmlns="http://www.w3.org/2000/svg" xmlns:xlink="http://www.w3.org/1999/xlink">
    <!-- Generator: Sketch 64 (93537) - https://sketch.com -->
    <title>Female_Mask</title>
    <desc>Created with Sketch.</desc>
    <g id="Page-1" stroke="none" stroke-width="1" fill="none" fill-rule="evenodd">
        <g id="Icons-01" transform="translate(-364.000000, -2.000000)">
            <g id="Female_Mask" transform="translate(364.000000, 3.000000)">
                <path d="M161.61,60 C157.559589,52.6270052 153.054213,45.5132533 148.12,38.7 C145.31,31.58 140.28,25.29 134.49,20.18 C130.10547,16.3485824 125.273735,13.0613914 120.1,10.39 L119.73,10.11 L119.65,10.11 C105.771004,3.1510401 90.279196,0.0430091434 74.79,1.11 C70.7,1.38 66.54,1.93 62.86,3.73 C60.1673878,5.15903539 57.7034996,6.98251491 55.55,9.14 C55.3691186,9.08418147 55.1855554,9.03745628 55,9 C42.85,4.66 26.15,44.53 22,68 C16.32,100.13 20.79,124.06 36.6,152.72 C40.9663699,160.337962 46.1285904,167.471212 52,174 C61.36,184.74 66.95,164.77 79.75,170.81 C92.55,176.85 107.92,178.49 120.62,172.5 C124.415023,170.856972 127.69686,168.221139 130.12,164.87 C132.42,161.42 133.45,167.87 142.96,173.97 C154.37,181.33 156.71,180.36 160.96,179.97 C168.24,179.3 175.65,174.97 179.39,168.66 C184,161 186.8,151.76 187,144 C188,106 178.77,91 161.61,60 Z" id="Path" stroke="#000000" stroke-width="2" fill="#FDFEFE" fill-rule="nonzero"></path>
                <path d="M115.48,129.84 C116.24,139.6 125.86,147.48 135.48,149.51 C145.1,151.54 154.99,149.87 164.78,149.66 C174.57,149.45 185.24,151.09 192.04,158.14 C196.83,163.14 199.04,170.06 200.04,176.88 C202.04,190.37 200.29,206.43 194.9,218.97 L1.19,218.55 C0.25,207.29 5.91,189.55 12.27,180.24 C15.17,175.99 18.33,171.78 22.57,168.85 C30.78,163.17 41.46,163.21 51.32,161.65 C61.18,160.09 72.13,155.3 74.53,145.65" id="Path" stroke="#0D0D0D" stroke-width="2" fill="#FDFEFE" fill-rule="nonzero"></path>
                <path d="M115.67,129.92 C116.39,139.7 125.98,147.61 135.55,149.68 C145.12,151.75 155.06,150.13 164.86,149.96 C174.66,149.79 185.31,151.48 192.08,158.56 C196.85,163.56 198.97,170.51 199.98,177.33 C201.98,190.84 200.1,206.89 194.66,219.41 L1,218.14 C0.11,206.88 5.85,189.19 12.25,179.88 C15.16,175.64 18.34,171.45 22.59,168.54 C30.82,162.89 41.51,162.97 51.37,161.46 C61.23,159.95 72.21,155.2 74.65,145.52" id="Path" fill-rule="nonzero"></path>
                <rect id="Rectangle" stroke="#0D0D0D" stroke-width="2" fill="#FFFFFF" fill-rule="nonzero" x="75" y="86" width="41" height="76" rx="20.5"></rect>
                <path d="M123.41,80.52 C123.41,80.35 123.41,80.17 123.41,80 C123.41,46.31 103.3,19 78.49,19 C53.68,19 33.57,46.31 33.57,80 C33.57,113.69 53.68,141 78.49,141 C98.33,141 115.15,123.53 121.1,99.31 C121.722333,99.4345721 122.355324,99.4982061 122.99,99.5 C128.236705,99.6132184 132.581782,95.4517051 132.695,90.205 C132.808218,84.9582949 128.646705,80.6132184 123.4,80.5 L123.41,80.52 Z" id="Path" stroke="#0D0D0D" stroke-width="2" fill="#FFFFFF" fill-rule="nonzero"></path>
                <ellipse id="Oval" fill="#0D0D0D" fill-rule="nonzero" cx="40" cy="74" rx="3" ry="4"></ellipse>
                <ellipse id="Oval" fill="#0D0D0D" fill-rule="nonzero" cx="74" cy="73" rx="3" ry="4"></ellipse>
                <line x1="83" y1="95" x2="123" y2="81" id="Path" stroke="#000000" stroke-width="2" stroke-linecap="round"></line>
                <path d="M84,94 C84,94 62.52,92.26 53.41,84.55 C44.3,76.84 20.41,101.25 30,123 C41.43,149 80,143.13 90.09,123.17 L84,94 Z" id="Path" stroke="#000000" stroke-width="2" fill="#FFFFFF" fill-rule="nonzero"></path>
                <path d="M49,21 C49,21 100,-1.77635684e-15 116,32 C127.35,54.71 129.38,67.45 128,72 C127.58,73.37 122.08,74.95 121,74 C121,74 102,73 92,68 C77.11,60.56 54.65,32.09 53.83,31 C53.01,29.91 40,24 49,21 Z" id="Path" fill="#FFFFFF" fill-rule="nonzero"></path>
                <line x1="90" y1="123" x2="117" y2="112" id="Path" stroke="#000000" stroke-width="2"></line>
                <circle id="Oval" stroke="#FFFFFF" stroke-width="2" fill="#ED1C24" fill-rule="nonzero" stroke-linecap="round" cx="60.5" cy="116.5" r="9.5"></circle>
                <path d="M34,31.08 C41.36,27.16 49.4,27.41 56.28,32.72 C62.84,37.78 66.94,45.31 72.21,51.72 C82.0609491,63.5454466 95.8897339,71.3683642 111.1,73.72 C118.7,74.88 131,75 137,68" id="Path" stroke="#000000" stroke-width="2" stroke-linecap="round"></path>
                <line x1="53.83" y1="76.87" x2="49.5" y2="83.13" id="Path" stroke="#0D0D0D" stroke-width="2" stroke-linecap="round"></line>
                <path d="M124.57,84.74 C127.521396,85.1602186 129.587476,87.8738313 129.207275,90.8306486 C128.827073,93.787466 126.141696,95.8901142 123.18,95.55" id="Path" stroke="#000000" stroke-linecap="round"></path>
            </g>
        </g>
    </g>
</svg>