<?xml version="1.0" encoding="UTF-8"?>
<svg width="681px" height="388px" viewBox="0 0 681 388" version="1.1" xmlns="http://www.w3.org/2000/svg" xmlns:xlink="http://www.w3.org/1999/xlink">
    <!-- Generator: Sketch 64 (93537) - https://sketch.com -->
    <title>online consulting</title>
    <desc>Created with Sketch.</desc>
    <defs>
        <linearGradient x1="104.725573%" y1="62.2839767%" x2="-17.4821331%" y2="37.1050259%" id="linearGradient-1">
            <stop stop-color="#DBE2E4" offset="0%"></stop>
            <stop stop-color="#F4F4F4" offset="100%"></stop>
        </linearGradient>
        <linearGradient x1="0%" y1="64.4541167%" x2="93.0135258%" y2="38.0553899%" id="linearGradient-2">
            <stop stop-color="#09203F" offset="0%"></stop>
            <stop stop-color="#537895" offset="100%"></stop>
        </linearGradient>
        <linearGradient x1="0%" y1="50.0941187%" x2="93.0135258%" y2="49.9222221%" id="linearGradient-3">
            <stop stop-color="#09203F" offset="0%"></stop>
            <stop stop-color="#537895" offset="100%"></stop>
        </linearGradient>
        <linearGradient x1="113.516185%" y1="49.5052991%" x2="22.7652026%" y2="50.4947009%" id="linearGradient-4">
            <stop stop-color="#1E9DD7" offset="0%"></stop>
            <stop stop-color="#075D98" offset="100%"></stop>
        </linearGradient>
        <linearGradient x1="113.516185%" y1="0%" x2="22.7652026%" y2="100%" id="linearGradient-5">
            <stop stop-color="#1E9DD7" offset="0%"></stop>
            <stop stop-color="#075D98" offset="100%"></stop>
        </linearGradient>
        <linearGradient x1="113.516185%" y1="0%" x2="22.7652026%" y2="100%" id="linearGradient-6">
            <stop stop-color="#1E9DD7" offset="0%"></stop>
            <stop stop-color="#075D98" offset="100%"></stop>
        </linearGradient>
        <linearGradient x1="113.516185%" y1="13.054968%" x2="22.7652026%" y2="86.945032%" id="linearGradient-7">
            <stop stop-color="#1E9DD7" offset="0%"></stop>
            <stop stop-color="#075D98" offset="100%"></stop>
        </linearGradient>
        <linearGradient x1="51.4234821%" y1="96.5616849%" x2="39.6562336%" y2="3.69313871%" id="linearGradient-8">
            <stop stop-color="#DBE2E4" offset="0%"></stop>
            <stop stop-color="#F4F4F4" offset="100%"></stop>
        </linearGradient>
        <linearGradient x1="63.2917056%" y1="-75.2121442%" x2="47.1291432%" y2="100%" id="linearGradient-9">
            <stop stop-color="#1E9DD7" offset="0%"></stop>
            <stop stop-color="#075D98" offset="100%"></stop>
        </linearGradient>
        <filter x="-17.5%" y="-33.4%" width="135.0%" height="166.9%" filterUnits="objectBoundingBox" id="filter-10">
            <feGaussianBlur stdDeviation="2.97" in="SourceGraphic"></feGaussianBlur>
        </filter>
        <filter x="-70.1%" y="-7.9%" width="240.2%" height="115.9%" filterUnits="objectBoundingBox" id="filter-11">
            <feGaussianBlur stdDeviation="1.98" in="SourceGraphic"></feGaussianBlur>
        </filter>
        <filter x="-49.7%" y="-23.1%" width="199.4%" height="146.2%" filterUnits="objectBoundingBox" id="filter-12">
            <feGaussianBlur stdDeviation="9.9" in="SourceGraphic"></feGaussianBlur>
        </filter>
        <linearGradient x1="50.3372996%" y1="96.5616849%" x2="47.5490046%" y2="3.69313871%" id="linearGradient-13">
            <stop stop-color="#DBE2E4" offset="0%"></stop>
            <stop stop-color="#F4F4F4" offset="100%"></stop>
        </linearGradient>
        <filter x="-28.3%" y="-57.1%" width="156.6%" height="214.3%" filterUnits="objectBoundingBox" id="filter-14">
            <feGaussianBlur stdDeviation="6.93" in="SourceGraphic"></feGaussianBlur>
        </filter>
        <linearGradient x1="51.876876%" y1="96.5616849%" x2="36.361636%" y2="3.69313871%" id="linearGradient-15">
            <stop stop-color="#DBE2E4" offset="0%"></stop>
            <stop stop-color="#F4F4F4" offset="100%"></stop>
        </linearGradient>
        <filter x="-28.4%" y="-6.9%" width="156.8%" height="113.8%" filterUnits="objectBoundingBox" id="filter-16">
            <feGaussianBlur stdDeviation="1.98" in="SourceGraphic"></feGaussianBlur>
        </filter>
        <linearGradient x1="52.298103%" y1="0%" x2="49.0146075%" y2="100%" id="linearGradient-17">
            <stop stop-color="#1E9DD7" offset="0%"></stop>
            <stop stop-color="#075D98" offset="100%"></stop>
        </linearGradient>
        <linearGradient x1="83.5735845%" y1="37.2376056%" x2="0%" y2="52.672168%" id="linearGradient-18">
            <stop stop-color="#251323" offset="0%"></stop>
            <stop stop-color="#62345F" offset="100%"></stop>
        </linearGradient>
        <linearGradient x1="88.8337864%" y1="94.9156651%" x2="8.78583419%" y2="-0.82048134%" id="linearGradient-19">
            <stop stop-color="#FFFFFF" offset="0%"></stop>
            <stop stop-color="#F1F1F1" offset="100%"></stop>
        </linearGradient>
        <linearGradient x1="85.6332025%" y1="6.90979104%" x2="17.2853534%" y2="59.7916846%" id="linearGradient-20">
            <stop stop-color="#485563" offset="0%"></stop>
            <stop stop-color="#29323C" offset="100%"></stop>
        </linearGradient>
        <path d="M123.853372,57.42 C123.160226,63.135416 121.798279,66.7884451 119.767531,68.3790873 C116.72141,70.7650506 121.565506,76.0072712 124.670113,77.5013376 C125.129821,78.6635284 125.359675,79.7938972 125.359675,80.8924439 C125.359675,81.9909906 130.103117,79.9419648 139.59,74.7453666 L123.853372,57.42 Z" id="path-21"></path>
        <filter x="-43.3%" y="-25.3%" width="167.3%" height="158.9%" filterUnits="objectBoundingBox" id="filter-22">
            <feOffset dx="-2" dy="1" in="SourceAlpha" result="shadowOffsetOuter1"></feOffset>
            <feGaussianBlur stdDeviation="2" in="shadowOffsetOuter1" result="shadowBlurOuter1"></feGaussianBlur>
            <feColorMatrix values="0 0 0 0 0   0 0 0 0 0   0 0 0 0 0  0 0 0 0.251884834 0" type="matrix" in="shadowBlurOuter1"></feColorMatrix>
        </filter>
        <filter x="-45.0%" y="-99.5%" width="189.9%" height="299.0%" filterUnits="objectBoundingBox" id="filter-23">
            <feGaussianBlur stdDeviation="3.96" in="SourceGraphic"></feGaussianBlur>
        </filter>
        <linearGradient x1="50%" y1="40.1142891%" x2="17.2853534%" y2="53.7647262%" id="linearGradient-24">
            <stop stop-color="#485563" offset="0%"></stop>
            <stop stop-color="#29323C" offset="100%"></stop>
        </linearGradient>
        <linearGradient x1="88.1711845%" y1="97.382076%" x2="31.7486957%" y2="10.3216721%" id="linearGradient-25">
            <stop stop-color="#F4F4F4" offset="0%"></stop>
            <stop stop-color="#DBE2E4" offset="100%"></stop>
        </linearGradient>
        <linearGradient x1="113.516185%" y1="34.3844769%" x2="22.7652026%" y2="65.6155231%" id="linearGradient-26">
            <stop stop-color="#1E9DD7" offset="0%"></stop>
            <stop stop-color="#075D98" offset="100%"></stop>
        </linearGradient>
        <filter x="-41.4%" y="-16.8%" width="182.8%" height="133.6%" filterUnits="objectBoundingBox" id="filter-27">
            <feGaussianBlur stdDeviation="1.0395" in="SourceGraphic"></feGaussianBlur>
        </filter>
        <filter x="-44.8%" y="-63.8%" width="189.5%" height="227.7%" filterUnits="objectBoundingBox" id="filter-28">
            <feGaussianBlur stdDeviation="2.079" in="SourceGraphic"></feGaussianBlur>
        </filter>
        <filter x="-62.5%" y="-29.4%" width="225.0%" height="158.8%" filterUnits="objectBoundingBox" id="filter-29">
            <feGaussianBlur stdDeviation="1.7325" in="SourceGraphic"></feGaussianBlur>
        </filter>
        <filter x="-57.7%" y="-31.9%" width="215.4%" height="163.8%" filterUnits="objectBoundingBox" id="filter-30">
            <feGaussianBlur stdDeviation="1.7325" in="SourceGraphic"></feGaussianBlur>
        </filter>
        <filter x="-120.0%" y="-50.0%" width="340.0%" height="200.0%" filterUnits="objectBoundingBox" id="filter-31">
            <feGaussianBlur stdDeviation="1.386" in="SourceGraphic"></feGaussianBlur>
        </filter>
        <filter x="0.0%" y="0.0%" width="100.0%" height="100.0%" filterUnits="objectBoundingBox" id="filter-32">
            <feGaussianBlur stdDeviation="0" in="SourceGraphic"></feGaussianBlur>
        </filter>
        <filter x="-30.0%" y="-75.0%" width="160.0%" height="250.0%" filterUnits="objectBoundingBox" id="filter-33">
            <feGaussianBlur stdDeviation="1.0395" in="SourceGraphic"></feGaussianBlur>
        </filter>
        <filter x="-4.9%" y="-16.0%" width="109.8%" height="132.1%" filterUnits="objectBoundingBox" id="filter-34">
            <feGaussianBlur stdDeviation="0.3465" in="SourceGraphic"></feGaussianBlur>
        </filter>
        <filter x="-6.0%" y="-37.5%" width="112.0%" height="175.0%" filterUnits="objectBoundingBox" id="filter-35">
            <feGaussianBlur stdDeviation="0.3465" in="SourceGraphic"></feGaussianBlur>
        </filter>
        <filter x="-6.2%" y="-21.4%" width="112.5%" height="142.9%" filterUnits="objectBoundingBox" id="filter-36">
            <feGaussianBlur stdDeviation="0.3465" in="SourceGraphic"></feGaussianBlur>
        </filter>
        <linearGradient x1="152.476057%" y1="-22.2479342%" x2="0%" y2="70.0944639%" id="linearGradient-37">
            <stop stop-color="#62345F" offset="0%"></stop>
            <stop stop-color="#251323" offset="100%"></stop>
        </linearGradient>
        <linearGradient x1="139.429439%" y1="-10.7596121%" x2="0%" y2="72.6811291%" id="linearGradient-38">
            <stop stop-color="#62345F" offset="0%"></stop>
            <stop stop-color="#251323" offset="100%"></stop>
        </linearGradient>
    </defs>
    <g id="Page-1" stroke="none" stroke-width="1" fill="none" fill-rule="evenodd">
        <g id="Covid-illustrations" transform="translate(-106.000000, -3052.000000)">
            <g id="online-consulting" transform="translate(106.000000, 3052.000000)">
                <g id="background-simple--inject-175" transform="translate(0.000000, 4.950000)" fill="url(#linearGradient-1)" fill-rule="nonzero">
                    <path d="M59.5386,379.1007 L584.4069,379.1007 C618.5025,356.6178 643.3515,329.6007 660.7161,289.7928 C681.74052,241.217484 686.26135,187.089237 673.5861,135.6993 C663.2703,94.4064 641.0646,55.2222 607.1175,29.5317 C573.1704,3.8412 526.9275,-6.8112 486.5157,6.6825 C414.9684,30.6108 379.8333,118.9485 307.8207,141.4314 C233.8776,164.5182 151.4007,108.5337 78.408,134.6301 C31.185,151.5195 0.4851,202.059 0.0544078777,252.2025 C-0.3465,300.3165 24.0372,346.5 59.5386,379.1007 Z" id="Path"></path>
                </g>
                <g id="Device--inject-175" transform="translate(66.240000, 53.460000)" fill-rule="nonzero">
                    <rect id="Rectangle" fill="url(#linearGradient-2)" x="19.296" y="0.7821" width="493.1685" height="326.1258" rx="14.4243"></rect>
                    <path d="M0.0207,305.8506 L534.3336,305.8506 L534.3336,316.7406 C534.3336,326.472962 526.443962,334.3626 516.7116,334.3626 L17.6427,334.3626 C7.91033814,334.3626 0.0207,326.472962 0.0207,316.7406 L0.0207,305.8506 L0.0207,305.8506 Z" id="Path" fill="url(#linearGradient-3)"></path>
                    <rect id="Rectangle" fill="#263238" x="32.5323" y="13.7412" width="465.3198" height="275.4081"></rect>
                    <polygon id="Path" fill="#263238" points="217.2663 302.7915 223.8993 313.335 317.1969 313.335 323.3547 302.7915"></polygon>
                    <rect id="Rectangle" fill="#EBEBEB" x="42.1155" y="23.067" width="447.1038" height="265.2111" rx="3.2373"></rect>
                    <polygon id="Path" fill="#FFFFFF" points="489.2292 289.6146 41.9274 289.6146 42.7491 43.8372 489.2292 43.8372"></polygon>
                    <path d="M79.5771,33.3036 C79.5771,35.2774105 77.9770105,36.8775 76.0032,36.8775 C74.0293895,36.8775 72.4293,35.2774105 72.4293,33.3036 C72.4293,31.3297895 74.0293895,29.7297 76.0032,29.7297 C76.9510572,29.7297 77.8600927,30.1062348 78.5303289,30.7764711 C79.2005652,31.4467073 79.5771,32.3557428 79.5771,33.3036 Z" id="Path" fill="#5BAE00"></path>
                    <path d="M57.9357,33.3036 C57.9357,35.2774105 56.3356105,36.8775 54.3618,36.8775 C52.3879895,36.8775 50.7879,35.2774105 50.7879,33.3036 C50.7879,31.3297895 52.3879895,29.7297 54.3618,29.7297 C55.3096572,29.7297 56.2186927,30.1062348 56.8889289,30.7764711 C57.5591652,31.4467073 57.9357,32.3557428 57.9357,33.3036 L57.9357,33.3036 Z" id="Path" fill="#D32F2F"></path>
                    <path d="M68.7564,33.3036 C68.7564,34.7500073 67.8845666,36.0538029 66.5478759,36.6063896 C65.2111852,37.1589764 63.6732134,36.8513897 62.6518685,35.8272078 C61.6305236,34.8030258 61.3272043,33.2642067 61.8834968,31.9290539 C62.4397893,30.5939012 63.7459982,29.7256933 65.1924,29.7296862 C67.1623432,29.7351569 68.7564,31.3336493 68.7564,33.3036 Z" id="Path" fill="#F5A623"></path>
                    <path d="M492.2487,302.8707 C492.2487,303.0489 390.2787,303.1875 264.5487,303.1875 C138.8187,303.1875 36.8487,303.0489 36.8487,302.8707 C36.8487,302.6925 138.8187,302.544 264.5982,302.544 C390.3777,302.544 492.2487,302.6925 492.2487,302.8707 Z" id="Path" fill="#263238"></path>
                    <rect id="Rectangle" fill="url(#linearGradient-4)" opacity="0.298804874" x="42.1155" y="244.9953" width="447.183" height="44.4807"></rect>
                    <circle id="Oval" fill="url(#linearGradient-5)" transform="translate(313.243324, 267.453470) rotate(-80.730000) translate(-313.243324, -267.453470) " cx="313.243324" cy="267.45347" r="16.5132"></circle>
                    <path d="M313.227,271.1313 C311.586714,271.1313 310.257,269.801586 310.257,268.1613 L310.257,261.6768 C310.257,260.036514 311.586714,258.7068 313.227,258.7068 C314.867286,258.7068 316.197,260.036514 316.197,261.6768 L316.197,268.1613 C316.197,269.801586 314.867286,271.1313 313.227,271.1313 L313.227,271.1313 Z M313.227,259.3107 C311.92796,259.316124 310.876224,260.36786 310.8708,261.6669 L310.8708,268.1514 C310.8708,269.452693 311.925707,270.5076 313.227,270.5076 C314.528293,270.5076 315.5832,269.452693 315.5832,268.1514 L315.5832,261.6669 C315.577776,260.36786 314.52604,259.316124 313.227,259.3107 Z" id="Shape" fill="#FFFFFF"></path>
                    <path d="M313.227,273.24 C311.659386,273.327899 310.132151,272.723519 309.0492,271.5867 C307.1484,269.4879 307.4553,266.2011 307.4652,266.0625 C307.458396,265.938137 307.525093,265.821326 307.635652,265.763976 C307.746211,265.706626 307.880117,265.719379 307.977863,265.796568 C308.075609,265.873756 308.119057,266.001057 308.0889,266.1219 C308.0889,266.1219 307.8018,269.28 309.5145,271.1709 C310.481307,272.172088 311.837736,272.700191 313.227,272.6163 C314.629249,272.689896 315.996772,272.164479 316.989,271.1709 C318.8205,269.2701 318.7116,266.1318 318.7116,266.1021 C318.706191,266.019025 318.734764,265.937318 318.790764,265.875717 C318.846764,265.814117 318.925387,265.77791 319.0086,265.7754 C319.179685,265.779771 319.320255,265.911822 319.3353,266.0823 C319.3353,266.2209 319.4442,269.5176 317.4444,271.6065 C316.3285,272.716215 314.799261,273.308526 313.227,273.24 L313.227,273.24 Z" id="Path" fill="#FFFFFF"></path>
                    <path d="M313.227,277.7841 C313.055831,277.784184 312.915549,277.648286 312.9102,277.4772 L312.9102,272.9133 C312.9102,272.738336 313.052036,272.5965 313.227,272.5965 C313.31014,272.5965 313.389739,272.630146 313.447588,272.68986 C313.505436,272.749575 313.536582,272.830204 313.5339,272.9133 L313.5339,277.4772 C313.5339,277.646696 313.396496,277.7841 313.227,277.7841 Z" id="Path" fill="#FFFFFF"></path>
                    <circle id="Oval" fill="url(#linearGradient-5)" transform="translate(225.538526, 267.446572) rotate(-80.730000) translate(-225.538526, -267.446572) " cx="225.538526" cy="267.446572" r="16.5132"></circle>
                    <path d="M220.2759,269.05233 C219.615211,269.05233 219.019578,268.654311 218.766743,268.043913 C218.513908,267.433516 218.653663,266.730919 219.120841,266.263741 C219.588019,265.796563 220.290616,265.656808 220.901013,265.909643 C221.511411,266.162478 221.90943,266.758111 221.90943,267.4188 C221.912055,267.85284 221.740807,268.269871 221.433889,268.576789 C221.126971,268.883707 220.70994,269.054955 220.2759,269.05233 L220.2759,269.05233 Z" id="Path" fill="#FFFFFF"></path>
                    <path d="M225.3447,269.0523 C224.732564,269.100063 224.145346,268.80053 223.82465,268.27694 C223.503955,267.75335 223.503955,267.09415 223.82465,266.57056 C224.145346,266.04697 224.732564,265.747437 225.3447,265.7952 C226.194989,265.861546 226.851129,266.570876 226.851129,267.42375 C226.851129,268.276624 226.194989,268.985954 225.3447,269.0523 Z" id="Path" fill="#FFFFFF"></path>
                    <path d="M230.76,269.0523 C230.099311,269.0523 229.503678,268.654311 229.250843,268.043913 C228.998008,267.433516 229.137763,266.730919 229.604941,266.263741 C230.072119,265.796563 230.774716,265.656808 231.385113,265.909643 C231.995511,266.162478 232.3935,266.758111 232.3935,267.4188 C232.3935,268.320957 231.662157,269.0523 230.76,269.0523 Z" id="Path" fill="#FFFFFF"></path>
                    <circle id="Oval" fill="url(#linearGradient-5)" cx="269.37" cy="267.4188" r="16.236"></circle>
                    <path d="M267.9246,262.9341 C267.277439,262.421437 266.437105,262.220315 265.627966,262.384433 C264.818827,262.548551 264.123268,263.061198 263.727,263.7855 C263.331612,264.491662 263.498359,265.379592 264.123,265.8942 C265.608,267.3594 268.7463,270.2997 270.063,271.5669 C270.80308,272.277918 271.828512,272.609997 272.8449,272.4678 C273.646207,272.356819 274.364352,271.91516 274.8249,271.2501 C276.3594,269.1414 272.6766,267.498 272.6766,267.498 L271.0728,269.1909 L267.39,265.5675 L269.0334,263.7558 L267.9246,262.9341 Z" id="Path" fill="#FFFFFF"></path>
                    <polygon id="Path" fill="#FAFAFA" points="149.9067 289.5552 42.1155 289.0404 42.1155 43.7778 149.9067 43.7778"></polygon>
                    <path d="M146.61,242.3916 C146.61,242.5302 123.6717,242.649 95.3874,242.649 C67.1031,242.649 44.145,242.5302 44.145,242.3916 C44.145,242.253 67.0833,242.1243 95.3874,242.1243 C123.6915,242.1243 146.61,242.2431 146.61,242.3916 Z" id="Path" fill="#E0E0E0"></path>
                    <polygon id="Path" fill="#E0E0E0" points="122.85 107.5041 122.85 109.89 122.6025 109.89 122.6025 107.712 122.0382 107.712 122.0382 107.4942"></polygon>
                    <polygon id="Path" fill="#E0E0E0" points="124.1073 107.5041 124.1073 109.89 123.84 109.89 123.84 107.712 123.2757 107.712 123.2757 107.4942"></polygon>
                    <path d="M124.6815,108.2664 C124.681424,108.217372 124.701552,108.170479 124.737144,108.13676 C124.772736,108.103041 124.820648,108.085476 124.8696,108.0882 C124.917698,108.085277 124.964743,108.103111 124.998816,108.137184 C125.032889,108.171257 125.050723,108.218302 125.0478,108.2664 C125.050524,108.315352 125.032959,108.363264 124.99924,108.398856 C124.965521,108.434448 124.918628,108.454576 124.8696,108.4545 C124.765715,108.4545 124.6815,108.370285 124.6815,108.2664 L124.6815,108.2664 Z M124.6815,109.7316 C124.6815,109.627715 124.765715,109.5435 124.8696,109.5435 C124.973485,109.5435 125.0577,109.627715 125.0577,109.7316 C125.0577,109.835485 124.973485,109.9197 124.8696,109.9197 C124.765715,109.9197 124.6815,109.835485 124.6815,109.7316 L124.6815,109.7316 Z" id="Shape" fill="#E0E0E0"></path>
                    <path d="M127.0476,109.6821 L127.0476,109.89 L125.3646,109.89 L125.3646,109.7217 L126.3546,108.7317 C126.6219,108.4644 126.6813,108.2961 126.6813,108.1377 C126.6813,107.9793 126.4833,107.6823 126.117,107.6823 C125.867154,107.668346 125.624059,107.76631 125.4537,107.9496 L125.2854,107.8011 C125.503358,107.564457 125.815537,107.437407 126.1368,107.4546 C126.6219,107.4546 126.9288,107.7021 126.9288,108.108 C126.916702,108.4056 126.771261,108.681938 126.5328,108.8604 L125.721,109.6623 L127.0476,109.6821 Z" id="Path" fill="#E0E0E0"></path>
                    <path d="M128.988,109.197 C128.988,109.6029 128.7009,109.9197 128.1168,109.9197 C127.801204,109.930102 127.493407,109.820427 127.2555,109.6128 L127.3743,109.4148 C127.570725,109.610177 127.840031,109.714308 128.1168,109.7019 C128.5227,109.7019 128.7405,109.494 128.7405,109.2069 C128.7405,108.9198 128.5425,108.702 127.9386,108.702 L127.4238,108.702 L127.5426,107.5041 L128.8593,107.5041 L128.8593,107.7219 L127.8,107.7219 L127.7208,108.4842 L128.0277,108.4842 C128.7108,108.4842 128.988,108.7713 128.988,109.197 Z" id="Path" fill="#E0E0E0"></path>
                    <polygon id="Path" fill="#E0E0E0" points="125.3151 219.4929 125.3151 221.8986 125.0676 221.8986 125.0676 219.7107 124.5033 219.7107 124.5033 219.4929"></polygon>
                    <polygon id="Path" fill="#E0E0E0" points="126.5526 219.4929 126.5526 221.8986 126.3051 221.8986 126.3051 219.7107 125.7408 219.7107 125.7408 219.4929"></polygon>
                    <path d="M127.1367,220.2651 C127.133976,220.216148 127.151541,220.168236 127.18526,220.132644 C127.218979,220.097052 127.265872,220.076924 127.3149,220.077 C127.418785,220.077 127.503,220.161215 127.503,220.2651 C127.498028,220.366854 127.416654,220.448228 127.3149,220.4532 C127.2149,220.44793 127.136561,220.365238 127.1367,220.2651 Z M127.1367,221.7204 C127.1367,221.621983 127.216483,221.5422 127.3149,221.5422 C127.415038,221.542061 127.49773,221.6204 127.503,221.7204 C127.503132,221.826 127.420368,221.91312 127.3149,221.9184 C127.225349,221.914796 127.150779,221.848511 127.1367,221.76 L127.1367,221.7204 Z" id="Shape" fill="#E0E0E0"></path>
                    <polygon id="Path" fill="#E0E0E0" points="129.8988 221.265 129.4236 221.265 129.4236 221.8986 129.1761 221.8986 129.1761 221.265 127.8 221.265 127.8 221.0868 129.0672 219.4929 129.3444 219.4929 128.1168 221.0472 129.1068 221.0472 129.1068 220.4928 129.3543 220.4928 129.3543 221.0472 129.8295 221.0472"></polygon>
                    <path d="M131.76,221.1858 C131.76,221.6016 131.4729,221.9184 130.8888,221.9184 C130.573204,221.928802 130.265407,221.819127 130.0275,221.6115 L130.1463,221.4135 C130.34968,221.596735 130.615099,221.695825 130.8888,221.6907 C131.2947,221.6907 131.5125,221.4927 131.5125,221.1957 C131.5125,220.8987 131.3145,220.7007 130.7106,220.7007 L130.1958,220.7007 L130.3245,219.4929 L131.6313,219.4929 L131.6313,219.7107 L130.5324,219.7107 L130.4532,220.473 L130.77,220.473 C131.463,220.473 131.76,220.77 131.76,221.1858 Z" id="Path" fill="#E0E0E0"></path>
                    <path d="M110.0592,102.4155 L61.9848,102.4155 L61.8456754,81.5067 C61.8066331,75.8988972 64.0066412,70.5071798 67.958091,66.5278505 C71.9095408,62.5485212 77.2856577,60.3108 82.8936,60.3108 L110.0592,60.3108 C121.688826,60.3108 131.1165,69.7384743 131.1165,81.3681 L131.1165,81.3681 C131.111034,92.9938593 121.684961,102.4155 110.0592,102.4155 L110.0592,102.4155 Z" id="Path" fill="#EBEBEB"></path>
                    <path d="M132.552,278.6058 L56.322,278.6058 C51.1737647,278.600343 47.0016565,274.428235 46.9962,269.28 L46.9962,268.8741 C47.0016565,263.725865 51.1737647,259.553757 56.322,259.5483 L132.552,259.5483 C137.700235,259.553757 141.872343,263.725865 141.8778,268.8741 L141.8778,269.28 C141.872343,274.428235 137.700235,278.600343 132.552,278.6058 Z M56.322,260.1324 C51.4963541,260.137856 47.5857558,264.048454 47.5803,268.8741 L47.5803,269.28 C47.5857558,274.105646 51.4963541,278.016244 56.322,278.0217 L132.552,278.0217 C137.377646,278.016244 141.288244,274.105646 141.2937,269.28 L141.2937,268.8741 C141.288244,264.048454 137.377646,260.137856 132.552,260.1324 L56.322,260.1324 Z" id="Shape" fill="#E0E0E0"></path>
                    <path d="M137.74951,268.785 C137.753506,270.703896 136.600674,272.436074 134.828993,273.173181 C133.057313,273.910289 131.01603,273.507022 129.657745,272.151573 C128.29946,270.796124 127.891929,268.755688 128.625332,266.982471 C129.358735,265.209254 131.0885,264.05279 133.0074,264.05279 C134.264172,264.050171 135.47037,264.547579 136.359972,265.435324 C137.249574,266.323069 137.74951,267.528225 137.74951,268.785 L137.74951,268.785 Z" id="Path" fill="url(#linearGradient-6)"></path>
                    <path d="M72.6174,117.879186 L102.3174,117.879186 C105.191266,117.866062 107.951251,119.001846 109.983403,121.033997 C112.015554,123.066149 113.151338,125.826134 113.138214,128.7 L113.138214,130.0167 C113.138214,135.965469 108.315669,140.7879 102.3669,140.7879 L61.8460861,140.7879 L61.8460861,128.7 C61.8330323,125.834733 62.9620362,123.082303 64.983457,121.051592 C67.0048778,119.020882 69.752103,117.879186 72.6174,117.879186 Z" id="Path" fill="#EBEBEB"></path>
                    <path d="M59.8167,160.578 L122.3649,160.578 C128.313669,160.578 133.1361,165.400431 133.1361,171.3492 L133.1361,172.6659 C133.1361,178.614669 128.313669,183.4371 122.3649,183.4371 L70.5879,183.4371 C64.6391305,183.4371 59.8167,178.614669 59.8167,172.6659 L59.8167,160.578 L59.8167,160.578 Z" id="Path" fill="#EBEBEB" transform="translate(96.476400, 172.007550) rotate(180.000000) translate(-96.476400, -172.007550) "></path>
                    <path d="M70.7463,203.2668 L100.4463,203.2668 C106.395069,203.2668 111.2175,208.089231 111.2175,214.038 L111.2175,215.3547 C111.2175,221.303469 106.395069,226.1259 100.4463,226.1259 L59.9750954,226.1259 L59.9750954,214.0479 C59.9724728,211.189485 61.1061325,208.447244 63.1264091,206.425111 C65.1466858,204.402977 67.887884,203.2668 70.7463,203.2668 L70.7463,203.2668 Z" id="Path" fill="#EBEBEB"></path>
                </g>
                <g id="Hearts--inject-175" transform="translate(597.960000, 80.100000)" fill="url(#linearGradient-7)" fill-rule="nonzero">
                    <path d="M71.7651,20.5236 C70.6761,11.7027 63.2214,3.4857 54.3312,3.4758 C49.0941,3.4758 44.1045,6.2181 40.4712,10.0494 C39.1975996,11.3430207 38.0259089,12.7331622 36.9666,14.2074 C36.2112667,12.5573036 35.3343519,10.9656205 34.3431,9.4455 C31.581,4.9806 27.2349,1.3077 22.0869,0.2781 C13.3848,-1.4643 4.455,5.1291 1.6434,13.554 C-1.1682,21.9789 1.1781,31.4433 5.7915,39.0267 C10.4049,46.6101 18.4041,56.52 33.0462,61.47 C43.1442,60.183 56.6676,51.2235 62.6868,44.64 C68.706,38.0565 72.864,29.3346 71.7651,20.5236 Z" id="Path"></path>
                </g>
                <g id="character-1--inject-175" transform="translate(225.720000, 0.000000)">
                    <path d="M167.6763,273.24 L171.9531,277.5168 C172.419846,277.972056 173.043554,278.230753 173.6955,278.23952 C174.352718,278.242145 174.983782,277.982236 175.448509,277.517509 C175.913236,277.052782 176.173145,276.421718 176.17052,275.7645 C176.161753,275.112554 175.903056,274.488846 175.4478,274.0221 L171.171,269.7453 C170.711015,269.275441 170.081186,269.010631 169.42365,269.010631 C168.766114,269.010631 168.136285,269.275441 167.6763,269.7453 C167.210287,270.205688 166.946687,270.83263 166.9437,271.4877 C166.955598,272.143832 167.217654,272.770644 167.6763,273.24 L167.6763,273.24 Z" id="Path" fill="#FAFAFA" fill-rule="nonzero"></path>
                    <path d="M183.1995,208.7415 C180.014318,209.084694 176.801482,209.084694 173.6163,208.7415 C176.801482,208.398306 180.014318,208.398306 183.1995,208.7415 L183.1995,208.7415 Z" id="Path" fill="#455A64" fill-rule="nonzero"></path>
                    <path d="M214.709695,105.673769 C213.275947,101.317961 215.866754,85.6991561 212.454268,85.673978 C208.094334,85.6320146 209.343622,103.298637 209.335238,104.910034 C209.326853,106.521431 207.046273,106.471075 207.130118,105.044317 C207.2475,102.9965 207.968566,82.8120692 203.575095,83.1645624 C201.151978,83.3575943 201.462204,87.763759 201.462204,87.763759 C201.462204,87.763759 202.812106,107.956582 200.749522,108.057295 C198.686938,108.158007 197.949103,96.3746637 197.781413,92.2286725 C197.613724,88.258928 195.94521,86.6811014 194.117392,88.0323252 C192.289574,89.3835491 192.658491,101.317961 192.759105,105.304491 C192.859719,109.291021 193.32925,120.209916 188.726166,114.897341 C184.123082,109.584765 178.66478,107.192847 176.719579,107.570518 C174.774378,107.94819 174.707302,110.759742 176.677657,111.674546 C178.270709,112.413103 180.568059,114.460921 182.228188,116.072318 C183.514204,117.463009 184.639261,118.994583 185.581983,120.637944 C186.87334,122.706096 187.811281,124.97524 188.357249,127.352099 C188.814841,129.225615 191.891928,131.763476 194.117392,136.816129 C194.630178,137.980349 194.92643,140.224973 195.006148,143.55 L216.260825,141.703607 L216.671665,127.704593 C216.889662,117.003907 218.759403,109.802975 219.882924,103.441313 C221.685589,93.2945447 220.377609,92.984015 219.161858,93.0427639 C216.51236,93.1350835 216.118289,109.920473 214.709695,105.673769 Z" id="Path" fill="#FFBE9D" fill-rule="nonzero"></path>
                    <path d="M120.5226,117.136645 C127.15907,121.077392 132.19487,124.159208 135.63,126.382095 C138.206347,128.04926 140.758659,129.709984 143.286935,131.364266 L145.8072,133.0164 L145.822892,133.024588 C146.333498,133.291967 159.207037,140.103375 170.045777,152.796643 C182.689095,167.603257 193.628459,196.58925 193.628459,196.58925 C194.531915,186.311004 194.983643,178.60232 194.983643,173.463197 C194.983643,166.378301 194.531915,155.750958 193.628459,141.581167 L219.066324,138.616506 C219.066324,138.616506 223.525923,153.325548 226.589184,168.815511 C229.133733,181.682507 230.256916,194.941786 231.249677,202.097755 C233.289077,216.858655 235.2636,230.0067 220.8492,237.9267 C203.841,247.2723 184.5261,234.6498 178.101,229.8582 C171.096591,224.643999 158.88956,216.523349 156.01102,214.616698 L151.0542,263.8251 L160.9344,298.4553 L135.1746,298.4553 L135.1251,284.7933 L130.503456,188.825184 C129.690418,164.912892 128.718684,148.087029 127.588254,138.347595 C126.457824,128.608161 124.102606,121.537845 120.5226,117.136645 Z" id="Combined-Shape" fill="url(#linearGradient-8)" fill-rule="nonzero"></path>
                    <polygon id="Path" fill="url(#linearGradient-9)" fill-rule="nonzero" points="129.6801 127.3635 120.5226 117.1368 80.4969 114.0678 75.3093 122.4531 89.3376 210.0087 83.0214 298.4553 135.1746 298.4553"></polygon>
                    <g id="Group" opacity="0.3" transform="translate(84.150000, 271.260000)" fill="#000000" fill-rule="nonzero">
                        <path d="M1.287,6.1578 C2.6631,4.6926 4.9203,2.6631 6.93,2.6235 C21.3444,2.3067 36.0657,0.8613 50.49,0.5445 L51.0444,27.1953 L44.0253,23.9085 C43.6293,20.9385 43.1244,17.2656 40.3623,15.9885 C38.7981,15.246 36.9666,15.5331 35.2737,15.8697 C30.0663,16.8597 24.8985,18.2457 19.602,18.5724 C14.3055,18.8991 8.7615,18.1368 4.3164,15.2361 C2.73487606,14.3051753 1.46390173,12.9274254 0.6633,11.2761 C-0.137685356,9.59320403 0.10531071,7.59909345 1.287,6.1578 Z" id="Path" filter="url(#filter-10)"></path>
                    </g>
                    <path d="M134.3331,201.8808 C134.490625,201.652887 134.632838,201.414763 134.7588,201.168 C135.036,200.6532 135.4221,199.9503 135.8973,199.0593 C136.3725,198.1683 136.8279,196.9506 137.4318,195.5943 C137.709,194.9112 137.9466,194.1588 138.2238,193.3668 C138.501,192.5748 138.8079,191.7432 139.0356,190.8423 C141.1938,183.7143 142.6293,173.4282 142.3224,162.0729 C142.3224,161.1918 142.263,160.3206 142.2036,159.4593 L142.2036,159.3108 L142.065,159.2514 L138.0456,157.5585 L138.105,157.9743 L142.1145,154.7568 L142.2036,154.6875 L142.2036,154.5885 C142.240076,150.684979 141.620972,146.80303 140.3721,143.1045 C139.3821,139.7484 138.2634,136.8576 137.2932,134.4816 C136.323,132.1056 135.4716,130.2444 134.8677,128.9772 C134.5707,128.3436 134.3331,127.8684 134.1648,127.5417 C134.086509,127.372336 133.993765,127.210036 133.8876,127.0566 C133.938508,127.23363 134.004759,127.405883 134.0856,127.5714 L134.7291,129.0465 C135.2835,130.3236 136.0854,132.2046 137.016,134.5905 C137.9466,136.9764 138.996,139.8771 139.986,143.2233 C141.185812,146.876959 141.77452,150.703559 141.7284,154.5489 L141.8175,154.3806 L137.7981,157.5981 L137.4813,157.8555 L137.8575,158.0139 L141.867,159.7068 L141.7185,159.4989 C141.7779,160.3404 141.8076,161.2116 141.8373,162.0828 C142.1442,173.3886 140.778,183.6351 138.7089,190.7928 C138.4911,191.6937 138.1941,192.5253 137.9367,193.3173 C137.6793,194.1093 137.4516,194.8617 137.1843,195.5448 C136.6101,196.9011 136.1943,198.099 135.729,199.0296 C135.2637,199.9602 134.937,200.6433 134.6796,201.168 C134.545006,201.395835 134.429126,201.634217 134.3331,201.8808 L134.3331,201.8808 Z" id="Path" fill="#263238" fill-rule="nonzero" filter="url(#filter-11)"></path>
                    <path d="M146.1339,284.4666 C146.40387,285.279537 146.77648,286.054698 147.2427,286.7733 C148.275276,288.561363 149.450598,290.263097 150.7572,291.8619 C152.068325,293.462285 153.508666,294.952293 155.0637,296.3169 C155.678062,296.917082 156.366765,297.436105 157.113,297.8613 C156.548523,297.22232 155.943364,296.620467 155.3013,296.0595 C153.834902,294.634258 152.446864,293.13055 151.1433,291.555 C149.851907,289.974941 148.652043,288.322236 147.5496,286.605 C147.12486,285.862076 146.651949,285.147749 146.1339,284.4666 Z" id="Path" fill="#263238" fill-rule="nonzero"></path>
                    <g id="Group" opacity="0.3" transform="translate(75.240000, 129.690000)" fill="#000000" fill-rule="nonzero">
                        <path d="M58.0932,108.306 C55.3806,106.8903 52.0641,107.6328 49.1832,108.7317 C46.3023,109.8306 43.4907,111.3057 40.4316,111.276 C36.2736,111.276 30.3831,109.7217 28.215,106.1874 C25.8295814,102.13828 24.058001,97.7577055 22.9581,93.1887 C19.6515,77.9724 18.8991,64.6173 15.5925,49.3911 C13.7907,41.1147 11.5038,31.5711 8.4348,23.6511 C5.4648,15.9984 2.6928,8.0784 0.3564,0.2079 C0.7722,18.0279 1.188,35.9865 3.9402,53.6679 C5.7222,65.0232 8.4546,76.2102 9.9495,87.5952 C11.2266,97.3467 11.583,107.1972 11.9295,117.0279 L21.2058,128.3733 L46.7775,128.8881 L60.1326,111.6621 L58.0932,108.306 Z" id="Path" filter="url(#filter-12)"></path>
                    </g>
                    <path d="M44.4609,130.779 C48.5007729,128.021263 52.9310018,125.488303 57.7515868,123.180118 C62.5721717,120.871934 69.9823428,117.735495 79.9821,113.7708 L80.1603,114.3252 C78.0219,117.9882 75.7449,124.7499 76.5468,128.9178 C84.351474,164.158353 88.9960262,190.451103 90.4804565,207.79605 C91.4930262,219.627503 90.593974,237.099353 87.7833,260.2116 L83.0214,298.4751 L35.2737,298.4751 L52.5888,257.7168 L44.0649,181.17 L44.4609,130.779 Z" id="Path" fill="url(#linearGradient-13)" fill-rule="nonzero"></path>
                    <path d="M104.445,275.1903 L106.40025,250.538441 C71.846469,250.821029 51.193419,247.611985 44.4411,240.911308 C38.6812716,235.195532 23.2294588,259.956444 41.7230105,271.26 C55.7497923,279.833395 104.445,275.1903 104.445,275.1903 Z" id="Path" fill="#000000" fill-rule="nonzero" opacity="0.337727865" filter="url(#filter-14)"></path>
                    <path d="M14.5523231,167.229378 C3.68724427,197.131046 0.812945293,237.458425 0.693,246.0645 C0.612262037,251.714849 7.04039843,271.53236 20.9611768,275.6853 C51.6021259,284.826313 104.445,275.1903 104.445,275.1903 L106.40025,250.538441 C71.846469,250.821029 51.193419,247.611985 44.4411,240.911308 C37.688781,234.210632 40.398081,218.675963 52.569,194.3073 L44.4411,130.779 C29.2289007,142.106861 19.2659751,154.256987 14.5523231,167.229378 Z" id="Path" fill="url(#linearGradient-15)" fill-rule="nonzero"></path>
                    <path d="M70.8939,119.1168 C70.8939,119.1168 70.8939,119.1762 70.8246,119.295 C70.7553,119.4138 70.7355,119.6316 70.6662,119.8494 C70.5474,120.3444 70.3296,121.0572 70.1415,122.0076 C69.5502778,124.701214 69.1270618,127.428974 68.8743,130.1751 C68.4894058,134.314691 68.3835666,138.475494 68.5575,142.6293 C68.7159,147.3615 69.2208,152.5986 69.9336,158.1426 L69.9336,158.3208 L70.1019,158.3208 L75.5271,159.3108 L75.339,158.9742 C75.0321,159.8058 74.7054,160.7067 74.4579,161.6274 C72.9618116,167.698607 73.1777026,174.065677 75.0816,180.0216 C76.5972325,184.849852 78.7372468,189.45937 81.4473,193.7331 C83.7045,197.3961 85.7538,200.2176 87.1596,202.1778 L88.803,204.4053 L89.2386,204.9795 C89.3376,205.0983 89.397,205.1676 89.4069,205.1577 C89.3684593,205.085737 89.3254722,205.016296 89.2782,204.9498 C89.1792,204.7815 89.0406,204.5934 88.8822,204.3459 L87.318,202.059 C85.9617,200.079 83.9619,197.2278 81.7443,193.545 C79.0958688,189.277956 77.0032402,184.690142 75.5172,179.8929 C73.666076,174.014371 73.4674317,167.73995 74.943,161.7561 C75.1806,160.8552 75.4974,159.9741 75.7944,159.1623 L75.9033,158.8752 L75.6162,158.8257 L70.191,157.8357 L70.389,158.0436 C69.6663,152.5095 69.1515,147.2922 68.9535,142.5699 C68.7586233,138.434791 68.8280647,134.291456 69.1614,130.1652 C69.3841087,127.427508 69.7575754,124.704176 70.2801,122.0076 C70.4484,121.0176 70.6365,120.3345 70.7256,119.8296 C70.7256,119.6118 70.8048,119.4237 70.8345,119.2653 C70.8588631,119.21775 70.8787488,119.168035 70.8939,119.1168 L70.8939,119.1168 Z" id="Path" fill="#263238" fill-rule="nonzero" filter="url(#filter-16)"></path>
                    <path d="M70.8939,196.9209 L70.8939,184.8231 C70.8939,184.8231 70.7355,181.8531 73.2501,182.4669 C75.7647,183.0807 75.2895,187.803 75.2895,187.803 C75.2895,187.803 75.7647,206.1972 74.6658,206.0388 C73.5669,205.8804 73.1412,204.4647 73.1412,204.4647 L73.1412,197.3961 L70.8939,196.9209 Z" id="Path" fill="url(#linearGradient-17)" fill-rule="nonzero"></path>
                    <rect id="Rectangle" fill="#263238" fill-rule="nonzero" x="140.6295" y="193.0599" width="22.6314" height="7.0587"></rect>
                    <polygon id="Path" fill="url(#linearGradient-18)" fill-rule="nonzero" points="246.9555 206.0388 171.666 286.3476 98.2278 286.803 96.4854 283.4667 168.8742 205.0389"></polygon>
                    <path d="M175.7943,205.0389 C175.7943,205.0389 180.6849,205.0389 182.1402,206.7417 C183.8331,208.7811 187.0902,213.3747 179.982,225.0666 C177.1506,229.7493 163.2609,245.8566 157.5486,262.3599 C152.2125,277.7643 154.6479,282.8529 154.6479,282.8529 L207.6327,281.16 L208.6227,279.2493 C208.6227,279.2493 231.66,216.8793 225.5616,204.9993 C222.75,199.584 175.4181,203.0391 175.7943,205.0389 Z" id="Path" fill="#E0E0E0" fill-rule="nonzero"></path>
                    <path d="M106.1874,252.985365 C111.149021,252.40667 114.376495,251.811418 115.869822,251.199609 C118.192238,250.248127 121.608495,247.711597 124.88651,246.418117 C128.948031,244.815473 132.696629,244.53 132.696629,244.53 L127.874502,249.79293 C126.75326,251.00624 124.698956,252.10137 125.914289,252.10137 C129.94525,252.459779 132.772556,252.459779 134.396209,252.10137 C140.893587,250.667123 144.525315,248.146488 145.179271,248.532348 C146.308354,249.202032 146.700397,250.415342 145.547791,252.10137 C144.395185,253.787399 136.452398,257.773989 135.535018,258.081256 C137.323372,258.642618 138.74577,258.808233 139.802213,258.5781 C141.277495,258.256728 143.652685,257.263857 146.927781,255.599485 C147.672663,255.465548 148.715497,255.33949 149.052653,255.780694 C149.343835,256.085226 149.501175,256.494459 149.489382,256.916602 C149.477589,257.338746 149.297651,257.738466 148.989927,258.026105 C147.343905,259.516587 145.599236,260.893251 143.767917,262.146633 C143.767917,262.146633 145.610518,264.872641 144.081551,266.251403 C142.552584,267.630164 138.130342,271.766449 138.130342,271.766449 C138.130342,271.766449 137.667731,274.067011 136.295581,275.138505 C134.923432,276.21 119.829785,276.21 118.739906,276.21 C118.219889,276.21 116.40028,274.335126 111.820879,272.949018 C110.608144,272.581944 108.225397,272.31591 104.672637,272.150918 L106.1874,252.985365 Z" id="Path" fill="#FFBE9D" fill-rule="nonzero"></path>
                    <path d="M216.4338,279.576 L159.4395,280.0512 C158.7564,265.617 163.7658,255.1329 171.2205,242.748 C174.0717,238.0059 177.9723,233.9469 180.8136,229.1949 C183.8048,224.189888 185.553113,218.540969 185.9121,212.7213 C186.0606,210.4047 185.9121,207.9 184.4964,206.0685 C183.0807,204.237 177.9921,204.138 175.7943,205.0785 C178.256574,203.297121 181.160339,202.225331 184.1895,201.9798 C188.793,201.5937 226.4724,201.8511 233.4816,201.9105 C235.174158,201.984207 236.852179,202.256677 238.4811,202.7223 C243.5895,205.3656 244.6389,212.3253 243.9162,217.3347 C243.2331,222.0768 240.2928,226.5516 236.6001,231.561 C235.526861,232.995648 234.53529,234.489615 233.6301,236.0358 C229.7394,242.7777 218.9979,261.6867 217.0674,268.2108 C216.131548,271.923854 215.916464,275.781932 216.4338,279.576 L216.4338,279.576 Z" id="Path" fill="url(#linearGradient-19)" fill-rule="nonzero"></path>
                    <path d="M46.926,61.1424 C46.719266,61.3181206 46.4894282,61.4646839 46.2429,61.578 C45.6111709,61.9369105 44.9485146,62.2384192 44.2629,62.4789 C43.2348173,62.8441326 42.173906,63.1093605 41.0949,63.2709 C39.7666518,63.454038 38.423124,63.500481 37.0854,63.4095 C35.7424008,63.3061778 34.4146065,63.0572163 33.1254,62.667 C32.081583,62.3438371 31.0705993,61.9228702 30.1059,61.4097 C29.4570452,61.0655152 28.8378265,60.6681556 28.2546,60.2217 C27.8487,59.895 27.6408,59.7069 27.6606,59.6772 C27.6804,59.6475 28.6506,60.291 30.2742,61.083 C31.2315084,61.5401662 32.2248717,61.9176442 33.2442,62.2116 C35.7591006,62.92585 38.3924019,63.1245262 40.986,62.7957 C42.0417937,62.6596876 43.0847461,62.4378532 44.1045,62.1324 C45.8667,61.5978 46.8765,61.0533 46.926,61.1424 Z" id="Path" fill="#455A64" fill-rule="nonzero"></path>
                    <circle id="Oval-Copy-28" fill="url(#linearGradient-20)" cx="73.26" cy="20.79" r="20.79"></circle>
                    <circle id="Oval" fill="url(#linearGradient-20)" cx="104.445" cy="53.955" r="41.085"></circle>
                    <path d="M80.4969,124.74 C80.4969,124.74 80.4969,124.9875 80.5464,125.1063 L80.4969,124.74 Z" id="Path" fill="#B78876" fill-rule="nonzero"></path>
                    <path d="M120.5226,26.3625182 L84.7748316,32.562958 C81.1940983,32.9478763 77.8405977,51.5341529 77.9229647,55.1345736 C79.4737667,66.1496801 80.3482452,74.3644363 80.5464,79.7788422 C80.8982308,89.3923088 80.8487308,103.719361 80.3979,122.76 C80.4546706,124.235352 80.7906008,125.68657 81.3879,127.0368 C84.1203,133.056 93.2085,148.3713 112.9293,142.1739 C117.7605,140.6592 119.9682,135.3726 120.9186,129.9474 C120.9186,129.3039 121.1859,128.7297 121.1958,128.1159 C121.670835,124.066625 121.720607,119.978741 121.3443,115.9191 C121.4136,108.7515 120.9186,106.021047 120.9186,106.090347 C120.9186,106.159647 141.529143,102.157303 144.627843,82.4167026 C145.310314,78.1630617 145.581084,64.7712926 142.363667,53.46 C138.160205,38.6821228 127.201405,25.6391212 120.5226,26.3625182 Z" id="Path" fill="#FFBE9D" fill-rule="nonzero"></path>
                    <g id="shadow" opacity="0.392322359" fill="black" fill-opacity="1">
                        <use filter="url(#filter-22)" xlink:href="#path-21"></use>
                    </g>
                    <path d="" id="Path" fill="#B78876" fill-rule="nonzero"></path>
                    <path d="M135.629845,61.6768874 C135.643169,63.6376083 134.795031,65.2588981 133.719879,65.327955 C133.209505,65.405828 132.703578,65.1037347 132.317415,64.4905319 C131.931252,63.8773292 131.69776,63.005271 131.670158,62.0731273 C131.656714,60.1177048 132.500268,58.4985955 133.572361,58.4220598 C134.083522,58.3441787 134.590275,58.645869 134.977659,59.2586904 C135.365044,59.8715118 135.600223,60.7435175 135.629845,61.6768874 L135.629845,61.6768874 Z" id="Path" fill="#263238" fill-rule="nonzero"></path>
                    <ellipse id="Oval" stroke="#263238" stroke-width="1.98" cx="136.62" cy="61.875" rx="8.91" ry="10.395"></ellipse>
                    <path d="M119.4633,105.0489 C110.180666,105.189027 101.040977,102.752462 93.06,98.01 C93.06,98.01 99.7326,111.6621 119.4831,109.7712 L119.4633,105.0489 Z" id="Path" fill="#000000" fill-rule="nonzero" opacity="0.361142113" filter="url(#filter-23)"></path>
                    <path d="M93.9535126,68.33857 C93.43483,71.8370355 92.4156828,74.0730926 90.8960712,75.0467413 C88.6166536,76.5072143 92.2414988,79.716032 94.5646807,80.6305656 C94.9086811,81.3419547 95.0806813,82.0338652 95.0806813,82.706297 C95.0806813,82.9900302 95.8929651,101.29245 97.3081696,103.215149 C99.1968714,105.781142 104.93853,107.526542 106.021318,107.414968 C107.809886,107.230668 113.995259,105.801926 119.160545,103.116288 C121.698172,101.796874 124.315749,100.351536 126.255959,98.9367914 C129.067018,96.8870486 131.370896,94.7788864 131.657207,94.5543119 C133.313221,93.2553786 128.801168,81.2462549 130.092606,78.8776271 C130.850999,77.486659 128.2661,75.1906519 122.337911,71.9896058 C115.848238,71.2177508 111.649783,69.9021425 109.742544,68.0427811 C103.467166,61.9249353 103.483315,52.9269598 102.022971,51.6117985 C99.8968763,49.6970732 97.2070567,55.2726637 93.9535126,68.33857 Z" id="Path-31" fill="#FFBE9D" fill-rule="nonzero" transform="translate(111.099755, 79.332366) scale(-1, 1) rotate(11.000000) translate(-111.099755, -79.332366) "></path>
                    <ellipse id="Oval-Copy-27" stroke="#263238" stroke-width="1.98" cx="111.87" cy="64.845" rx="8.91" ry="10.395"></ellipse>
                    <path d="M123.291592,82.7215579 C126.524459,85.8207432 129.119023,87.6840038 131.075283,88.3113399 C132.282215,90.1571133 131.652116,91.08 129.184985,91.08 C127.403986,91.08 124.211463,90.1776989 122.53153,88.3113399 C120.720772,86.2996366 120.505067,83.2937875 121.028262,82.7215579 C121.700656,81.9861474 122.455099,81.9861474 123.291592,82.7215579 Z" id="Path-68" fill="#FB5454" transform="translate(126.225000, 86.625000) rotate(-35.000000) translate(-126.225000, -86.625000) "></path>
                    <path d="M115.82973,64.6468796 C115.847356,66.6052609 114.999874,68.2288167 113.9239,68.2979549 C113.412552,68.3758281 112.90566,68.0737342 112.518761,67.4605301 C112.131861,66.847326 111.897924,65.975266 111.87027,65.0431204 C111.852644,63.0847391 112.700126,61.4611833 113.7761,61.3920451 C114.287448,61.3141719 114.79434,61.6162658 115.181239,62.2294699 C115.568139,62.842674 115.802076,63.714734 115.82973,64.6468796 Z" id="Path" fill="#263238" fill-rule="nonzero"></path>
                    <path d="M145.061385,51.48 C132.523385,48.5166117 123.76959,42.4868338 118.8,33.3906662 C108.904823,51.5768009 97.1415701,60.9065788 83.510241,61.38 C69.8789119,61.8534212 64.5391438,53.1002464 67.4909367,35.1204755 C74.2835359,26.8071235 79.623304,21.4469593 83.510241,19.039983 C95.4495108,11.6466189 104.8344,11.5665729 116.779043,13.7488232 C123.592736,14.9936643 137.35895,20.79 142.189015,32.78998 C145.290471,40.4953429 146.247927,46.7253496 145.061385,51.48 Z" id="Path-16" fill="url(#linearGradient-24)"></path>
                    <path d="M84.1430481,61.9034625 C82.4729327,59.4490875 79.996125,58.7994 76.712625,59.9544 C73.429125,61.1094 73.429125,65.2240875 76.712625,72.2984625 C77.9464136,74.024077 79.8184994,74.6162575 82.3288823,74.0750038 C84.8392653,73.5337501 85.4439873,69.4765696 84.1430481,61.9034625 Z" id="Path-18" fill="#FFBE9D" fill-rule="nonzero"></path>
                    <path d="M127.71,61.875 C124.614301,61.1092433 122.169393,61.4128042 120.375274,62.7856825" id="Path-19" stroke="#263238" stroke-width="1.98"></path>
                </g>
                <rect id="Rectangle" fill="url(#linearGradient-25)" x="432.63" y="207.9" width="106.92" height="126.72"></rect>
                <g id="medical-personal" transform="translate(475.480000, 272.390000) scale(-1, 1) translate(-475.480000, -272.390000) translate(404.480000, 208.890000)">
                    <g id="Person-with-medical-mask-pana" transform="translate(0.000000, 14.850000)" fill-rule="nonzero">
                        <g id="Character--inject-198" transform="translate(0.544500, 0.693000)">
                            <path d="M125.4038,39.799539 L128.448291,36.0757984 C128.448291,36.0757984 128.626921,34.5661863 128.631179,32.8099085 C128.636493,30.6187907 128.452836,28.0438356 128.26631,27.5385024 C128.223895,27.4160785 130.066446,26.9625639 130.769778,28.310558 C131.414089,29.5518048 131.928594,31.1997027 132.090901,32.2895174 C132.134726,32.5587913 132.11707,32.8208954 132.347358,32.9638069 C132.577646,33.1067183 132.858054,33.1416596 133.115856,33.0595685 C134.51477,32.6113741 135.942928,32.2621512 137.389949,32.0144386 C138.223618,31.9176214 139.163033,32.7194668 139.345014,33.3202303 C139.482729,33.7720442 139.507321,34.9239213 139.765538,35.4427625 C139.799966,35.5097898 139.831936,35.5743346 139.858987,35.6388795 C140.037496,36.0684985 140.395093,37.3344227 140.550023,37.823474 C140.644947,38.1825563 140.672472,38.5563986 140.631177,38.9257012 C140.423226,39.8404459 140.345352,40.3965245 140.397553,40.593937 C140.483625,41.0482333 139.381902,42.3068577 139.381902,42.3068577 L133.797055,44.4467673 L131.829694,46.34091 L125.4038,39.799539 Z" id="Path" fill="#B78876"></path>
                            <path d="M62.373465,36.40329 C63.3331519,36.4531754 64.2882766,36.5689481 65.23209,36.74979 C70.6117164,37.5513433 75.7150129,39.6516512 80.100405,42.86898 C90.539718,51.3092574 97.5883529,55.3426552 101.24631,54.9691734 C107.739263,54.3062352 115.880033,49.1777525 125.66862,39.5837255 L132.897863,46.609153 C129.188652,52.9200529 126.159198,57.5789722 123.8095,60.5859107 C122.087159,62.7900126 119.008556,65.9476541 114.57369,70.058835 C104.72552,78.4681314 92.9091218,78.8488865 79.1244955,71.2011002 C78.7359415,72.578049 78.1384498,73.8975926 77.3450814,75.1109668 C76.281595,80.3823259 75.8769679,84.971184 76.129515,88.87725 C76.4493202,93.8235763 78.0351352,100.956856 80.88696,110.27709 L37.22796,110.27709 C32.4324,110.12463 36.79137,97.62984 36.036,97.62984 C36.83064,90.3441 37.22796,84.7747407 37.22796,80.9217622 C37.22796,78.1337558 35.605185,73.03207 32.359635,65.616705 C24.912195,67.32264 21.188475,70.4902789 21.188475,75.1196217 C21.188475,79.7489646 24.912195,83.6095007 32.359635,86.70123 L28.4887199,96.3997432 C16.681612,93.519358 9.34984204,90.6006803 6.49341,87.64371 C-1.4215868,79.4501279 -0.151590477,68.6991783 1.82358357,65.0089921 C8.7534789,52.0619792 25.26213,41.6008917 37.0755,38.8773 C42.966,37.106685 47.55366,36.27162 47.55366,36.27162 C56.7567,36.13995 57.44277,36.171135 62.373465,36.40329 Z" id="Combined-Shape" fill="url(#linearGradient-26)"></path>
                            <path d="M72.165555,55.505835 C72.2325652,55.5343357 72.2954869,55.5716226 72.352665,55.616715 C72.46701,55.69641 72.650655,55.80729 72.86202,55.963215 C73.4780986,56.4207634 74.057372,56.9258899 74.59452,57.473955 C76.3473376,59.3063233 77.7641667,61.4327397 78.78024,63.756 C79.3771015,65.0330816 79.6892274,66.4246427 79.695,67.834305 C79.6873399,68.9768038 79.505054,70.1114166 79.15446,71.19882 C78.9256816,71.9304817 78.647852,72.6458928 78.32286,73.34019 L78.042195,73.898055 C78.0124508,73.9648106 77.9764871,74.0286172 77.93478,74.08863 C77.9517142,74.017618 77.9773163,73.9489577 78.01101,73.884195 C78.07338,73.7352 78.15654,73.537695 78.257025,73.31247 C78.5547242,72.6110584 78.8138313,71.893887 79.033185,71.16417 C79.3590435,70.0841365 79.5259583,68.9624223 79.52868,67.834305 C79.5090715,66.4533083 79.1948372,65.0924138 78.60699,63.842625 C77.5949236,61.5383821 76.2060862,59.4188242 74.4975,57.570975 C73.9711066,57.0201001 73.4085258,56.5049799 72.81351,56.02905 C72.60561,55.8558 72.43236,55.73799 72.324945,55.644435 C72.2672468,55.6037668 72.2138412,55.5573271 72.165555,55.505835 Z" id="Path" fill="#263238" filter="url(#filter-27)"></path>
                            <g id="Group" opacity="0.3" transform="translate(47.817000, 71.032500)" fill="#000000">
                                <path d="M13.766445,0.11781 C12.380445,3.766455 8.610525,5.408865 5.103945,5.64102 L4.902975,5.64102 C3.30612016,5.56582779 1.708294,5.76746102 0.18018,6.237 C2.13199201,9.5023965 6.2198037,10.7886976 9.68979995,9.22936751 C13.1597962,7.67003739 14.9121856,3.75929496 13.766445,0.13167 L13.766445,0.11781 Z" id="Path" filter="url(#filter-28)"></path>
                            </g>
                            <g id="Group" opacity="0.3" transform="translate(30.145500, 79.002000)" fill="#000000">
                                <path d="M4.158,1.0395 C5.28572334,4.03857963 6.88025019,7.56496997 8.00797353,10.5640496 C8.99704236,13.2006031 10.5083765,16.0843336 11.4974453,18.711 L11.9318961,18.6813388 C13.8360847,12.571126 10.6008128,5.28764687 4.158,1.0395 Z" id="Path" filter="url(#filter-29)" transform="translate(8.316000, 9.875250) rotate(33.000000) translate(-8.316000, -9.875250) "></path>
                            </g>
                            <g id="Group" opacity="0.3" transform="translate(74.497500, 56.826000)" fill="#000000">
                                <path d="M8.94239592,10.4765156 C7.16681433,5.77124896 4.04854923,2.13188543 0.239085,0.31878 C2.38170216,4.2935461 4.80285956,9.09086797 5.04711792,14.2415024 L8.23961749,16.60428 C9.23379186,15.3676861 9.54232873,12.0719425 8.94239592,10.4765156 Z" id="Path" filter="url(#filter-30)"></path>
                            </g>
                            <path d="M67.4067855,24.2373709 C67.8258851,20.457055 67.3551573,14.3159578 66.7993949,9.3000642 C66.3104454,4.7869863 63.088238,-0.627480805 58.6421385,0.0592919192 L44.8543708,4.2688408 C43.5040899,4.47603635 42.5356139,5.69219568 42.6252471,7.06805284 L45.5346483,40.3397386 C45.5684459,40.7443628 45.7124422,41.1316654 45.9507109,41.4588102 C47.8096077,44.0943545 50.9843464,45.4428499 54.1504846,44.941729 C59.5684092,44.2334946 60.7831905,40.7260482 61.0322207,39.6069766 C61.0747337,39.4200643 61.0931081,39.2283836 61.0868858,39.03671 C60.9502229,34.7229188 60.8712622,33.0335805 60.8742991,33.06424 C60.8773361,33.0948995 66.5655495,31.8378602 67.4067855,24.2373709 Z" id="Path" fill="#B78876"></path>
                            <path d="M64.4474468,14.0607684 C64.478029,14.8419508 64.0534395,15.5152277 63.4889179,15.5807202 C63.2214267,15.6294753 62.9510986,15.5255979 62.7402899,15.2930492 C62.5294813,15.0605005 62.3963971,14.7193631 62.3717359,14.3483269 C62.339369,13.5688177 62.7634129,12.8961053 63.3269595,12.8329395 C63.5944516,12.7828188 63.8651791,12.8854656 64.076637,13.117181 C64.2880949,13.3488964 64.4220037,13.6896497 64.4474468,14.0607684 Z" id="Path" fill="#263238"></path>
                            <path d="M54.7452546,14.4094854 C54.7776969,15.1884409 54.3540869,15.8612567 53.7900424,15.92664 C53.522031,15.97665 53.2508299,15.8735861 53.0392745,15.6413275 C52.8277191,15.409069 52.6941696,15.0677727 52.6695685,14.6965146 C52.638898,13.9183942 53.0615855,13.2470436 53.6247808,13.17936 C53.8927922,13.12935 54.1639933,13.2324139 54.3755487,13.4646725 C54.587104,13.696931 54.7206535,14.0382273 54.7452546,14.4094854 Z" id="Path" fill="#263238"></path>
                            <path d="M60.1310474,21.1091867 C60.1310474,21.0533652 59.1478616,12.8652323 59.2604866,12.8211627 C59.3731116,12.7770931 60.4537028,14.9365038 61.6682264,17.6511916 C61.9726183,18.3210496 62.2435271,18.9585899 62.508348,19.5696885 C62.6897837,19.8691546 62.7555599,20.2209344 62.6940271,20.5627236 C62.6258554,20.7486739 62.4716008,20.8932125 62.2770102,20.9534741 C62.1330588,20.9988709 61.9837364,21.0265113 61.832598,21.0357374 C60.7885339,21.1326905 60.1371352,21.1650082 60.1310474,21.1091867 Z" id="Path" fill="#263238" opacity="0.431222098" filter="url(#filter-31)"></path>
                            <path d="M59.641861,21.4556867 C59.641861,21.432242 56.366766,20.6028223 56.1632877,18.9162112 C56.0718798,18.1585407 56.1979171,16.532919 56.4000745,15.798581 C56.819377,14.2754617 58.6767493,13.1849086 58.7232556,13.1676627 C58.8420961,13.1235931 59.9823232,15.2830038 61.2638741,17.9976916 C61.5850649,18.6675496 61.8709246,19.3050899 62.1503605,19.9161885 C62.3418092,20.2156546 62.4112156,20.5674344 62.3462869,20.9092236 C62.2743529,21.0951739 62.1115853,21.2397125 61.9062556,21.2999741 C61.7543598,21.3453709 61.5967966,21.3730113 61.4373171,21.3822374 C60.335633,21.4791905 59.6482848,21.5115082 59.641861,21.4556867 Z" id="Path" fill="#B78876" filter="url(#filter-32)"></path>
                            <path d="M60.8943879,32.995826 C57.3175715,33.2062169 53.7501121,32.4594063 50.589,30.8385 C50.589,30.8385 53.404055,35.8831413 60.984,34.8593759 L60.8943879,32.995826 Z" id="Path" fill="#000000" opacity="0.324102493" filter="url(#filter-33)"></path>
                            <path d="M48.39604,19.3123424 L46.431,23.5823308 C46.431,23.5823308 49.7473925,28.9497033 52.3199212,30.7643717 C55.3389427,32.9303606 59.2369527,33.5025046 62.7619083,32.2970309 C62.7619083,32.2970309 68.3098919,30.2677901 67.8914685,20.6764091 C67.8914685,20.6764091 64.1411556,19.2939505 61.7514934,19.0793782 C59.3618311,18.8648059 54.0494043,20.3055055 52.031674,20.0480188 C50.8047259,19.8823078 49.5901989,19.6365463 48.39604,19.3123424 L48.39604,19.3123424 Z" id="Path" fill="#F5F5F5"></path>
                            <path d="M48.617415,19.587645 C47.7424771,19.115559 46.8966524,18.5914022 46.0845,18.018 C45.2426873,17.4886203 44.4327849,16.9101186 43.659,16.2855 C44.5339379,16.757586 45.3797626,17.2817428 46.191915,17.855145 C47.0337277,18.3845247 47.8436301,18.9630264 48.617415,19.587645 L48.617415,19.587645 Z" id="Path" fill="#263238"></path>
                            <path d="M46.794825,23.579844 C46.2859646,23.7201519 45.7629153,23.8026774 45.235575,23.825859 C44.7142409,23.9073022 44.1854694,23.9305449 43.659,23.895159 C44.1679296,23.754615 44.6908757,23.6709436 45.21825,23.645679 C45.7395988,23.5642285 46.2685007,23.5421425 46.794825,23.579844 L46.794825,23.579844 Z" id="Path" fill="#263238"></path>
                            <path d="M68.104575,25.9182 C68.0380834,25.9585568 67.96716,25.9911118 67.89321,26.01522 C67.751145,26.074125 67.54671,26.16075 67.272975,26.2647 C66.499114,26.5371072 65.7056492,26.7502423 64.89945,26.90226 C63.6993102,27.1273718 62.4781205,27.2203263 61.257735,27.17946 C59.7634842,27.1272815 58.2826719,26.8779551 56.85372,26.43795 C56.1140089,26.2087302 55.3914779,25.9273599 54.69156,25.595955 C54.0439998,25.2833758 53.4136242,24.93638 52.803135,24.556455 C51.631965,23.835735 50.62365,23.11848 49.77126,22.53636 C48.91887,21.95424 48.215475,21.49686 47.71998,21.188475 L47.15172,20.841975 C47.0815596,20.8067606 47.0163228,20.7624928 46.95768,20.710305 C47.0310255,20.7359354 47.1017932,20.768419 47.169045,20.807325 C47.30418,20.876625 47.515545,20.980575 47.758095,21.126105 C48.26052,21.410235 48.977775,21.853755 49.837095,22.42548 C50.696415,22.997205 51.715125,23.704065 52.88283,24.410925 C53.468415,24.757425 54.09558,25.103925 54.764325,25.4331 C55.458078,25.7583964 56.1735903,26.0351074 56.905695,26.261235 C59.4846033,27.058147 62.2154191,27.233869 64.875195,26.774055 C65.6785006,26.6333264 66.4714571,26.4388495 67.24872,26.191935 L67.87935,25.977105 C67.9523877,25.950374 68.0278023,25.9306502 68.104575,25.9182 L68.104575,25.9182 Z" id="Path" fill="#E0E0E0" filter="url(#filter-34)"></path>
                            <path d="M67.0893293,22.5879155 C65.2824463,21.9969052 63.4569358,21.4121161 61.5631238,21.2472553 C59.6693118,21.0823946 57.8593242,21.331241 56.0089768,21.449443 C54.1586293,21.5676451 52.0940638,21.449443 50.3616915,20.79 L49.896,20.79 C55.1849232,23.5668838 61.3113615,24.2880499 67.0986431,22.8149878 C67.1483169,22.8149878 67.2073044,22.7807714 67.2197229,22.7310022 C67.2321413,22.6812329 67.1514215,22.6096895 67.0893293,22.5879155 Z" id="Path" fill="#E0E0E0" filter="url(#filter-35)"></path>
                            <path d="M48.51,23.9085 C50.1319545,24.787023 51.722837,25.7504699 53.5001511,26.2775838 C57.0306206,27.3527183 60.7374241,27.8209016 64.443683,27.6597933 C64.7295447,27.6597933 65.1086221,27.7066479 65.1396941,27.9731332 C65.170766,28.2396185 64.8817971,28.3596833 64.6363289,28.4270368 C63.8253842,28.6316465 62.9900579,28.737927 62.1505749,28.743305 C59.6645857,28.8408434 57.181293,28.4971332 54.8300295,27.7300752 C52.4719195,26.9595199 50.3419184,25.6717442 48.6156445,23.972925" id="Path" fill="#E0E0E0" filter="url(#filter-36)"></path>
                            <path d="M31.96809,87.64371 C32.00967,87.71994 33.3322857,88.00638 35.935937,88.50303 C38.7454618,90.4425096 40.4851406,91.9297507 41.1549733,92.9647532 C43.0646968,95.9155925 42.5271007,98.940613 41.576535,100.45728 C39.400515,103.92921 37.7744547,103.393017 37.7744547,103.393017 C35.4958301,103.395627 34.0620365,103.097342 33.473074,102.498165 C32.0237221,101.023675 30.4280892,98.7736499 28.6861753,95.7480883 L31.96809,87.64371 Z" id="Path" fill="#B78876"></path>
                        </g>
                    </g>
                    <circle id="Oval" fill="url(#linearGradient-37)" cx="37.2735" cy="8.9595" r="8.6625"></circle>
                    <path d="M61.1388423,17.8439727 C56.8108111,24.8746838 52.1918537,28.2747073 47.2819702,28.0440432 C45.0819618,29.1985954 43.9819576,30.4813339 43.9819576,31.8922587 C43.9819576,32.0458616 44.6027538,38.7691965 44.6228604,39.0844906 C44.6715468,39.8479514 44.79375,41.2407878 44.9894697,43.263 C42.7522627,43.1057068 41.2911701,42.8890921 40.6061921,42.6131557 C38.4456513,41.7428041 36.4702578,39.8719382 36.0244825,39.194584 C33.6573633,35.5977528 32.172661,25.32114 35.0257726,17.8439727 C37.7077768,10.8152279 45.7222023,7.19983801 46.9986142,6.57140944 C48.1594208,5.99989798 60.4250875,2.9773363 70.1036122,15.5034148 C71.504494,17.316455 72.5565373,22.9092931 70.1158654,26.9640583 C69.4197319,28.120567 68.6794325,28.9342114 67.8949674,29.4049917 C66.8769971,26.1474431 65.9777954,23.8509338 65.1973623,22.5154639 C64.4169292,21.179994 63.0640892,19.6228302 61.1388423,17.8439727 Z" id="Path-2" fill="url(#linearGradient-38)"></path>
                    <path d="M44.6208073,32.0378627 C44.5026533,31.9881262 39.8976769,30.6891268 40.0491564,35.2268479 C40.2006358,39.7645689 44.8965,38.684995 44.8965,38.5533397 C44.8965,38.4216843 44.6208073,32.0378627 44.6208073,32.0378627 Z" id="Path" fill="#B78876" fill-rule="nonzero"></path>
                    <ellipse id="Oval" fill="#D6007A" cx="42.8175" cy="39.105" rx="1" ry="1.386"></ellipse>
                </g>
            </g>
        </g>
    </g>
</svg>