<?xml version="1.0" encoding="UTF-8"?>
<svg width="217px" height="216px" viewBox="0 0 217 216" version="1.1" xmlns="http://www.w3.org/2000/svg" xmlns:xlink="http://www.w3.org/1999/xlink">
    <!-- Generator: Sketch 64 (93537) - https://sketch.com -->
    <title>Virus</title>
    <desc>Created with Sketch.</desc>
    <g id="Page-1" stroke="none" stroke-width="1" fill="none" fill-rule="evenodd">
        <g id="Icons-01" transform="translate(-987.000000, -19.000000)" fill-rule="nonzero">
            <g id="Virus" transform="translate(988.000000, 20.000000)">
                <path d="M116.22,9 C116.193205,5.85963546 114.493081,2.97211389 111.760048,1.4251367 C109.027015,-0.121840486 105.676286,-0.0932506477 102.970048,1.5001367 C100.26381,3.09352405 98.6132051,6.00963546 98.64,9.15 C98.6868819,12.6060149 100.79821,15.6981647 104,17 L104.13,31.48 L111.13,31.42 L111,17 C114.195368,15.6315445 116.254428,12.4758974 116.22,9 Z" id="Path" stroke="#000000" stroke-width="2" fill="#FFFFFF"></path>
                <path d="M155.72,21.16 C157.506353,16.7403103 155.444211,11.7022524 151.071635,9.80349119 C146.699059,7.90472997 141.609928,9.83739641 139.6,14.16 C138.24575,17.3296615 138.914823,21.0016918 141.3,23.49 L135.52,36.77 L141.96,39.58 L147.74,26.3 C151.191048,26.3453755 154.334135,24.3208812 155.72,21.16 L155.72,21.16 Z" id="Path" stroke="#000000" stroke-width="2" fill="#FFFFFF"></path>
                <path d="M186.88,48.31 C190.187864,45.3915902 190.820326,40.4734655 188.358484,36.8130815 C185.896641,33.1526976 181.103088,31.8839156 177.152771,33.8470969 C173.202455,35.8102781 171.319048,40.3972964 172.75,44.57 L162.07,54.35 L166.82,59.53 L177.5,49.75 C180.632112,51.1974143 184.326299,50.6302896 186.88,48.31 L186.88,48.31 Z" id="Path" stroke="#000000" stroke-width="2" fill="#FFFFFF"></path>
                <path d="M204.29,85.79 C208.790978,84.1777953 211.177994,79.2637637 209.662844,74.7291938 C208.147693,70.1946239 203.28607,67.7026034 198.72,69.12 C195.455528,70.2278084 193.17108,73.181835 192.92,76.62 L179.18,81.22 L181.41,87.88 L195.15,83.29 C197.41996,85.8803431 201.017651,86.8643943 204.29,85.79 Z" id="Path" stroke="#000000" stroke-width="2" fill="#FFFFFF"></path>
                <path d="M205,127.11 C209.737848,127.419138 213.864919,123.909974 214.321568,119.184062 C214.778217,114.458151 211.399384,110.223717 206.69,109.62 C203.257973,109.306124 199.970617,111.073816 198.34,114.11 L183.92,112.72 L183.25,119.72 L197.66,121.11 C198.686182,124.398193 201.573401,126.758318 205,127.11 L205,127.11 Z" id="Path" stroke="#000000" stroke-width="2" fill="#FFFFFF"></path>
                <path d="M188.77,165.13 C192.981421,167.392464 198.22886,165.874281 200.581671,161.712661 C202.934483,157.55104 201.529883,152.272064 197.42,149.83 C194.412566,148.150528 190.692723,148.430008 187.97,150.54 L175.36,143.41 L171.9,149.52 L184.5,156.66 C184.099618,160.08352 185.779576,163.415895 188.77,165.13 L188.77,165.13 Z" id="Path" stroke="#000000" stroke-width="2" fill="#FFFFFF"></path>
                <path d="M158.51,193.28 C161.065635,196.875612 165.890472,198.02009 169.788765,195.955385 C173.687058,193.890681 175.45121,189.25639 173.912729,185.12205 C172.374248,180.98771 168.009718,178.63404 163.71,179.62 L155.1,168 L149.44,172.18 L158.06,183.82 C156.303818,186.779364 156.480838,190.5007 158.51,193.28 L158.51,193.28 Z" id="Path" stroke="#000000" stroke-width="2" fill="#FFFFFF"></path>
                <path d="M119.42,206.68 C120.098805,209.743552 122.360432,212.212254 125.352948,213.156168 C128.345465,214.100082 131.614236,213.375806 133.927948,211.256168 C136.24166,209.13653 137.248805,205.943552 136.57,202.88 C135.807794,199.518079 133.111729,196.936154 129.72,196.32 L126.59,182.18 L119.73,183.7 L122.86,197.84 C120.045006,199.830713 118.691006,203.310179 119.42,206.68 Z" id="Path" stroke="#000000" stroke-width="2" fill="#FFFFFF"></path>
                <path d="M78.25,203 C77.4436023,207.683009 80.505005,212.159042 85.1617218,213.105529 C89.8184386,214.052016 94.384275,211.126235 95.47,206.5 C96.1398909,203.121295 94.7267605,199.669163 91.88,197.73 L94.77,183.53 L87.88,182.13 L85,196.35 C81.6254643,197.022766 78.9730541,199.635881 78.25,203 L78.25,203 Z" id="Path" stroke="#000000" stroke-width="2" fill="#FFFFFF"></path>
                <path d="M42.13,183 C39.501901,186.542575 39.9063392,191.484323 43.0754653,194.552446 C46.2445915,197.62057 51.1968428,197.864791 54.6524672,195.123367 C58.1080915,192.381943 58.9967901,187.503967 56.73,183.72 L65.14,171.93 L59.42,167.85 L51,179.59 C47.626568,178.838814 44.1314703,180.182476 42.13,183 Z" id="Path" stroke="#000000" stroke-width="2" fill="#FFFFFF"></path>
                <path d="M17.3,149.91 C13.277766,152.442958 11.9978221,157.714575 14.4106978,161.809972 C16.8235735,165.905369 22.0550247,167.340682 26.22,165.05 C29.182361,163.287771 30.8044634,159.925451 30.34,156.51 L42.82,149.16 L39.25,143.1 L26.77,150.45 C24.0069321,148.388078 20.2795462,148.175534 17.3,149.91 Z" id="Path" stroke="#000000" stroke-width="2" fill="#FFFFFF"></path>
                <path d="M8.06,109.63 C3.34005758,110.294159 0.00947314917,114.599106 0.551910174,119.334581 C1.0943472,124.070056 5.3121305,127.510356 10.06,127.09 C13.4813107,126.681634 16.327537,124.268443 17.29,120.96 L31.68,119.33 L30.89,112.33 L16.49,114 C14.8097722,110.985471 11.4918651,109.265512 8.06,109.63 L8.06,109.63 Z" id="Path" stroke="#000000" stroke-width="2" fill="#FFFFFF"></path>
                <path d="M16,69.08 C11.41532,67.7519286 6.60862313,70.3253472 5.17192459,74.8771558 C3.73522606,79.4289644 6.19363615,84.2954866 10.71,85.84 C14.0023097,86.8563686 17.5834291,85.8095799 19.81,83.18 L33.63,87.54 L35.74,80.83 L21.93,76.47 C21.6083468,73.0427257 19.2762241,70.1364211 16,69.08 Z" id="Path" stroke="#000000" stroke-width="2" fill="#FFFFFF"></path>
                <path d="M39.74,35.25 C36.4937537,32.2624128 31.5358262,32.1440012 28.1506558,34.9732085 C24.7654854,37.8024157 24.0019482,42.7026276 26.3658586,46.4276404 C28.729769,50.1526532 33.4886825,51.5482923 37.49,49.69 L48.34,59.29 L53,54 L42.15,44.4 C43.2475109,41.1424508 42.2997907,37.54426 39.74,35.25 L39.74,35.25 Z" id="Path" stroke="#000000" stroke-width="2" fill="#FFFFFF"></path>
                <path d="M75.19,14 C73.1769221,9.581722 67.963278,7.63192209 63.545,9.645 C59.126722,11.6580779 57.1769221,16.871722 59.19,21.29 C60.6337386,24.4196641 63.8047409,26.3867871 67.25,26.29 L73.25,39.47 L79.65,36.55 L73.65,23.37 C75.9949198,20.8376175 76.6010464,17.1496918 75.19,14 L75.19,14 Z" id="Path" stroke="#000000" stroke-width="2" fill="#FFFFFF"></path>
                <path d="M116.22,9 C116.193205,5.85963546 114.493081,2.97211389 111.760048,1.4251367 C109.027015,-0.121840486 105.676286,-0.0932506477 102.970048,1.5001367 C100.26381,3.09352405 98.6132051,6.00963546 98.64,9.15 C98.6868819,12.6060149 100.79821,15.6981647 104,17 L104.13,31.48 L111.13,31.42 L111,17 C114.195368,15.6315445 116.254428,12.4758974 116.22,9 Z" id="Path" stroke="#000000" stroke-width="2" fill="#FFFFFF"></path>
                <circle id="Oval" stroke="#000000" stroke-width="2" fill="#FFFFFF" cx="107.18" cy="107.99" r="77.46"></circle>
                <circle id="Oval" opacity="0.2" cx="107.18" cy="107.99" r="77.46"></circle>
                <path d="M91.65,143.68 C92.0489812,142.426857 92.9256162,141.381362 94.09,140.77 C95.6157486,139.94804 97.4653175,140.008466 98.9341616,140.928262 C100.403006,141.848058 101.264975,143.485607 101.191724,145.217127 C101.118473,146.948648 100.12128,148.507546 98.58,149.3 C97.4288839,149.904997 96.0873471,150.037716 94.84,149.67" id="Path" stroke="#ED1C24" stroke-width="2" fill="#FFFFFF" stroke-linecap="round"></path>
                <path d="M137.18,152.25 C139.400428,154.01489 140.336352,156.94526 139.550009,159.670476 C138.763666,162.395691 136.410504,164.377017 133.591177,164.687718 C130.771851,164.998419 128.0437,163.577075 126.682776,161.088497 C125.321851,158.599919 125.597187,155.536063 127.38,153.33" id="Path" stroke="#000000" stroke-width="2" fill="#FFFFFF" stroke-linecap="round"></path>
                <path d="M161.81,115.25 C158.416518,116.86315 154.521765,117.064541 150.98,115.81 C146.099769,114.367556 142.410612,110.354593 141.382877,105.370512 C140.355141,100.386432 142.155892,95.2414298 146.067424,91.9860927 C149.978956,88.7307556 155.365422,87.8942605 160.08,89.81 C163.592582,91.034375 166.488222,93.5819647 168.15,96.91" id="Path" stroke="#ED1C24" stroke-width="2" fill="#FFFFFF" stroke-linecap="round"></path>
                <path d="M115.85,57.52 C116.663273,54.9603715 118.462521,52.8300624 120.85,51.6 C123.958211,49.9655099 127.702306,50.1133894 130.671921,51.9879338 C133.641536,53.8624781 135.385516,57.1788994 135.246921,60.6879338 C135.108326,64.1969682 133.108211,67.3655099 130,69 C127.658235,70.2437553 124.921289,70.5167315 122.38,69.76" id="Path" stroke="#000000" stroke-width="2" fill="#FFFFFF" stroke-linecap="round"></path>
                <path d="M106.53,94.91 C106.278284,96.8686518 104.884288,98.489213 102.985262,99.0308594 C101.086237,99.5725058 99.0470908,98.9311572 97.8,97.4 C96.6408762,95.8142401 96.529042,93.6931351 97.5149861,91.9942776 C98.5009301,90.2954202 100.3981,89.3402548 102.35,89.56" id="Path" stroke="#000000" stroke-width="2" fill="#FFFFFF" stroke-linecap="round"></path>
                <path d="M58.65,136 C56.1555566,134.649284 54.7228924,131.92668 55.0222224,129.105849 C55.3215523,126.285019 57.2936912,123.923712 60.0160525,123.126573 C62.7384137,122.329433 65.6727172,123.254075 67.4462662,125.467942 C69.2198151,127.681809 69.4819336,130.747163 68.11,133.23" id="Path" stroke="#000000" stroke-width="2" fill="#FFFFFF" stroke-linecap="round"></path>
                <path d="M55.86,72.69 C58.9194154,70.5135062 62.7158792,69.636293 66.42,70.25 C71.3904282,70.9233163 75.6033005,74.242361 77.4212338,78.9171476 C79.2391671,83.5919342 78.375442,88.8851685 75.1657555,92.7395717 C71.9560691,96.593975 66.9066442,98.4016415 61.98,97.46 C58.3061517,96.8704118 55.0101193,94.8633507 52.8,91.87" id="Path" stroke="#ED1C24" stroke-width="2" fill="#FFFFFF" stroke-linecap="round"></path>
            </g>
        </g>
    </g>
</svg>